<svg width="68" height="68" viewBox="0 0 68 68" fill="none" xmlns="http://www.w3.org/2000/svg">
<path d="M67.75 31.75C67.7461 28.1708 66.3226 24.7392 63.7917 22.2083C61.2608 19.6774 57.8292 18.2539 54.25 18.25V10.375C54.25 5.46663 44.7865 0.25 27.25 0.25C9.7135 0.25 0.25 5.46663 0.25 10.375V20.5C0.283705 21.2576 0.476291 21.9996 0.815262 22.6779C1.15423 23.3562 1.63202 23.9557 2.21763 24.4375C1.63207 24.9193 1.15432 25.5188 0.815358 26.1971C0.476391 26.8755 0.283775 27.6175 0.25 28.375V38.5C0.25 39.6756 0.763 41.3327 2.878 43C0.763 44.6695 0.25 46.3244 0.25 47.5V57.625C0.25 62.5334 9.7135 67.75 27.25 67.75C36.5661 67.75 44.8922 66.0985 49.7612 63.3625C49.8316 64.5161 50.3432 65.5984 51.1899 66.3851C52.0366 67.1718 53.1535 67.6026 54.3092 67.5881C55.4649 67.5737 56.5707 67.1151 57.3975 66.3074C58.2242 65.4998 58.7085 64.405 58.75 63.25V50.875C58.75 50.5766 58.6315 50.2905 58.4205 50.0795C58.2095 49.8685 57.9234 49.75 57.625 49.75V44.8C60.5184 44.0509 63.0817 42.3637 64.9138 40.0023C66.7459 37.6409 67.7434 34.7388 67.75 31.75ZM65.5 31.75C65.5 33.975 64.8402 36.1501 63.604 38.0002C62.3679 39.8502 60.6109 41.2922 58.5552 42.1436C56.4995 42.9951 54.2375 43.2179 52.0552 42.7838C49.8729 42.3498 47.8684 41.2783 46.295 39.705C44.7217 38.1316 43.6502 36.1271 43.2162 33.9448C42.7821 31.7625 43.0049 29.5005 43.8564 27.4448C44.7078 25.3891 46.1498 23.6321 47.9998 22.396C49.8499 21.1598 52.025 20.5 54.25 20.5C57.2327 20.5033 60.0923 21.6896 62.2013 23.7987C64.3104 25.9077 65.4967 28.7673 65.5 31.75ZM4.03788 25.8179C8.78088 28.7946 17.539 30.625 27.25 30.625C31.8639 30.6514 36.468 30.1989 40.9885 29.275C40.6325 31.1095 40.6755 32.9992 41.1145 34.8156C36.5599 35.8026 31.9102 36.2836 27.25 36.25C12.6644 36.25 2.5 32.0999 2.5 28.375C2.56095 27.8643 2.72954 27.3723 2.99463 26.9315C3.25972 26.4907 3.6153 26.1111 4.03788 25.8179ZM41.704 26.7966C36.9634 27.8808 32.1129 28.4105 27.25 28.375C17.6324 28.375 8.75725 26.4704 4.6375 23.5184C3.65988 22.8321 2.5 21.7521 2.5 20.5V14.4711C6.25075 17.8056 14.6556 20.5 27.25 20.5C39.8444 20.5 48.2492 17.8056 52 14.4711V18.4536C49.7118 18.8443 47.5627 19.8174 45.7595 21.2791C43.9563 22.7409 42.5597 24.6422 41.704 26.8V26.7966ZM27.25 2.5C41.8356 2.5 52 6.65013 52 10.375C52 14.0999 41.8356 18.25 27.25 18.25C12.6644 18.25 2.5 14.0999 2.5 10.375C2.5 6.65013 12.6644 2.5 27.25 2.5ZM2.5 32.4711C6.25075 35.8 14.6556 38.5 27.25 38.5C32.1421 38.5338 37.0225 38.0183 41.7996 36.9632C42.8653 39.4854 44.6694 41.626 46.9746 43.1035C42.2519 45.1442 34.9585 46.375 27.25 46.375C18.2376 46.375 9.87663 44.7122 5.425 42.0325C4.09075 41.2405 2.5 39.9839 2.5 38.5V32.4711ZM4.885 44.3084C9.82375 47.0174 18.0936 48.625 27.25 48.625C36.2961 48.625 44.5457 47.0387 49.5059 44.3725C49.6814 44.4389 50.0909 44.5874 50.1179 44.5975C50.3665 44.6774 50.6208 44.7404 50.875 44.8056V49.75C50.6378 49.7514 50.4073 49.8286 50.217 49.9702C50.0268 50.1119 49.8868 50.3107 49.8175 50.5375C45.6888 53.4839 36.925 55.375 27.25 55.375C12.6644 55.375 2.5 51.2249 2.5 47.5C2.5 46.213 3.697 45.0981 4.885 44.3084ZM2.5 57.625V51.5961C6.25075 54.9306 14.6556 57.625 27.25 57.625C36.5583 57.625 44.8787 55.9757 49.75 53.2454V60.7109C45.5931 63.6291 36.8778 65.5 27.25 65.5C12.6644 65.5 2.5 61.3499 2.5 57.625ZM56.5 63.25C56.5 63.8467 56.2629 64.419 55.841 64.841C55.419 65.2629 54.8467 65.5 54.25 65.5C53.6533 65.5 53.081 65.2629 52.659 64.841C52.2371 64.419 52 63.8467 52 63.25V52H56.5V63.25ZM55.375 49.75H53.125V45.1926C53.4974 45.2241 53.8698 45.25 54.25 45.25C54.6302 45.25 55.0026 45.2241 55.375 45.1926V49.75Z" fill="#1966A0"/>
<path d="M45.25 31.75C45.25 33.53 45.7778 35.2701 46.7668 36.7501C47.7557 38.2302 49.1613 39.3837 50.8059 40.0649C52.4504 40.7461 54.26 40.9243 56.0058 40.5771C57.7516 40.2298 59.3553 39.3726 60.614 38.114C61.8726 36.8553 62.7298 35.2516 63.0771 33.5058C63.4243 31.76 63.2461 29.9504 62.5649 28.3058C61.8837 26.6613 60.7302 25.2557 59.2501 24.2668C57.7701 23.2778 56.03 22.75 54.25 22.75C51.8639 22.7527 49.5762 23.7018 47.889 25.389C46.2018 27.0762 45.2527 29.3639 45.25 31.75ZM61 31.75C61 33.085 60.6041 34.3901 59.8624 35.5001C59.1207 36.6101 58.0665 37.4753 56.8331 37.9862C55.5997 38.4971 54.2425 38.6308 52.9331 38.3703C51.6238 38.1099 50.421 37.467 49.477 36.523C48.533 35.579 47.8901 34.3762 47.6297 33.0669C47.3692 31.7575 47.5029 30.4003 48.0138 29.1669C48.5247 27.9335 49.3899 26.8793 50.4999 26.1376C51.6099 25.3959 52.915 25 54.25 25C56.0397 25.0018 57.7555 25.7135 59.021 26.979C60.2865 28.2445 60.9982 29.9603 61 31.75Z" fill="#1966A0"/>
<path d="M53.125 28.375C53.125 28.6734 53.2435 28.9595 53.4545 29.1705C53.6655 29.3815 53.9516 29.5 54.25 29.5C54.8467 29.5 55.419 29.7371 55.841 30.159C56.2629 30.581 56.5 31.1533 56.5 31.75C56.5 32.0484 56.6185 32.3345 56.8295 32.5455C57.0405 32.7565 57.3266 32.875 57.625 32.875C57.9234 32.875 58.2095 32.7565 58.4205 32.5455C58.6315 32.3345 58.75 32.0484 58.75 31.75C58.75 30.5565 58.2759 29.4119 57.432 28.568C56.5881 27.7241 55.4435 27.25 54.25 27.25C53.9516 27.25 53.6655 27.3685 53.4545 27.5795C53.2435 27.7905 53.125 28.0766 53.125 28.375Z" fill="#1966A0"/>
</svg>
