<svg width="72" height="72" viewBox="0 0 72 72" fill="none" xmlns="http://www.w3.org/2000/svg">
<path d="M68.5457 47.6484L61.2004 40.3031V0H25.9035L10.8004 15.1031V40.3031L3.45509 47.6484C2.77775 48.3217 2.39748 49.2381 2.40041 50.1938V72H4.80041V50.1938C4.80041 49.8756 4.92697 49.5703 5.15197 49.3453L10.8004 43.6969V47.9109L6.55588 52.1555L8.25275 53.8523L14.6887 47.417L15.5383 48.2678C16.0065 48.7359 16.0065 49.4959 15.5383 49.9646L12.693 52.8094C12.0244 53.4785 11.6547 54.3897 11.6682 55.3354C11.6811 56.2811 12.076 57.1811 12.7627 57.8314L12.7973 57.8643C14.1408 59.151 14.2738 61.2527 13.1031 62.6988L11.0635 65.25L12.9379 66.75L14.9776 64.1977C15.4024 63.6586 15.7293 63.0492 15.9449 62.3977H19.2819C19.2186 62.4949 19.1752 62.6016 19.102 62.693L16.8004 65.5787V72H19.2004V66.4213L20.9752 64.2C21.4065 63.6621 21.7399 63.0527 21.9602 62.4H50.0406C50.2598 63.0498 50.5914 63.6568 51.0197 64.193L52.8004 66.4213V72H55.2004V65.5787L52.8953 62.693C52.8233 62.6027 52.7752 62.4961 52.7166 62.4H56.0547C56.2697 63.0516 56.5973 63.6609 57.0221 64.2L59.0617 66.7512L60.9362 65.2512L58.8965 62.7012C57.7317 61.2609 57.8576 59.1697 59.1865 57.8795L59.2369 57.8326C59.9237 57.1822 60.3186 56.2822 60.3315 55.3365C60.3449 54.3908 59.9752 53.4797 59.3067 52.8106L56.4613 49.9658C55.9932 49.4971 55.9932 48.7371 56.4613 48.2689L57.3127 47.4182L63.7481 53.8535L65.4449 52.1566L61.2004 47.9109V43.6969L66.8488 49.3453C67.0739 49.5703 67.2004 49.8756 67.2004 50.1938V72H69.6004V50.1938C69.6028 49.2387 69.2231 48.3223 68.5457 47.6484ZM25.2004 4.09688V14.4H14.8973L25.2004 4.09688ZM55.6158 45.7201L54.7639 46.5709C53.3582 47.9766 53.3582 50.2553 54.7639 51.6609L57.6086 54.5063C58.0369 54.9381 58.0369 55.6348 57.6086 56.0666L57.5752 56.0965C56.5 57.1242 55.8461 58.5158 55.7406 60H16.2602C16.1541 58.5135 15.4973 57.1195 14.4186 56.0918L14.3922 56.0689C13.9639 55.6371 13.9639 54.9404 14.3922 54.5086L17.2369 51.6639C18.6426 50.2576 18.6426 47.9789 17.2369 46.5732L16.385 45.7213C15.5207 44.8647 14.152 44.7914 13.2004 45.5496V16.8H27.6004V2.4H58.8004V45.5496C57.8489 44.7908 56.4807 44.8641 55.6158 45.7201Z" fill="#0B132A"/>
<path d="M32.4004 9.59998H34.8004V12H32.4004V9.59998Z" fill="#0B132A"/>
<path d="M37.1992 9.59998H53.9992V12H37.1992V9.59998Z" fill="#0B132A"/>
<path d="M32.4004 14.4H34.8004V16.8H32.4004V14.4Z" fill="#0B132A"/>
<path d="M37.1992 14.4H53.9992V16.8H37.1992V14.4Z" fill="#0B132A"/>
<path d="M34.8008 48H49.2008V50.4H34.8008V48Z" fill="#0B132A"/>
<path d="M34.8008 52.8H49.2008V55.2H34.8008V52.8Z" fill="#0B132A"/>
<path d="M18 33.5999H54V19.2H18V33.5999ZM20.4 21.6H51.6V31.1999H20.4V21.6Z" fill="#0B132A"/>
<path d="M18 38.4H20.4V40.8H18V38.4Z" fill="#0B132A"/>
<path d="M22.8008 38.4H54.0008V40.8H22.8008V38.4Z" fill="#0B132A"/>
<path d="M18 43.2H20.4V45.5999H18V43.2Z" fill="#0B132A"/>
<path d="M22.8008 43.2H54.0008V45.5999H22.8008V43.2Z" fill="#0B132A"/>
</svg>
