<svg width="33" height="33" viewBox="0 0 33 33" fill="none" xmlns="http://www.w3.org/2000/svg">
<g clip-path="url(#clip0_136_299)">
<path d="M16.7549 0.0522728C16.4978 -0.0540123 16.202 0.00515366 16.0055 0.202126L3.6305 12.5771C3.36669 12.8502 3.3743 13.2855 3.64738 13.5493C3.91383 13.8066 4.33619 13.8066 4.60258 13.5493L15.8047 2.34712L15.8047 32.3125C15.8048 32.6922 16.1126 33 16.4923 33C16.872 33 17.1798 32.6922 17.1798 32.3125V2.34712L28.3806 13.5479C28.6444 13.8209 29.0796 13.8285 29.3527 13.5647C29.6258 13.3009 29.6333 12.8657 29.3696 12.5926C29.3641 12.5869 29.3584 12.5813 29.3527 12.5757L16.9777 0.200706C16.9138 0.137157 16.8382 0.086689 16.7549 0.0522728Z" fill="#A30234"/>
<path d="M29.5553 13.0625C29.556 13.4422 29.2487 13.7506 28.869 13.7513C28.6859 13.7516 28.5103 13.6789 28.381 13.5493L16.4928 1.65962L4.60457 13.5493C4.33148 13.8131 3.89623 13.8055 3.63243 13.5324C3.37513 13.2659 3.37513 12.8436 3.63243 12.5772L16.0074 0.202203C16.2759 -0.0661802 16.7111 -0.0661802 16.9796 0.202203L29.3546 12.5772C29.4831 12.706 29.5553 12.8805 29.5553 13.0625Z" fill="#A30234"/>
<path d="M17.1797 0.687523L17.1797 32.3125C17.1797 32.6922 16.8719 33 16.4922 33C16.1125 33 15.8047 32.6922 15.8047 32.3125L15.8047 0.687454C15.8047 0.307762 16.1125 -6.10352e-05 16.4922 -6.10352e-05C16.8719 0 17.1797 0.307827 17.1797 0.687523Z" fill="#A30234"/>
</g>
<defs>
<clipPath id="clip0_136_299">
<rect width="33" height="33" fill="white" transform="matrix(0 -1 1 0 0 33)"/>
</clipPath>
</defs>
</svg>
