<svg width="14" height="12" viewBox="0 0 14 12" fill="none" xmlns="http://www.w3.org/2000/svg">
<path d="M12.834 5.16657H2.95065L5.97565 1.53324C6.1171 1.36306 6.18515 1.14366 6.16483 0.923301C6.14452 0.702946 6.0375 0.499686 5.86732 0.358238C5.69714 0.216789 5.47774 0.148737 5.25738 0.169054C5.03703 0.18937 4.83377 0.29639 4.69232 0.466571L0.525651 5.46657C0.497618 5.50634 0.47255 5.54812 0.450651 5.59157C0.450651 5.63324 0.450651 5.65824 0.392318 5.6999C0.354546 5.79545 0.334769 5.89716 0.333984 5.9999C0.334769 6.10265 0.354546 6.20436 0.392318 6.2999C0.392318 6.34157 0.392318 6.36657 0.450651 6.40824C0.47255 6.45169 0.497618 6.49347 0.525651 6.53324L4.69232 11.5332C4.77067 11.6273 4.86879 11.703 4.97969 11.7548C5.09059 11.8067 5.21156 11.8334 5.33398 11.8332C5.52869 11.8336 5.71739 11.7658 5.86732 11.6416C5.9517 11.5716 6.02145 11.4857 6.07258 11.3887C6.1237 11.2918 6.1552 11.1857 6.16526 11.0765C6.17533 10.9674 6.16376 10.8573 6.13122 10.7527C6.09869 10.648 6.04582 10.5508 5.97565 10.4666L2.95065 6.83324H12.834C13.055 6.83324 13.267 6.74544 13.4232 6.58916C13.5795 6.43288 13.6673 6.22092 13.6673 5.9999C13.6673 5.77889 13.5795 5.56693 13.4232 5.41065C13.267 5.25437 13.055 5.16657 12.834 5.16657Z" fill="#A30234"/>
</svg>
