<svg width="14" height="12" viewBox="0 0 14 12" fill="none" xmlns="http://www.w3.org/2000/svg">
<path d="M12.832 6.83221L2.9487 6.83221L5.9737 10.4655C6.11515 10.6357 6.1832 10.8551 6.16288 11.0755C6.14256 11.2958 6.03554 11.4991 5.86536 11.6405C5.69518 11.782 5.47578 11.85 5.25543 11.8297C5.03507 11.8094 4.83181 11.7024 4.69036 11.5322L0.523698 6.53221C0.495665 6.49244 0.470597 6.45066 0.448698 6.40721C0.448698 6.36554 0.448698 6.34054 0.390365 6.29887C0.352593 6.20333 0.332816 6.10162 0.332031 5.99887C0.332816 5.89613 0.352593 5.79442 0.390365 5.69888C0.390365 5.65721 0.390364 5.63221 0.448698 5.59054C0.470597 5.54709 0.495665 5.50531 0.523698 5.46554L4.69036 0.465542C4.76872 0.371473 4.86683 0.295822 4.97774 0.243971C5.08864 0.192121 5.20961 0.165342 5.33203 0.165541C5.52674 0.165161 5.71544 0.232973 5.86536 0.357208C5.94975 0.427165 6.0195 0.513083 6.07062 0.610039C6.12175 0.706995 6.15325 0.813084 6.16331 0.922231C6.17337 1.03138 6.16181 1.14144 6.12927 1.24611C6.09673 1.35078 6.04387 1.448 5.9737 1.53221L2.9487 5.16554L12.832 5.16554C13.053 5.16554 13.265 5.25334 13.4213 5.40962C13.5776 5.5659 13.6654 5.77786 13.6654 5.99887C13.6654 6.21989 13.5776 6.43185 13.4213 6.58813C13.265 6.74441 13.053 6.83221 12.832 6.83221Z" fill="white"/>
</svg>
