<svg width="33" height="33" viewBox="0 0 33 33" fill="none" xmlns="http://www.w3.org/2000/svg">
<g clip-path="url(#clip0_136_306)">
<path d="M16.2451 32.9477C16.5022 33.054 16.798 32.9948 16.9945 32.7979L29.3695 20.4229C29.6333 20.1498 29.6257 19.7145 29.3526 19.4507C29.0862 19.1934 28.6638 19.1934 28.3974 19.4507L17.1953 30.6529V0.687521C17.1952 0.307828 16.8874 0 16.5077 0C16.128 0 15.8202 0.307828 15.8202 0.687521L15.8202 30.6529L4.61944 19.4521C4.35563 19.1791 3.92044 19.1715 3.64729 19.4353C3.3742 19.6991 3.36666 20.1343 3.6304 20.4074C3.63595 20.4131 3.64155 20.4187 3.64729 20.4243L16.0223 32.7993C16.0862 32.8628 16.1618 32.9133 16.2451 32.9477Z" fill="#1966A0"/>
<path d="M3.44472 19.9375C3.44401 19.5578 3.75132 19.2494 4.13102 19.2487C4.31406 19.2484 4.4897 19.3211 4.61899 19.4507L16.5072 31.3404L28.3954 19.4507C28.6685 19.1869 29.1038 19.1945 29.3676 19.4676C29.6249 19.7341 29.6249 20.1564 29.3676 20.4228L16.9926 32.7978C16.7241 33.0662 16.2889 33.0662 16.0204 32.7978L3.64543 20.4228C3.51691 20.294 3.44472 20.1195 3.44472 19.9375Z" fill="#1966A0"/>
<path d="M15.8203 32.3125L15.8203 0.687521C15.8203 0.307828 16.1281 0 16.5078 0C16.8875 0 17.1953 0.307828 17.1953 0.687521L17.1953 32.3125C17.1953 32.6922 16.8875 33.0001 16.5078 33.0001C16.1281 33 15.8203 32.6922 15.8203 32.3125Z" fill="#1966A0"/>
</g>
<defs>
<clipPath id="clip0_136_306">
<rect width="33" height="33" fill="white" transform="matrix(0 1 -1 0 33 0)"/>
</clipPath>
</defs>
</svg>
