<svg width="72" height="72" viewBox="0 0 72 72" fill="none" xmlns="http://www.w3.org/2000/svg">
<g opacity="0.7" clip-path="url(#clip0_79_199)">
<path d="M71.9874 29.9581C71.9843 29.8321 71.9612 29.7073 71.919 29.5885C71.9082 29.5621 71.9022 29.5345 71.8902 29.5093C71.8782 29.4841 71.883 29.4793 71.8758 29.4649L63.6021 12.9186V6.85994C65.4474 6.23686 66.4383 4.23576 65.8152 2.39037C65.5835 1.70399 65.146 1.10551 64.562 0.676519C63.6728 0.0159383 62.5192 -0.174406 61.4649 0.165334L39.8535 7.00513C38.6468 5.87477 37.0564 5.24389 35.4029 5.23999C32.3056 5.25604 29.6331 7.41657 28.9687 10.4418L8.44926 16.93C6.59426 17.5284 5.57549 19.5172 6.17383 21.372C6.40122 22.077 6.84461 22.6924 7.44129 23.1315C7.73378 23.3461 8.05762 23.5146 8.40126 23.6307V29.7169L0.129903 46.2644C0.122703 46.2788 0.121503 46.2944 0.114303 46.3088C0.107103 46.3232 0.0975035 46.3616 0.0867038 46.388C0.0424551 46.5065 0.0174059 46.6313 0.012306 46.7576C0.012306 46.772 0.00390625 46.7852 0.00390625 46.8008V48.0007C0.00990607 52.6373 3.76715 56.3945 8.40366 56.4005H10.8036C15.4401 56.3945 19.1973 52.6373 19.2033 48.0007V46.8008C19.2033 46.7852 19.1949 46.7732 19.1949 46.7576C19.1898 46.6313 19.1648 46.5065 19.1205 46.388C19.1097 46.3616 19.1037 46.334 19.0917 46.3088C19.0798 46.2836 19.0845 46.2788 19.0773 46.2644L10.8036 29.7181V23.5611L31.2654 17.0896C31.618 17.376 31.9993 17.6253 32.403 17.8336V55.0325H27.6031C26.9404 55.0325 26.4031 55.5698 26.4031 56.2325V59.8804H22.8032C22.1406 59.8804 21.6033 60.4177 21.6033 61.0804V64.7378H18.0034C17.3407 64.7378 16.8034 65.2751 16.8034 65.9378V70.8001C16.8034 71.4628 17.3407 72 18.0034 72H54.0023C54.665 72 55.2023 71.4628 55.2023 70.8001V65.9426C55.2023 65.2799 54.665 64.7426 54.0023 64.7426H50.4024V61.0804C50.4024 60.4177 49.8652 59.8804 49.2025 59.8804H45.6026V56.2277C45.6026 55.565 45.0653 55.0277 44.4026 55.0277H39.6028V17.3704C39.5957 17.2683 39.5756 17.1675 39.5428 17.0704C40.497 16.2998 41.219 15.2796 41.6283 14.1233C41.6679 14.0129 41.6835 13.8965 41.7159 13.7849L61.2021 7.62312V12.9186L52.9224 29.4649C52.9152 29.4793 52.914 29.4949 52.9068 29.5093C52.8996 29.5237 52.89 29.5621 52.8792 29.5885C52.8349 29.707 52.8099 29.8318 52.8048 29.9581C52.8048 29.9725 52.7964 29.9857 52.7964 30.0013V31.2012C52.8024 35.8377 56.5596 39.595 61.1961 39.601H63.5961C68.2326 39.595 71.9898 35.8377 71.9958 31.2012V30.0013C71.9958 29.9857 71.9874 29.9737 71.9874 29.9581ZM10.8036 54.0006H8.40366C5.09176 53.9967 2.40774 51.3126 2.40384 48.0007H16.8034C16.7995 51.3128 14.1156 53.9967 10.8036 54.0006ZM16.0618 45.6008H3.14541L9.60363 32.6844L16.0618 45.6008ZM9.81602 21.3615C9.48903 21.4676 9.13114 21.408 8.85605 21.2019C8.35506 20.8305 8.25007 20.1233 8.62146 19.6223C8.759 19.4368 8.95024 19.2979 9.16924 19.2244L9.17404 19.2196L28.8979 12.9798C29.0146 13.7198 29.2559 14.4347 29.6118 15.0941L9.81602 21.3615ZM52.8024 67.1426V69.6001H19.2033V67.1426H52.8024ZM48.0025 62.2803V64.7426H24.0032V62.2803H48.0025ZM43.2026 57.4277V59.8804H28.8031V57.4277H43.2026ZM34.8029 55.0277V18.5704L37.2028 18.5656V55.0277H34.8029ZM39.3628 13.3302V13.3253C38.5825 15.5553 36.1422 16.7307 33.9121 15.9504C31.6819 15.1701 30.5067 12.7299 31.287 10.4997C32.0673 8.2696 34.5075 7.09438 36.7377 7.87466C38.4493 8.47344 39.5974 10.0863 39.6028 11.8998C39.6045 12.3868 39.5234 12.8706 39.3628 13.3302ZM41.9679 11.1906C41.8872 10.4454 41.6811 9.71916 41.3583 9.04268L62.1897 2.45247C62.5167 2.34807 62.874 2.40747 63.1497 2.61206C63.6511 2.98285 63.757 3.68993 63.3862 4.19137C63.2484 4.37781 63.0564 4.51731 62.8365 4.59081L41.9679 11.1906ZM62.4021 15.8849L68.8603 28.8013H55.9439L62.4021 15.8849ZM63.6021 37.2011H61.2021C57.8902 37.1972 55.2062 34.5131 55.2023 31.2012H69.6019C69.598 34.5133 66.9141 37.1972 63.6021 37.2011Z" fill="#0B132A"/>
</g>
<defs>
<clipPath id="clip0_79_199">
<rect width="72" height="72" fill="white"/>
</clipPath>
</defs>
</svg>
