<svg width="72" height="72" viewBox="0 0 72 72" fill="none" xmlns="http://www.w3.org/2000/svg">
<path d="M46.7496 17.8973C46.0937 17.2419 45.2219 16.8805 44.2947 16.8805C43.3674 16.8805 42.4957 17.2419 41.8403 17.8973C41.1844 18.5532 40.823 19.4249 40.823 20.3522C40.823 21.2794 41.1844 22.1512 41.8398 22.8065L47.7537 28.7205C48.4091 29.3758 49.2814 29.7372 50.2086 29.7372C51.1359 29.7372 52.0071 29.3758 52.663 28.7205L65.2983 16.0851C65.9542 15.4292 66.3151 14.5574 66.3151 13.6307C66.3151 12.7035 65.9542 11.8317 65.2983 11.1758C64.643 10.52 63.7707 10.1591 62.8434 10.1591C61.9162 10.1591 61.0444 10.52 60.3891 11.1758L58.996 12.5689C57.9639 11.7812 56.8312 11.1495 55.6309 10.6924V9.11316C55.6309 7.19879 54.0736 5.64148 52.1598 5.64148H41.2745V4.43628C41.2745 1.99017 39.2844 0 36.8383 0H24.6989C22.2528 0 20.2626 1.99017 20.2626 4.43628V9.44879C20.2626 10.8078 21.3684 11.9136 22.7274 11.9136H38.8098C40.1688 11.9136 41.2745 10.8078 41.2745 9.44879V7.75415H52.1592C52.9085 7.75415 53.5182 8.36389 53.5182 9.11316V10.086C52.6487 9.91022 51.7588 9.81683 50.8585 9.81683C43.4597 9.81683 37.4403 15.8362 37.4403 23.235C37.4403 30.6337 43.4597 36.6531 50.8585 36.6531C51.761 36.6531 52.6509 36.5625 53.5182 36.3884V68.5289C53.5182 69.2781 52.9085 69.8873 52.1592 69.8873H9.37738C8.62811 69.8873 8.01892 69.2781 8.01892 68.5289V9.11316C8.01892 8.36389 8.62811 7.75415 9.37738 7.75415H16.3993C16.9827 7.75415 17.4556 7.28119 17.4556 6.69781C17.4556 6.11444 16.9827 5.64148 16.3993 5.64148H9.37738C7.46356 5.64148 5.90625 7.19879 5.90625 9.11316V68.5289C5.90625 70.4427 7.46356 72 9.37738 72H52.1598C54.0736 72 55.6309 70.4427 55.6309 68.5289V35.7775C57.3129 35.1376 58.8642 34.1609 60.1913 32.876C62.7006 30.4464 64.1492 27.189 64.2689 23.7036C64.2887 23.1207 63.8328 22.6318 63.2494 22.6115C62.6704 22.5923 62.1777 23.0477 62.1573 23.631C61.9887 28.537 58.7626 32.5876 54.3323 34.001C54.2714 34.0153 54.212 34.034 54.156 34.0587C53.1134 34.3724 52.0065 34.5405 50.8585 34.5405C44.6248 34.5405 39.553 29.4686 39.553 23.235C39.553 17.0013 44.6248 11.9295 50.8585 11.9295C53.2529 11.9295 55.5672 12.6865 57.4871 14.0779L50.2086 21.3569L46.7496 17.8973ZM39.1619 9.44879C39.1619 9.64325 39.0042 9.8009 38.8098 9.8009H22.7274C22.533 9.8009 22.3753 9.64325 22.3753 9.44879V4.43628C22.3753 3.15472 23.4174 2.11267 24.6989 2.11267H36.8383C38.1193 2.11267 39.1619 3.15472 39.1619 4.43628V9.44879ZM61.8832 12.67C62.1398 12.4129 62.4809 12.2717 62.8434 12.2717C63.2065 12.2717 63.5477 12.4135 63.8047 12.67C64.3343 13.1995 64.3343 14.062 63.8047 14.5915L51.1688 27.2269C50.9123 27.4834 50.5712 27.6251 50.2081 27.6251C49.845 27.6251 49.5038 27.4834 49.2473 27.2269L43.3334 21.3129C43.0768 21.0564 42.9357 20.7153 42.9357 20.3522C42.9357 19.9891 43.0768 19.6479 43.3339 19.3914C43.5905 19.1349 43.9316 18.9932 44.2947 18.9932C44.6572 18.9932 44.9989 19.1349 45.2554 19.3914L49.4615 23.5975C49.8741 24.0101 50.5426 24.0101 50.9551 23.5975L61.8832 12.67Z" fill="#1966A0"/>
<path d="M34.6553 26.5144H21.7843C21.2009 26.5144 20.7285 26.9874 20.7285 27.5707C20.7285 28.1536 21.2009 28.6265 21.7843 28.6265H34.6553C35.2387 28.6265 35.7117 28.1536 35.7117 27.5707C35.7117 26.9874 35.2387 26.5144 34.6553 26.5144Z" fill="#1966A0"/>
<path d="M19.7675 15.611H12.6599C12.0765 15.611 11.6035 16.084 11.6035 16.6674C11.6035 17.2507 12.0765 17.7237 12.6599 17.7237H19.7675C20.3508 17.7237 20.8238 17.2507 20.8238 16.6674C20.8238 16.084 20.3508 15.611 19.7675 15.611Z" fill="#1966A0"/>
<path d="M21.7843 33.527H34.6553C35.2387 33.527 35.7117 33.054 35.7117 32.4706C35.7117 31.8878 35.2387 31.4149 34.6553 31.4149H21.7843C21.2009 31.4149 20.7285 31.8878 20.7285 32.4706C20.7285 33.054 21.2009 33.527 21.7843 33.527Z" fill="#1966A0"/>
<path d="M39.1015 39.3256H21.7843C21.2009 39.3256 20.7285 39.7985 20.7285 40.3819C20.7285 40.9653 21.2009 41.4382 21.7843 41.4382H39.1015C39.6849 41.4382 40.1578 40.9653 40.1578 40.3819C40.1578 39.7985 39.6849 39.3256 39.1015 39.3256Z" fill="#1966A0"/>
<path d="M21.7843 46.3387H30.4432C31.0266 46.3387 31.499 45.8657 31.499 45.2823C31.499 44.699 31.0266 44.226 30.4432 44.226H21.7843C21.2009 44.226 20.7285 44.699 20.7285 45.2823C20.7285 45.8657 21.2009 46.3387 21.7843 46.3387Z" fill="#1966A0"/>
<path d="M21.7843 54.2631H34.6553C35.2387 54.2631 35.7117 53.7902 35.7117 53.2068C35.7117 52.6234 35.2387 52.1505 34.6553 52.1505H21.7843C21.2009 52.1505 20.7285 52.6234 20.7285 53.2068C20.7285 53.7902 21.2009 54.2631 21.7843 54.2631Z" fill="#1966A0"/>
<path d="M21.7843 59.163H39.1015C39.6849 59.163 40.1578 58.6901 40.1578 58.1067C40.1578 57.5239 39.6849 57.0509 39.1015 57.0509H21.7843C21.2009 57.0509 20.7285 57.5239 20.7285 58.1067C20.7285 58.6901 21.2009 59.163 21.7843 59.163Z" fill="#1966A0"/>
<path d="M14.9033 25.5987C12.5505 25.5987 10.6367 27.5125 10.6367 29.8652C10.6367 32.218 12.5505 34.1318 14.9033 34.1318C17.256 34.1318 19.1698 32.218 19.1698 29.8652C19.1698 27.5125 17.256 25.5987 14.9033 25.5987ZM14.9033 32.0191C13.7156 32.0191 12.7494 31.0529 12.7494 29.8652C12.7494 28.6776 13.7156 27.7114 14.9033 27.7114C16.0909 27.7114 17.0571 28.6776 17.0571 29.8652C17.0571 31.0529 16.0909 32.0191 14.9033 32.0191Z" fill="#1966A0"/>
<path d="M14.9033 38.5653C12.5505 38.5653 10.6367 40.4797 10.6367 42.8318C10.6367 45.1846 12.5505 47.0984 14.9033 47.0984C17.256 47.0984 19.1698 45.1846 19.1698 42.8318C19.1698 40.4797 17.256 38.5653 14.9033 38.5653ZM14.9033 44.9863C13.7156 44.9863 12.7494 44.02 12.7494 42.8324C12.7494 41.6442 13.7156 40.678 14.9033 40.678C16.0909 40.678 17.0571 41.6442 17.0571 42.8324C17.0571 44.02 16.0909 44.9863 14.9033 44.9863Z" fill="#1966A0"/>
<path d="M14.9033 51.3902C12.5505 51.3902 10.6367 53.304 10.6367 55.6567C10.6367 58.0095 12.5505 59.9233 14.9033 59.9233C17.256 59.9233 19.1698 58.0095 19.1698 55.6567C19.1698 53.304 17.256 51.3902 14.9033 51.3902ZM14.9033 57.8106C13.7156 57.8106 12.7494 56.8444 12.7494 55.6567C12.7494 54.4691 13.7156 53.5029 14.9033 53.5029C16.0909 53.5029 17.0571 54.4691 17.0571 55.6567C17.0571 56.8444 16.0909 57.8106 14.9033 57.8106Z" fill="#1966A0"/>
</svg>
