<svg width="72" height="72" viewBox="0 0 72 72" fill="none" xmlns="http://www.w3.org/2000/svg">
<path d="M28.125 39.375H12.375C9.69096 39.3792 7.11805 40.4472 5.22014 42.3451C3.32224 44.243 2.25417 46.816 2.25 49.5V68.625C2.25 68.9234 2.36853 69.2095 2.5795 69.4205C2.79048 69.6315 3.07663 69.75 3.375 69.75H37.125C37.4234 69.75 37.7095 69.6315 37.9205 69.4205C38.1315 69.2095 38.25 68.9234 38.25 68.625V49.5C38.2458 46.816 37.1778 44.243 35.2799 42.3451C33.382 40.4472 30.809 39.3792 28.125 39.375ZM4.5 67.5V49.5C4.50309 47.9 4.99349 46.3388 5.90592 45.0244C6.81836 43.7101 8.10952 42.7048 9.6075 42.1425L15.4575 67.5H4.5ZM15.615 58.1625L11.8012 41.6587C11.9917 41.6363 12.1833 41.625 12.375 41.625H15.0525L16.8525 45.2137L15.615 58.1625ZM22.9275 41.625L21.8025 43.875H18.6975L17.5725 41.625H22.9275ZM22.7362 67.5H17.7638L17.2125 65.0925L19.0238 46.125H21.4762L23.2875 65.0925L22.7362 67.5ZM23.6475 45.2137L25.4475 41.625H28.125C28.3167 41.625 28.5083 41.6363 28.6987 41.6587L24.885 58.1625L23.6475 45.2137ZM36 67.5H25.0425L30.8925 42.1425C32.3905 42.7048 33.6816 43.7101 34.5941 45.0244C35.5065 46.3388 35.9969 47.9 36 49.5V67.5Z" fill="#1966A0"/>
<path d="M29.25 30.3749C29.25 28.5949 28.7222 26.8549 27.7332 25.3748C26.7443 23.8948 25.3387 22.7412 23.6942 22.06C22.0496 21.3788 20.24 21.2006 18.4942 21.5479C16.7484 21.8951 15.1447 22.7523 13.886 24.011C12.6274 25.2697 11.7702 26.8733 11.4229 28.6191C11.0757 30.365 11.2539 32.1746 11.9351 33.8191C12.6163 35.4636 13.7698 36.8692 15.2499 37.8582C16.7299 38.8471 18.47 39.3749 20.25 39.3749C22.6361 39.3723 24.9238 38.4232 26.611 36.7359C28.2983 35.0487 29.2473 32.7611 29.25 30.3749ZM20.25 37.1249C18.915 37.1249 17.6099 36.7291 16.4999 35.9874C15.3899 35.2457 14.5247 34.1915 14.0138 32.9581C13.5029 31.7247 13.3693 30.3675 13.6297 29.0581C13.8902 27.7487 14.533 26.546 15.477 25.602C16.421 24.658 17.6238 24.0151 18.9331 23.7546C20.2425 23.4942 21.5997 23.6279 22.8331 24.1388C24.0665 24.6496 25.1207 25.5148 25.8624 26.6248C26.6041 27.7349 27 29.0399 27 30.3749C26.9982 32.1646 26.2865 33.8805 25.021 35.1459C23.7555 36.4114 22.0397 37.1232 20.25 37.1249Z" fill="#1966A0"/>
<path d="M57.375 20.25H55.125C54.8266 20.25 54.5405 20.1315 54.3295 19.9205C54.1185 19.7095 54 19.4234 54 19.125C54 18.8266 53.8815 18.5405 53.6705 18.3295C53.4595 18.1185 53.1734 18 52.875 18C52.5766 18 52.2905 18.1185 52.0795 18.3295C51.8685 18.5405 51.75 18.8266 51.75 19.125C51.75 20.0201 52.1056 20.8786 52.7385 21.5115C53.3715 22.1444 54.2299 22.5 55.125 22.5V23.625C55.125 23.9234 55.2435 24.2095 55.4545 24.4205C55.6655 24.6315 55.9516 24.75 56.25 24.75C56.5484 24.75 56.8345 24.6315 57.0455 24.4205C57.2565 24.2095 57.375 23.9234 57.375 23.625V22.5C58.2701 22.5 59.1285 22.1444 59.7615 21.5115C60.3944 20.8786 60.75 20.0201 60.75 19.125C60.75 18.2299 60.3944 17.3715 59.7615 16.7385C59.1285 16.1056 58.2701 15.75 57.375 15.75H55.125C54.8266 15.75 54.5405 15.6315 54.3295 15.4205C54.1185 15.2095 54 14.9234 54 14.625C54 14.3266 54.1185 14.0405 54.3295 13.8295C54.5405 13.6185 54.8266 13.5 55.125 13.5H57.375C57.6734 13.5 57.9595 13.6185 58.1705 13.8295C58.3815 14.0405 58.5 14.3266 58.5 14.625C58.5 14.9234 58.6185 15.2095 58.8295 15.4205C59.0405 15.6315 59.3266 15.75 59.625 15.75C59.9234 15.75 60.2095 15.6315 60.4205 15.4205C60.6315 15.2095 60.75 14.9234 60.75 14.625C60.75 13.7299 60.3944 12.8714 59.7615 12.2385C59.1285 11.6056 58.2701 11.25 57.375 11.25V10.125C57.375 9.82663 57.2565 9.54048 57.0455 9.32951C56.8345 9.11853 56.5484 9 56.25 9C55.9516 9 55.6655 9.11853 55.4545 9.32951C55.2435 9.54048 55.125 9.82663 55.125 10.125V11.25C54.2299 11.25 53.3715 11.6056 52.7385 12.2385C52.1056 12.8714 51.75 13.7299 51.75 14.625C51.75 15.5201 52.1056 16.3786 52.7385 17.0115C53.3715 17.6444 54.2299 18 55.125 18H57.375C57.6734 18 57.9595 18.1185 58.1705 18.3295C58.3815 18.5405 58.5 18.8266 58.5 19.125C58.5 19.4234 58.3815 19.7095 58.1705 19.9205C57.9595 20.1315 57.6734 20.25 57.375 20.25Z" fill="#1966A0"/>
<path d="M56.25 28.1249C58.475 28.1249 60.6501 27.4651 62.5002 26.229C64.3502 24.9928 65.7921 23.2358 66.6436 21.1801C67.4951 19.1245 67.7179 16.8625 67.2838 14.6802C66.8497 12.4979 65.7783 10.4933 64.2049 8.91999C62.6316 7.34665 60.627 6.27519 58.4448 5.84111C56.2625 5.40703 54.0005 5.62981 51.9448 6.4813C49.8891 7.33279 48.1321 8.77473 46.896 10.6248C45.6598 12.4748 45 14.6499 45 16.8749C45.0033 19.8576 46.1896 22.7172 48.2987 24.8263C50.4077 26.9354 53.2673 28.1217 56.25 28.1249ZM56.25 7.87494C58.03 7.87494 59.7701 8.40278 61.2501 9.39172C62.7302 10.3807 63.8837 11.7863 64.5649 13.4308C65.2461 15.0753 65.4243 16.8849 65.0771 18.6308C64.7298 20.3766 63.8726 21.9802 62.6139 23.2389C61.3553 24.4976 59.7516 25.3547 58.0058 25.702C56.26 26.0493 54.4504 25.871 52.8058 25.1899C51.1613 24.5087 49.7557 23.3551 48.7668 21.8751C47.7778 20.395 47.25 18.655 47.25 16.8749C47.2527 14.4888 48.2017 12.2012 49.889 10.5139C51.5762 8.8267 53.8639 7.87762 56.25 7.87494Z" fill="#1966A0"/>
<path d="M56.25 31.4999C59.1425 31.4999 61.9701 30.6422 64.3752 29.0352C66.7803 27.4282 68.6548 25.1441 69.7617 22.4717C70.8687 19.7993 71.1583 16.8587 70.594 14.0217C70.0297 11.1848 68.6368 8.57885 66.5914 6.53351C64.5461 4.48817 61.9402 3.09527 59.1032 2.53096C56.2662 1.96665 53.3256 2.25628 50.6533 3.36321C47.9809 4.47014 45.6968 6.34466 44.0898 8.74973C42.4827 11.1548 41.625 13.9824 41.625 16.8749C41.6295 20.7524 43.1717 24.4697 45.9135 27.2114C48.6552 29.9532 52.3726 31.4955 56.25 31.4999ZM56.25 4.49995C58.6975 4.49995 61.0901 5.22573 63.1252 6.58551C65.1602 7.94529 66.7464 9.878 67.683 12.1392C68.6196 14.4005 68.8647 16.8887 68.3872 19.2892C67.9097 21.6897 66.7311 23.8947 65.0004 25.6254C63.2698 27.3561 61.0647 28.5347 58.6642 29.0122C56.2637 29.4897 53.7755 29.2446 51.5143 28.308C49.2531 27.3713 47.3203 25.7852 45.9606 23.7501C44.6008 21.7151 43.875 19.3225 43.875 16.8749C43.8789 13.5941 45.1839 10.4487 47.5038 8.12877C49.8237 5.80885 52.9691 4.50382 56.25 4.49995Z" fill="#1966A0"/>
<path d="M20.1466 19.0541C20.2853 19.1066 20.433 19.1311 20.5812 19.1262C20.7294 19.1214 20.8751 19.0873 21.0101 19.0259C21.1451 18.9646 21.2666 18.8771 21.3677 18.7686C21.4687 18.6601 21.5473 18.5327 21.599 18.3938C23.1357 14.3215 25.8735 10.8122 29.4497 8.33104C33.0258 5.84984 37.2714 4.51382 41.624 4.5C41.9224 4.5 42.2085 4.38147 42.4195 4.1705C42.6305 3.95952 42.749 3.67337 42.749 3.375C42.749 3.07663 42.6305 2.79048 42.4195 2.5795C42.2085 2.36853 41.9224 2.25 41.624 2.25C36.8126 2.2646 32.1193 3.74094 28.166 6.48335C24.2127 9.22576 21.1861 13.1048 19.4874 17.6062C19.3828 17.8857 19.3935 18.1952 19.5172 18.4667C19.6408 18.7382 19.8672 18.9495 20.1466 19.0541Z" fill="#1966A0"/>
<path d="M66.375 30.375C66.0766 30.375 65.7905 30.4935 65.5795 30.7045C65.3685 30.9155 65.25 31.2016 65.25 31.5C65.2437 37.1671 62.9897 42.6003 58.9825 46.6075C54.9753 50.6147 49.5421 52.8687 43.875 52.875C43.5766 52.875 43.2905 52.9935 43.0795 53.2045C42.8685 53.4155 42.75 53.7016 42.75 54C42.75 54.2984 42.8685 54.5845 43.0795 54.7955C43.2905 55.0065 43.5766 55.125 43.875 55.125C50.1386 55.1182 56.1438 52.6269 60.5728 48.1978C65.0019 43.7688 67.4932 37.7636 67.5 31.5C67.5 31.2016 67.3815 30.9155 67.1705 30.7045C66.9595 30.4935 66.6734 30.375 66.375 30.375Z" fill="#1966A0"/>
</svg>
