<svg width="66" height="68" viewBox="0 0 66 68" fill="none" xmlns="http://www.w3.org/2000/svg">
<path d="M64.5 52H57.75V45.25C57.75 44.9516 57.6315 44.6655 57.4205 44.4545C57.2095 44.2435 56.9234 44.125 56.625 44.125H34.125V38.5H45.375C45.6734 38.5 45.9595 38.3815 46.1705 38.1705C46.3815 37.9595 46.5 37.6734 46.5 37.375V21.625C46.4976 19.5372 45.6672 17.5355 44.1908 16.0592C42.7145 14.5828 40.7128 13.7524 38.625 13.75H27.375C25.2872 13.7524 23.2855 14.5828 21.8092 16.0592C20.3328 17.5355 19.5024 19.5372 19.5 21.625V37.375C19.5 37.6734 19.6185 37.9595 19.8295 38.1705C20.0405 38.3815 20.3266 38.5 20.625 38.5H31.875V44.125H9.375C9.07663 44.125 8.79048 44.2435 8.5795 44.4545C8.36853 44.6655 8.25 44.9516 8.25 45.25V52H1.5C1.20163 52 0.915483 52.1185 0.704505 52.3295C0.493526 52.5405 0.375 52.8266 0.375 53.125V66.625C0.375 66.9234 0.493526 67.2095 0.704505 67.4205C0.915483 67.6315 1.20163 67.75 1.5 67.75H19.5C19.7984 67.75 20.0845 67.6315 20.2955 67.4205C20.5065 67.2095 20.625 66.9234 20.625 66.625V53.125C20.625 52.8266 20.5065 52.5405 20.2955 52.3295C20.0845 52.1185 19.7984 52 19.5 52H10.5V46.375H31.875V52H24C23.7016 52 23.4155 52.1185 23.2045 52.3295C22.9935 52.5405 22.875 52.8266 22.875 53.125V66.625C22.875 66.9234 22.9935 67.2095 23.2045 67.4205C23.4155 67.6315 23.7016 67.75 24 67.75H42C42.2984 67.75 42.5845 67.6315 42.7955 67.4205C43.0065 67.2095 43.125 66.9234 43.125 66.625V53.125C43.125 52.8266 43.0065 52.5405 42.7955 52.3295C42.5845 52.1185 42.2984 52 42 52H34.125V46.375H55.5V52H46.5C46.2016 52 45.9155 52.1185 45.7045 52.3295C45.4935 52.5405 45.375 52.8266 45.375 53.125V66.625C45.375 66.9234 45.4935 67.2095 45.7045 67.4205C45.9155 67.6315 46.2016 67.75 46.5 67.75H64.5C64.7984 67.75 65.0845 67.6315 65.2955 67.4205C65.5065 67.2095 65.625 66.9234 65.625 66.625V53.125C65.625 52.8266 65.5065 52.5405 65.2955 52.3295C65.0845 52.1185 64.7984 52 64.5 52ZM18.375 54.25V65.5H2.625V54.25H18.375ZM44.25 21.625V36.25H35.6325L41.4712 16.7987C42.3135 17.2928 43.0126 17.9976 43.4998 18.8439C43.987 19.6901 44.2456 20.6486 44.25 21.625ZM37.0725 16H38.625C38.8725 16 39.1087 16.045 39.345 16.0675L36.3638 26.0012L35.295 19.555L37.0725 16ZM34.5525 16L33.4275 18.25H32.5725L31.4475 16H34.5525ZM21.75 36.25V21.625C21.7544 20.6486 22.013 19.6901 22.5002 18.8439C22.9874 17.9976 23.6865 17.2928 24.5287 16.7987L30.3675 36.25H21.75ZM29.6362 26.0012L26.655 16.0675C26.8913 16.045 27.1275 16 27.375 16H28.9275L30.705 19.555L29.6362 26.0012ZM40.875 54.25V65.5H25.125V54.25H40.875ZM33.2925 36.25H32.7075L31.0987 30.8837L32.8312 20.5H33.1688L34.9012 30.8837L33.2925 36.25ZM63.375 65.5H47.625V54.25H63.375V65.5Z" fill="#1966A0"/>
<path d="M39.75 7C39.75 5.66498 39.3541 4.35994 38.6124 3.2499C37.8707 2.13987 36.8165 1.27471 35.5831 0.763816C34.3497 0.252925 32.9925 0.119252 31.6831 0.379702C30.3738 0.640153 29.171 1.28303 28.227 2.22703C27.283 3.17104 26.6402 4.37377 26.3797 5.68314C26.1193 6.99252 26.2529 8.34972 26.7638 9.58312C27.2747 10.8165 28.1399 11.8707 29.2499 12.6124C30.3599 13.3541 31.665 13.75 33 13.75C34.7897 13.7482 36.5055 13.0365 37.771 11.771C39.0365 10.5055 39.7482 8.78967 39.75 7ZM33 11.5C32.11 11.5 31.24 11.2361 30.4999 10.7416C29.7599 10.2471 29.1831 9.54435 28.8425 8.72208C28.502 7.89981 28.4128 6.99501 28.5865 6.1221C28.7601 5.24918 29.1887 4.44736 29.818 3.81802C30.4474 3.18869 31.2492 2.7601 32.1221 2.58647C32.995 2.41284 33.8998 2.50195 34.7221 2.84255C35.5443 3.18314 36.2471 3.75992 36.7416 4.49994C37.2361 5.23996 37.5 6.10999 37.5 7C37.5 8.19348 37.0259 9.33807 36.182 10.182C35.3381 11.0259 34.1935 11.5 33 11.5Z" fill="#1966A0"/>
</svg>
