<svg width="72" height="72" viewBox="0 0 72 72" fill="none" xmlns="http://www.w3.org/2000/svg">
<path d="M52.8752 20.25H47.2502C46.9518 20.25 46.6656 20.3685 46.4547 20.5795C46.2437 20.7905 46.1252 21.0766 46.1252 21.375C46.1252 21.6734 46.2437 21.9595 46.4547 22.1705C46.6656 22.3815 46.9518 22.5 47.2502 22.5H50.1594L38.2502 34.4093L30.0455 26.2046C29.8346 25.9937 29.5485 25.8752 29.2502 25.8752C28.9518 25.8752 28.6657 25.9937 28.4548 26.2046L17.2048 37.4546C17.0973 37.5584 17.0116 37.6825 16.9527 37.8198C16.8937 37.9571 16.8627 38.1047 16.8614 38.254C16.8601 38.4034 16.8885 38.5516 16.9451 38.6898C17.0017 38.8281 17.0852 38.9537 17.1908 39.0593C17.2965 39.1649 17.4221 39.2485 17.5603 39.305C17.6986 39.3616 17.8467 39.3901 17.9961 39.3888C18.1455 39.3875 18.2931 39.3565 18.4304 39.2975C18.5676 39.2385 18.6918 39.1528 18.7955 39.0454L29.2502 28.5908L37.4548 36.7954C37.6657 37.0063 37.9518 37.1248 38.2502 37.1248C38.5485 37.1248 38.8346 37.0063 39.0455 36.7954L51.7502 24.0907V27C51.7502 27.2984 51.8687 27.5845 52.0797 27.7955C52.2906 28.0065 52.5768 28.125 52.8752 28.125C53.1735 28.125 53.4597 28.0065 53.6706 27.7955C53.8816 27.5845 54.0002 27.2984 54.0002 27V21.375C54.0002 21.0766 53.8816 20.7905 53.6706 20.5795C53.4597 20.3685 53.1735 20.25 52.8752 20.25Z" fill="#0B132A"/>
<path d="M66.375 9H5.625C4.73072 9.00267 3.87382 9.35911 3.24147 9.99146C2.60911 10.6238 2.25267 11.4807 2.25 12.375V52.875C2.25267 53.7693 2.60911 54.6262 3.24147 55.2585C3.87382 55.8909 4.73072 56.2473 5.625 56.25H28.125V60.75H23.625C22.7307 60.7527 21.8738 61.1091 21.2415 61.7415C20.6091 62.3738 20.2527 63.2307 20.25 64.125V68.625C20.25 68.9234 20.3685 69.2095 20.5795 69.4205C20.7905 69.6315 21.0766 69.75 21.375 69.75H50.625C50.9234 69.75 51.2095 69.6315 51.4205 69.4205C51.6315 69.2095 51.75 68.9234 51.75 68.625V64.125C51.7473 63.2307 51.3909 62.3738 50.7585 61.7415C50.1262 61.1091 49.2693 60.7527 48.375 60.75H43.875V56.25H66.375C67.2693 56.2473 68.1262 55.8909 68.7585 55.2585C69.3909 54.6262 69.7473 53.7693 69.75 52.875V12.375C69.7473 11.4807 69.3909 10.6238 68.7585 9.99146C68.1262 9.35911 67.2693 9.00267 66.375 9ZM48.375 63C48.6734 63 48.9595 63.1185 49.1705 63.3295C49.3815 63.5405 49.5 63.8266 49.5 64.125V67.5H22.5V64.125C22.5 63.8266 22.6185 63.5405 22.8295 63.3295C23.0405 63.1185 23.3266 63 23.625 63H48.375ZM30.375 60.75V56.25H41.625V60.75H30.375ZM67.5 52.875C67.5 53.1734 67.3815 53.4595 67.1705 53.6705C66.9595 53.8815 66.6734 54 66.375 54H5.625C5.32663 54 5.04048 53.8815 4.8295 53.6705C4.61853 53.4595 4.5 53.1734 4.5 52.875V49.5H67.5V52.875ZM67.5 47.25H4.5V12.375C4.5 12.0766 4.61853 11.7905 4.8295 11.5795C5.04048 11.3685 5.32663 11.25 5.625 11.25H66.375C66.6734 11.25 66.9595 11.3685 67.1705 11.5795C67.3815 11.7905 67.5 12.0766 67.5 12.375V47.25Z" fill="#0B132A"/>
<path d="M6.75 46.125H65.25C65.5484 46.125 65.8345 46.0065 66.0455 45.7955C66.2565 45.5845 66.375 45.2984 66.375 45V13.5C66.375 13.2016 66.2565 12.9155 66.0455 12.7045C65.8345 12.4935 65.5484 12.375 65.25 12.375H6.75C6.45163 12.375 6.16548 12.4935 5.95451 12.7045C5.74353 12.9155 5.625 13.2016 5.625 13.5V45C5.625 45.2984 5.74353 45.5845 5.95451 45.7955C6.16548 46.0065 6.45163 46.125 6.75 46.125ZM7.875 14.625H64.125V43.875H7.875V14.625Z" fill="#0B132A"/>
<path d="M61.875 50.625H59.625C59.3266 50.625 59.0405 50.7435 58.8295 50.9545C58.6185 51.1655 58.5 51.4516 58.5 51.75C58.5 52.0484 58.6185 52.3345 58.8295 52.5455C59.0405 52.7565 59.3266 52.875 59.625 52.875H61.875C62.1734 52.875 62.4595 52.7565 62.6705 52.5455C62.8815 52.3345 63 52.0484 63 51.75C63 51.4516 62.8815 51.1655 62.6705 50.9545C62.4595 50.7435 62.1734 50.625 61.875 50.625Z" fill="#0B132A"/>
</svg>
