<svg width="72" height="72" viewBox="0 0 72 72" fill="none" xmlns="http://www.w3.org/2000/svg">
<g clip-path="url(#clip0_79_187)">
<path d="M58.9243 48.0255H51.709V50.4306H58.9243V48.0255Z" fill="#0B132A"/>
<path d="M49.3051 48.0255H42.0898V50.4306H49.3051V48.0255Z" fill="#0B132A"/>
<path d="M39.684 48.0255H32.4688V50.4306H39.684V48.0255Z" fill="#0B132A"/>
<path d="M70.9345 24.9403L47.1398 1.14189C46.4641 0.459748 45.5434 0.076437 44.5831 0.0776395H44.5723C43.6184 0.0780905 42.7048 0.461552 42.0362 1.14189L16.7947 26.3797H3.60763C1.61517 26.3797 0 27.9949 0 29.9873V63.6586C0 65.6511 1.61517 67.2663 3.60763 67.2663H21.4245L25.0129 70.8583C25.6886 71.5404 26.6093 71.9237 27.5695 71.9225H27.5792C28.5334 71.9222 29.4476 71.5387 30.1165 70.8583L33.7121 67.2663H61.3298C63.3223 67.2663 64.9374 65.6511 64.9374 63.6586V36.041L70.9285 30.0499C71.6123 29.3805 71.9983 28.4645 72 27.5077C72.0036 26.5436 71.6197 25.6185 70.9345 24.9403ZM55.6369 13.0435L42.3007 26.3797H32.0887L50.5309 7.93748L55.6369 13.0435ZM43.739 2.83748C44.1964 2.36894 44.9471 2.35992 45.4158 2.81749C45.4225 2.8241 45.4293 2.83072 45.4358 2.83748L48.8305 6.23708L28.6867 26.3797H20.1955L43.739 2.83748ZM28.4137 69.1627C28.1938 69.3923 27.8899 69.5225 27.5719 69.5234C27.2497 69.5227 26.9412 69.3928 26.7157 69.1627L24.8265 67.2663H30.3113L28.4137 69.1627ZM62.5323 63.6586C62.5323 64.3227 61.9939 64.8612 61.3298 64.8612H3.60763C2.94353 64.8612 2.40509 64.3227 2.40509 63.6586V46.823H62.5323V63.6586ZM62.5323 44.4179H2.40509V37.2026H62.5323V44.4179ZM62.5323 34.7975H2.40509V29.9873C2.40509 29.3232 2.94353 28.7848 3.60763 28.7848H61.3298C61.9939 28.7848 62.5323 29.3232 62.5323 29.9873V34.7975ZM69.2341 28.3435L64.9374 32.6402V29.9873C64.9374 27.9949 63.3223 26.3797 61.3298 26.3797H45.6967L57.3325 14.7439L69.2293 26.6407C69.4603 26.867 69.5904 27.177 69.5901 27.5005C69.5898 27.818 69.4614 28.1219 69.2341 28.3435Z" fill="#0B132A"/>
<path d="M11.5329 62.4886C11.7085 62.3368 11.8729 62.1723 12.0247 61.9968C13.615 63.849 16.3473 64.2009 18.3549 62.8121C19.6507 61.9061 20.4284 60.4296 20.4426 58.8485C20.4426 56.1919 18.289 54.0383 15.6324 54.0383C15.3937 54.035 15.1553 54.0551 14.9205 54.0984L14.8892 54.1069C14.8772 54.1069 14.8652 54.1069 14.8543 54.1069C13.7527 54.2899 12.7508 54.8553 12.0247 55.7038C10.2871 53.6944 7.24929 53.4742 5.23999 55.212C3.23054 56.9497 3.01032 59.9875 4.74815 61.9968C6.48583 64.0062 9.52345 64.2264 11.5329 62.4886ZM15.3281 56.4687C15.4284 56.4496 15.5303 56.4412 15.6324 56.4434C16.9607 56.4434 18.0375 57.5201 18.0375 58.8485C18.0363 59.3573 17.8705 59.8522 17.5649 60.2591C17.5216 60.318 17.4879 60.3793 17.4386 60.4407C17.4302 60.4503 17.4182 60.4563 17.4085 60.4659C16.9543 60.9675 16.3091 61.2537 15.6324 61.2536C14.3043 61.2309 13.2459 60.136 13.2686 58.8079C13.2888 57.6287 14.1609 56.6379 15.3281 56.4687ZM8.41711 56.4434C9.74547 56.4434 10.8222 57.5201 10.8222 58.8485C10.8222 60.1769 9.74547 61.2536 8.41711 61.2536C7.08875 61.2536 6.01202 60.1769 6.01202 58.8485C6.01202 57.5201 7.08875 56.4434 8.41711 56.4434Z" fill="#0B132A"/>
</g>
<defs>
<clipPath id="clip0_79_187">
<rect width="72" height="72" fill="white"/>
</clipPath>
</defs>
</svg>
