<svg width="59" height="59" viewBox="0 0 59 59" fill="none" xmlns="http://www.w3.org/2000/svg">
<path d="M57.1406 24.7344H51.867C51.288 22.0008 50.2098 19.3975 48.6864 17.055L52.4112 13.3217C52.5896 13.143 52.6898 12.9008 52.6898 12.6483C52.6898 12.3958 52.5896 12.1536 52.4112 11.9749L47.0261 6.58973C46.8474 6.41134 46.6052 6.31115 46.3527 6.31115C46.1002 6.31115 45.858 6.41134 45.6793 6.58973L41.945 10.3136C39.6023 8.79056 36.9991 7.71236 34.2656 7.13302V1.85938C34.2656 1.60659 34.1652 1.36416 33.9865 1.18541C33.8077 1.00667 33.5653 0.90625 33.3125 0.90625H25.6875C25.4347 0.90625 25.1923 1.00667 25.0135 1.18541C24.8348 1.36416 24.7344 1.60659 24.7344 1.85938V7.13302C22.0009 7.71236 19.3977 8.79056 17.055 10.3136L13.3217 6.58878C13.143 6.41039 12.9008 6.3102 12.6483 6.3102C12.3958 6.3102 12.1536 6.41039 11.9749 6.58878L6.58973 11.9739C6.41134 12.1526 6.31115 12.3948 6.31115 12.6473C6.31115 12.8998 6.41134 13.142 6.58973 13.3207L10.3145 17.0541C8.79074 19.3967 7.71218 22.0004 7.13302 24.7344H1.85938C1.60659 24.7344 1.36416 24.8348 1.18541 25.0135C1.00667 25.1923 0.90625 25.4347 0.90625 25.6875V33.3125C0.90625 33.5653 1.00667 33.8077 1.18541 33.9865C1.36416 34.1652 1.60659 34.2656 1.85938 34.2656H7.13302C7.712 36.9992 8.79023 39.6025 10.3136 41.945L6.58878 45.6783C6.41039 45.857 6.3102 46.0992 6.3102 46.3517C6.3102 46.6042 6.41039 46.8464 6.58878 47.0251L11.9739 52.4103C12.1526 52.5887 12.3948 52.6889 12.6473 52.6889C12.8998 52.6889 13.142 52.5887 13.3207 52.4103L17.0541 48.6855C19.3969 50.2089 22.0005 51.2875 24.7344 51.867V57.1406C24.7344 57.3934 24.8348 57.6358 25.0135 57.8146C25.1923 57.9933 25.4347 58.0938 25.6875 58.0938H33.3125C33.5653 58.0938 33.8077 57.9933 33.9865 57.8146C34.1652 57.6358 34.2656 57.3934 34.2656 57.1406V51.867C36.9991 51.2876 39.6023 50.2094 41.945 48.6864L45.6783 52.4112C45.857 52.5896 46.0992 52.6898 46.3517 52.6898C46.6042 52.6898 46.8464 52.5896 47.0251 52.4112L52.4103 47.0261C52.5887 46.8474 52.6889 46.6052 52.6889 46.3527C52.6889 46.1002 52.5887 45.858 52.4103 45.6793L48.6864 41.945C50.2098 39.6025 51.288 36.9992 51.867 34.2656H57.1406C57.3934 34.2656 57.6358 34.1652 57.8146 33.9865C57.9933 33.8077 58.0938 33.5653 58.0938 33.3125V25.6875C58.0938 25.4347 57.9933 25.1923 57.8146 25.0135C57.6358 24.8348 57.3934 24.7344 57.1406 24.7344ZM56.1875 32.3594H51.0788C50.8538 32.3593 50.6361 32.4387 50.4641 32.5837C50.2922 32.7286 50.177 32.9297 50.139 33.1514C49.6136 36.1597 48.4313 39.0151 46.6763 41.5141C46.5473 41.6977 46.4872 41.9209 46.5065 42.1444C46.5259 42.3679 46.6234 42.5774 46.7821 42.736L50.3896 46.3503L46.3503 50.3896L42.7351 46.7821C42.5764 46.6234 42.3669 46.5259 42.1434 46.5065C41.9199 46.4872 41.6967 46.5473 41.5132 46.6763C39.0144 48.432 36.1589 49.6147 33.1505 50.1399C32.9291 50.1781 32.7284 50.2932 32.5836 50.465C32.4389 50.6368 32.3595 50.8541 32.3594 51.0788V56.1875H26.6406V51.0788C26.6405 50.8541 26.5611 50.6368 26.4164 50.465C26.2716 50.2932 26.0709 50.1781 25.8495 50.1399C22.8424 49.6141 19.9883 48.4315 17.4906 46.6763C17.3071 46.5473 17.0839 46.4872 16.8604 46.5065C16.6369 46.5259 16.4274 46.6234 16.2687 46.7821L12.6535 50.3896L8.61417 46.3503L12.2217 42.736C12.3804 42.5774 12.4779 42.3679 12.4973 42.1444C12.5166 41.9209 12.4565 41.6977 12.3275 41.5141C10.5725 39.0151 9.39019 36.1597 8.86484 33.1514C8.82672 32.9291 8.71099 32.7275 8.53821 32.5825C8.36543 32.4374 8.14682 32.3584 7.92125 32.3594H2.8125V26.6406H7.92125C8.14617 26.6407 8.36387 26.5613 8.53585 26.4163C8.70784 26.2714 8.82302 26.0703 8.86103 25.8486C9.38705 22.842 10.5693 19.9883 12.3237 17.4906C12.4527 17.3071 12.5128 17.0839 12.4935 16.8604C12.4741 16.6369 12.3766 16.4274 12.2179 16.2687L8.61036 12.6545L12.6497 8.61513L16.2649 12.2227C16.4236 12.3813 16.6331 12.4789 16.8566 12.4982C17.0801 12.5176 17.3033 12.4575 17.4868 12.3285C19.9856 10.5728 22.8411 9.39011 25.8495 8.86484C26.0717 8.82652 26.2731 8.7107 26.4179 8.53794C26.5627 8.36519 26.6417 8.14668 26.6406 7.92125V2.8125H32.3594V7.92125C32.3595 8.14587 32.4389 8.36323 32.5836 8.535C32.7284 8.70676 32.9291 8.82189 33.1505 8.86008C36.1576 9.38589 39.0117 10.5685 41.5094 12.3237C41.6929 12.4527 41.9161 12.5128 42.1396 12.4935C42.3631 12.4741 42.5726 12.3766 42.7313 12.2179L46.3465 8.61036L50.3858 12.6497L46.7782 16.264C46.6196 16.4226 46.5221 16.6321 46.5027 16.8556C46.4834 17.0791 46.5435 17.3023 46.6725 17.4859C48.4275 19.9849 49.6098 22.8403 50.1352 25.8486C50.1733 26.0709 50.289 26.2725 50.4618 26.4175C50.6346 26.5626 50.8532 26.6416 51.0788 26.6406H56.1875V32.3594Z" fill="white"/>
<path d="M29.5 12.3438C26.1068 12.3438 22.7898 13.3499 19.9685 15.2351C17.1472 17.1203 14.9482 19.7997 13.6497 22.9346C12.3512 26.0695 12.0114 29.519 12.6734 32.847C13.3354 36.175 14.9694 39.232 17.3687 41.6313C19.7681 44.0306 22.825 45.6646 26.153 46.3266C29.481 46.9886 32.9305 46.6488 36.0654 45.3503C39.2003 44.0518 41.8798 41.8528 43.7649 39.0315C45.6501 36.2102 46.6563 32.8932 46.6563 29.5C46.651 24.9515 44.8417 20.5908 41.6255 17.3746C38.4092 14.1583 34.0485 12.349 29.5 12.3438ZM29.5 44.75C26.4838 44.75 23.5354 43.8556 21.0276 42.1799C18.5197 40.5042 16.5651 38.1225 15.4108 35.3359C14.2566 32.5494 13.9546 29.4831 14.543 26.5249C15.1315 23.5667 16.5839 20.8494 18.7166 18.7166C20.8494 16.5839 23.5667 15.1314 26.5249 14.543C29.4831 13.9546 32.5494 14.2566 35.3359 15.4108C38.1225 16.5651 40.5042 18.5197 42.1799 21.0276C43.8556 23.5354 44.75 26.4838 44.75 29.5C44.7452 33.5431 43.137 37.4192 40.2781 40.2781C37.4192 43.137 33.5431 44.7452 29.5 44.75Z" fill="white"/>
<path d="M29.5 17.1094C27.0494 17.1094 24.6538 17.8361 22.6161 19.1976C20.5785 20.5591 18.9904 22.4942 18.0526 24.7583C17.1147 27.0224 16.8694 29.5137 17.3475 31.9173C17.8256 34.3208 19.0056 36.5286 20.7385 38.2615C22.4714 39.9943 24.6792 41.1744 27.0827 41.6525C29.4863 42.1306 31.9776 41.8852 34.2417 40.9474C36.5058 40.0096 38.4409 38.4215 39.8024 36.3839C41.1639 34.3462 41.8906 31.9506 41.8906 29.5C41.8868 26.215 40.5802 23.0656 38.2573 20.7427C35.9344 18.4198 32.785 17.1132 29.5 17.1094ZM30.4531 19.0642C32.568 19.2547 34.5744 20.086 36.2043 21.447L30.4531 27.1992V19.0642ZM19.0156 29.5C19.0191 26.8859 19.9981 24.3672 21.761 22.437C23.5239 20.5068 25.9438 19.304 28.5469 19.0642V29.5C28.5469 29.7528 28.6474 29.9951 28.8261 30.1739L36.2043 37.552C34.6744 38.8285 32.8122 39.6422 30.8362 39.8978C28.8602 40.1534 26.8523 39.8402 25.048 38.9949C23.2437 38.1497 21.7179 36.8075 20.6494 35.1258C19.5809 33.444 19.0142 31.4925 19.0156 29.5ZM37.552 36.2043L30.8477 29.5L37.552 22.7957C39.1234 24.6764 39.9843 27.0492 39.9843 29.5C39.9843 31.9507 39.1234 34.3236 37.552 36.2043Z" fill="white"/>
</svg>
