<svg width="61" height="61" viewBox="0 0 61 61" fill="none" xmlns="http://www.w3.org/2000/svg">
<g clip-path="url(#clip0_56_478)">
<path d="M30.4647 0.00280762C29.3713 0.00280762 28.2787 0.0615878 27.1915 0.178767C26.195 0.280551 25.2108 0.447476 24.2398 0.650026C24.0518 0.68934 23.8638 0.730817 23.6759 0.774203C17.9547 2.07678 12.7307 5.00193 8.63018 9.19886C8.24887 9.58971 7.87558 9.99214 7.51055 10.406C-3.56608 23.1224 -2.23678 42.4104 10.4797 53.4871C22.6541 64.0916 40.9797 63.386 52.3026 51.8769C52.6847 51.486 53.0578 51.0836 53.4222 50.6697C58.3105 45.1029 61.0044 37.9463 61 30.5379C61 13.6737 47.3289 0.00268039 30.4647 0.00280762ZM9.98696 10.7256C10.1478 10.5587 10.3147 10.3989 10.4786 10.2371C10.6679 10.0508 10.8562 9.86351 11.0496 9.68335C11.2196 9.52457 11.3946 9.37189 11.5687 9.21718C11.7651 9.04313 11.9605 8.86908 12.1621 8.70113C12.3392 8.55151 12.5214 8.408 12.7026 8.26346C12.9061 8.10061 13.1097 7.93776 13.3194 7.78101C13.5046 7.64156 13.6929 7.50619 13.8822 7.37387C14.0929 7.22323 14.3046 7.06852 14.5194 6.92806C14.7118 6.79778 14.9062 6.67156 15.1016 6.54637C15.3194 6.40693 15.5383 6.26952 15.7591 6.13923C15.958 6.02053 16.1581 5.90373 16.3596 5.7891C16.585 5.66085 16.8112 5.53566 17.0385 5.41351C17.2421 5.30499 17.4457 5.19875 17.6493 5.09493C17.8813 4.97788 18.1154 4.8649 18.3505 4.75395C18.5541 4.65726 18.7658 4.56056 18.9755 4.46896C19.2147 4.36718 19.4569 4.26539 19.6992 4.16361C19.9099 4.07709 20.1195 3.99261 20.3323 3.91118C20.5786 3.81754 20.828 3.73001 21.0773 3.64247C21.2901 3.56817 21.5028 3.49387 21.7186 3.42364C21.972 3.34221 22.2275 3.26689 22.484 3.19259C22.6988 3.1305 22.9115 3.06638 23.1273 3.00836C23.2097 2.98699 23.2922 2.96968 23.3746 2.94831C20.3618 5.8737 18.126 9.50434 16.8696 13.5114C14.4537 12.8743 12.115 11.9743 9.89535 10.8274C9.92894 10.7918 9.95744 10.7562 9.98696 10.7256ZM8.5233 12.3643C10.9683 13.6891 13.561 14.7209 16.2477 15.4382C14.9306 20.018 14.2392 24.7549 14.1927 29.52H1.98878C2.21054 23.2363 4.50844 17.2033 8.5233 12.3643ZM8.5233 48.7114C4.50869 43.8723 2.21079 37.8393 1.98878 31.5557H14.1927C14.2392 36.3208 14.9305 41.0577 16.2477 45.6375C13.5611 46.3551 10.9684 47.3868 8.5233 48.7114ZM23.1212 58.0714C22.9156 58.0195 22.7028 57.9523 22.4911 57.8903C22.2336 57.8149 21.9751 57.7396 21.7206 57.6572C21.5058 57.588 21.2941 57.5137 21.0824 57.4394C20.832 57.3528 20.5816 57.2643 20.3343 57.1696C20.1226 57.0892 19.9139 57.0047 19.7043 56.9192C19.461 56.8175 19.2177 56.7157 18.9765 56.6139C18.7689 56.5223 18.5623 56.428 18.3566 56.3309C18.1195 56.219 17.8834 56.105 17.6442 55.9869C17.4406 55.8851 17.237 55.7833 17.0335 55.6724C16.8034 55.5492 16.5754 55.423 16.3474 55.2927C16.1439 55.1797 15.9505 55.0637 15.754 54.9456C15.5301 54.8113 15.3103 54.6729 15.0904 54.5314C14.897 54.4082 14.7036 54.283 14.5133 54.1548C14.2965 54.0082 14.0817 53.8555 13.869 53.7029C13.6827 53.5695 13.4965 53.4362 13.3133 53.2957C13.1026 53.1369 12.8959 52.9731 12.6903 52.8082C12.5102 52.6647 12.331 52.5222 12.155 52.3746C11.9514 52.2056 11.7549 52.0295 11.5575 51.8545C11.3844 51.7008 11.2104 51.5491 11.0414 51.3924C10.847 51.2112 10.6587 51.0229 10.4694 50.8366C10.3055 50.6748 10.1386 50.515 9.9778 50.3491C9.94828 50.3175 9.91978 50.285 9.89026 50.2544C12.1098 49.1071 14.4485 48.2067 16.8645 47.5694C18.1211 51.5763 20.3568 55.2068 23.3695 58.1325C23.2871 58.1111 23.2036 58.0938 23.1212 58.0714ZM29.447 58.957C25.0917 58.3381 21.2738 53.7924 18.8717 47.0798C22.3445 46.3022 25.8885 45.885 29.447 45.835V58.957ZM29.447 43.7993C25.6721 43.8489 21.9131 44.2973 18.2325 45.1367C16.9544 40.721 16.2803 36.1524 16.2283 31.5557H29.447V43.7993ZM29.447 29.52H16.2283C16.2801 24.9233 16.9543 20.3548 18.2325 15.939C21.9131 16.7783 25.6722 17.2267 29.447 17.2764V29.52ZM29.447 15.2408C25.8884 15.1911 22.3445 14.7739 18.8717 13.9959C21.2738 7.28328 25.0917 2.73761 29.447 2.11877V15.2408ZM52.4064 12.3643C56.421 17.2034 58.7189 23.2364 58.941 29.52H46.7371C46.6905 24.7549 45.9993 20.018 44.682 15.4382C47.3686 14.7205 49.9613 13.6888 52.4064 12.3643ZM37.8004 3.00327C38.0142 3.0562 38.2269 3.12338 38.4386 3.18546C38.6961 3.26078 38.9547 3.3361 39.2091 3.41855C39.4239 3.48776 39.6356 3.56206 39.8473 3.63637C40.0977 3.72288 40.3481 3.81144 40.5954 3.90609C40.8071 3.9865 41.0158 4.07098 41.2255 4.15648C41.4687 4.25827 41.712 4.36005 41.9532 4.46183C42.1609 4.55344 42.3675 4.64772 42.5731 4.74479C42.8102 4.85676 43.0464 4.97075 43.2856 5.08882C43.4891 5.19061 43.6927 5.29239 43.8963 5.40334C44.1263 5.52649 44.3543 5.65271 44.5823 5.78299C44.7859 5.89597 44.9793 6.012 45.1757 6.13007C45.3996 6.26443 45.6195 6.40285 45.8393 6.54433C46.0327 6.66749 46.2261 6.79269 46.4164 6.92093C46.6332 7.0675 46.847 7.21916 47.0597 7.37184C47.247 7.50517 47.4333 7.63953 47.6175 7.77897C47.8272 7.93674 48.0328 8.10061 48.2394 8.2655C48.4185 8.408 48.5987 8.5505 48.7748 8.6991C48.9783 8.86806 49.1748 9.04415 49.3722 9.21921C49.5453 9.37291 49.7193 9.52457 49.8883 9.68131C50.0827 9.86249 50.271 10.0508 50.4603 10.2371C50.6242 10.3989 50.7911 10.5587 50.9519 10.7246C50.9815 10.7562 51.01 10.7887 51.0395 10.8193C48.8199 11.9666 46.4812 12.867 44.0652 13.5043C42.8062 9.49683 40.5676 5.86658 37.5521 2.9422C37.6345 2.96358 37.718 2.98088 37.8004 3.00327ZM31.4827 2.11877C35.838 2.73761 39.656 7.28328 42.0581 13.9959C38.5852 14.7736 35.0412 15.1908 31.4827 15.2408V2.11877ZM31.4827 17.2764C35.2576 17.2268 39.0166 16.7785 42.6973 15.939C43.9753 20.3548 44.6495 24.9233 44.7014 29.52H31.4827V17.2764ZM31.4827 31.5557H44.7014C44.6496 36.1524 43.9754 40.721 42.6973 45.1367C39.0166 44.2974 35.2576 43.849 31.4827 43.7993V31.5557ZM31.4827 58.957V45.835C35.0413 45.8846 38.5852 46.3018 42.0581 47.0798C39.656 53.7924 35.838 58.3381 31.4827 58.957ZM50.9428 50.3501C50.782 50.516 50.6161 50.6758 50.4522 50.8376C50.2629 51.0239 50.0735 51.2122 49.8791 51.3934C49.7102 51.5512 49.5361 51.6987 49.3631 51.8565C49.1656 52.0316 48.9692 52.2066 48.7677 52.3756C48.5895 52.5242 48.4084 52.6677 48.2272 52.8123C48.0236 52.9751 47.82 53.138 47.6104 53.2947C47.4251 53.4342 47.2368 53.5695 47.0475 53.7018C46.8368 53.8525 46.6251 54.0072 46.4103 54.1477C46.218 54.2779 46.0236 54.4042 45.8281 54.5283C45.6103 54.6688 45.3908 54.8046 45.1696 54.9355C44.966 55.0546 44.7716 55.1706 44.5711 55.2856C44.3458 55.4139 44.1192 55.539 43.8912 55.6612C43.6876 55.7697 43.4841 55.876 43.2805 55.9798C43.0484 56.0968 42.8143 56.2098 42.5792 56.3207C42.3756 56.4174 42.1639 56.5141 41.9542 56.6057C41.715 56.7075 41.4728 56.8093 41.2306 56.9111C41.0199 56.9966 40.8102 57.0821 40.5985 57.1625C40.3501 57.2572 40.1008 57.3457 39.8504 57.4322C39.6387 57.5065 39.4269 57.5808 39.2122 57.65C38.9577 57.7325 38.7033 57.8078 38.4437 57.8821C38.231 57.9452 38.0172 58.0083 37.8025 58.0663C37.72 58.0877 37.6376 58.105 37.5551 58.1264C40.5679 55.201 42.8038 51.5704 44.0602 47.5633C46.476 48.2004 48.8147 49.1005 51.0344 50.2473C51.0008 50.2839 50.9723 50.3196 50.9428 50.3501ZM52.4064 48.7114C49.9615 47.3867 47.3688 46.3548 44.682 45.6375C45.9991 41.0577 46.6905 36.3208 46.7371 31.5557H58.941C58.7193 37.8393 56.4213 43.8724 52.4064 48.7114Z" fill="white"/>
</g>
<defs>
<clipPath id="clip0_56_478">
<rect width="61" height="61" fill="white"/>
</clipPath>
</defs>
</svg>
