<svg width="72" height="72" viewBox="0 0 72 72" fill="none" xmlns="http://www.w3.org/2000/svg">
<path d="M16.0772 19.8476C12.4047 19.8476 9.42773 16.8702 9.42773 13.1981C9.42773 9.52551 12.4047 6.54901 16.0772 6.54901C19.7493 6.54901 22.7263 9.52551 22.7263 13.1981C22.7228 16.8685 19.7476 19.8437 16.0772 19.8476ZM16.0772 8.76536C13.6287 8.76536 11.6441 10.7496 11.6441 13.1981C11.6441 15.6461 13.6287 17.6312 16.0772 17.6312C18.5253 17.6312 20.5099 15.6461 20.5099 13.1981C20.5099 10.7496 18.5253 8.76536 16.0772 8.76536Z" fill="#1966A0"/>
<path d="M42.6754 50.8778V57.5273H30.4852V42.3212L23.8357 40.1044V28.7134H33.8095C36.8683 28.7095 39.3472 26.2307 39.3511 23.1723V20.956H8.32039C5.26159 20.959 2.7832 23.4378 2.7793 26.497V38.6872C2.7793 40.5233 4.26798 42.0119 6.10404 42.0119H8.32039V61.96H2.7793V69.7178H4.99608V64.1763H20.511V69.7178H22.7273V59.7436H42.6754V69.7178H44.8922V53.0941H67.0565V69.7178H69.2729V50.8778H42.6754ZM8.32039 27.605V39.7956H6.10404C5.49202 39.7956 4.99608 39.2992 4.99608 38.6872V26.497C4.99608 24.6601 6.48433 23.1723 8.32039 23.1723H37.1343C37.1343 25.0084 35.6456 26.497 33.8095 26.497H21.6194V41.7027L28.2684 43.919V57.5273H24.9441V45.6767L13.8615 41.5208V61.96H10.5372V27.605H8.32039ZM20.511 57.5273V61.96H16.0783V44.7195L22.7273 47.2126V57.5273H20.511Z" fill="#1966A0"/>
<path d="M51.5415 47.5531H60.4073V19.8476H66.8242L55.9746 2.21769L45.125 19.8476H51.5415V47.5531ZM49.0925 17.6312L55.9746 6.44639L62.8567 17.6312H58.1909V45.3367H53.7582V17.6312H49.0925Z" fill="#1966A0"/>
</svg>
