<svg width="61" height="61" viewBox="0 0 61 61" fill="none" xmlns="http://www.w3.org/2000/svg">
<g clip-path="url(#clip0_56_434)">
<path d="M30.4995 0C26.569 0 23.3828 3.18623 23.3828 7.11667C23.3873 11.0452 26.571 14.2289 30.4995 14.2333C34.4299 14.2333 37.6161 11.0471 37.6161 7.11667C37.6161 3.18623 34.4299 0 30.4995 0ZM30.4995 12.2C27.6921 12.2 25.4161 9.92406 25.4161 7.11667C25.4195 4.31067 27.6935 2.03664 30.4995 2.03333C33.3069 2.03333 35.5828 4.30927 35.5828 7.11667C35.5828 9.92406 33.3069 12.2 30.4995 12.2Z" fill="white"/>
<path d="M33.5508 15.25H27.4508C22.3997 15.2556 18.3064 19.3489 18.3008 24.4V41.6833H22.3674V61H24.4008V37.6167H22.3674V39.65H20.3341V24.4C20.3386 20.4715 23.5223 17.2878 27.4508 17.2833H33.5508C37.4793 17.2878 40.663 20.4715 40.6674 24.4V39.65H38.6341V37.6167H36.6008V61H38.6341V41.6833H42.7008V24.4C42.6952 19.3489 38.6018 15.2556 33.5508 15.25Z" fill="white"/>
<path d="M31.5158 41.6833H29.4824V61H31.5158V41.6833Z" fill="white"/>
<path d="M50.8324 10.1666C47.4634 10.1666 44.7324 12.8976 44.7324 16.2666C44.7357 19.6342 47.4648 22.3633 50.8324 22.3666C54.2014 22.3666 56.9324 19.6356 56.9324 16.2666C56.9324 12.8976 54.2014 10.1666 50.8324 10.1666ZM50.8324 20.3333C48.5865 20.3333 46.7658 18.5126 46.7658 16.2666C46.7658 14.0207 48.5865 12.2 50.8324 12.2C53.0784 12.2 54.8991 14.0207 54.8991 16.2666C54.8991 18.5126 53.0784 20.3333 50.8324 20.3333Z" fill="white"/>
<path d="M53.8824 23.3833H44.7324V25.4166H53.8824C56.6884 25.4199 58.9625 27.694 58.9658 30.5V43.7166H56.9324V41.6833H54.8991V61H56.9324V45.75H60.9991V30.5C60.9946 26.5714 57.8109 23.3877 53.8824 23.3833Z" fill="white"/>
<path d="M44.7327 41.6833V43.7167H40.666V45.75H44.7327V61H46.766V41.6833H44.7327Z" fill="white"/>
<path d="M51.8497 45.75H49.8164V61H51.8497V45.75Z" fill="white"/>
<path d="M10.1664 10.1666C6.79743 10.1666 4.06641 12.8976 4.06641 16.2666C4.06971 19.6342 6.79883 22.3633 10.1664 22.3666C13.5354 22.3666 16.2664 19.6356 16.2664 16.2666C16.2664 12.8976 13.5354 10.1666 10.1664 10.1666ZM10.1664 20.3333C7.92046 20.3333 6.09974 18.5126 6.09974 16.2666C6.09974 14.0207 7.92046 12.2 10.1664 12.2C12.4124 12.2 14.2331 14.0207 14.2331 16.2666C14.2331 18.5126 12.4124 20.3333 10.1664 20.3333Z" fill="white"/>
<path d="M7.11667 23.3833C3.18814 23.3877 0.00444792 26.5714 0 30.5V45.75H4.06667V61H6.1V41.6833H4.06667V43.7166H2.03333V30.5C2.03664 27.694 4.31067 25.4199 7.11667 25.4166H16.2667V23.3833H7.11667Z" fill="white"/>
<path d="M16.2658 43.7167V41.6833H14.2324V61H16.2658V45.75H20.3324V43.7167H16.2658Z" fill="white"/>
<path d="M11.1837 45.75H9.15039V61H11.1837V45.75Z" fill="white"/>
</g>
<defs>
<clipPath id="clip0_56_434">
<rect width="61" height="61" fill="white"/>
</clipPath>
</defs>
</svg>
