<svg width="72" height="72" viewBox="0 0 72 72" fill="none" xmlns="http://www.w3.org/2000/svg">
<path d="M49.5007 69.7501H27.0007C26.7023 69.7501 26.4162 69.6316 26.2052 69.4206C25.9942 69.2097 25.8757 68.9235 25.8757 68.6251V59.6251H14.6257C14.3273 59.6251 14.0412 59.5066 13.8302 59.2956C13.6192 59.0847 13.5007 58.7985 13.5007 58.5001V50.6251H7.87568C7.70725 50.6252 7.54094 50.5875 7.38904 50.5148C7.23713 50.442 7.1035 50.3361 6.998 50.2048C6.89251 50.0735 6.81784 49.9202 6.77951 49.7561C6.74119 49.5921 6.74018 49.4216 6.77656 49.2571L11.1562 29.4909C11.2169 29.2419 11.2487 28.9867 11.2507 28.7304C11.3693 21.9039 14.0698 15.3758 18.8084 10.4605C23.547 5.54509 29.9718 2.60745 36.7894 2.23897C43.607 1.87048 50.311 4.09851 55.5518 8.4745C60.7926 12.8505 64.1809 19.0495 65.0347 25.8234C65.6431 30.6681 64.9309 35.5872 62.9733 40.0604C61.0158 44.5335 57.8857 48.3945 53.9141 51.2349C52.8973 51.9634 52.0688 52.9235 51.4969 54.0359C50.9251 55.1483 50.6264 56.3809 50.6257 57.6316V68.6251C50.6257 68.9235 50.5072 69.2097 50.2962 69.4206C50.0852 69.6316 49.7991 69.7501 49.5007 69.7501ZM28.1257 67.5001H48.3757V57.6316C48.3772 56.0223 48.7624 54.4365 49.4992 53.0057C50.236 51.575 51.3032 50.3404 52.6124 49.4045C56.2542 46.7994 59.1241 43.2584 60.9185 39.1561C62.7129 35.0538 63.3651 30.5427 62.8061 26.1001C62.0886 20.6401 59.5779 15.5729 55.6683 11.6945C51.7588 7.81606 46.6717 5.34602 41.2061 4.67226C37.771 4.26007 34.2878 4.57231 30.9808 5.58886C27.6739 6.60541 24.6167 8.3037 22.0063 10.5742C19.3959 12.8448 17.2904 15.6371 15.8254 18.7713C14.3604 21.9055 13.5685 25.3119 13.5007 28.7709C13.4945 29.188 13.4413 29.6032 13.3421 30.0084L9.27743 48.3751H14.6257C14.9241 48.3751 15.2102 48.4937 15.4212 48.7046C15.6322 48.9156 15.7507 49.2018 15.7507 49.5001V57.3751H27.0007C27.2991 57.3751 27.5852 57.4937 27.7962 57.7046C28.0072 57.9156 28.1257 58.2018 28.1257 58.5001V67.5001Z" fill="#1966A0"/>
<path d="M38.25 14.625C37.9516 14.625 37.6655 14.5065 37.4545 14.2955C37.2435 14.0845 37.125 13.7984 37.125 13.5V11.25C37.125 10.9516 37.2435 10.6655 37.4545 10.4545C37.6655 10.2435 37.9516 10.125 38.25 10.125C38.5484 10.125 38.8345 10.2435 39.0455 10.4545C39.2565 10.6655 39.375 10.9516 39.375 11.25V13.5C39.375 13.7984 39.2565 14.0845 39.0455 14.2955C38.8345 14.5065 38.5484 14.625 38.25 14.625Z" fill="#1966A0"/>
<path d="M30.376 16.7345C30.1783 16.7347 29.9841 16.6828 29.8128 16.584C29.6416 16.4853 29.4994 16.3432 29.4006 16.172L28.2756 14.2246C28.2005 14.0966 28.1516 13.955 28.1315 13.808C28.1114 13.661 28.1205 13.5115 28.1585 13.3681C28.1964 13.2247 28.2623 13.0901 28.3524 12.9723C28.4425 12.8544 28.5551 12.7556 28.6836 12.6814C28.8121 12.6072 28.954 12.5591 29.1011 12.54C29.2482 12.5209 29.3977 12.5311 29.5409 12.5699C29.684 12.6088 29.8181 12.6756 29.9354 12.7665C30.0526 12.8574 30.1507 12.9706 30.2241 13.0996L31.3491 15.047C31.4478 15.2179 31.4997 15.4118 31.4998 15.6092C31.4999 15.8066 31.448 16.0005 31.3494 16.1715C31.2508 16.3425 31.1089 16.4845 30.938 16.5833C30.7672 16.6821 30.5733 16.7343 30.376 16.7345Z" fill="#1966A0"/>
<path d="M24.6093 22.5001C24.4117 22.5005 24.2176 22.4485 24.0468 22.3493L22.0983 21.2243C21.9693 21.151 21.8561 21.0529 21.7652 20.9356C21.6743 20.8184 21.6075 20.6843 21.5686 20.5411C21.5297 20.3979 21.5196 20.2485 21.5387 20.1013C21.5578 19.9542 21.6058 19.8123 21.68 19.6838C21.7542 19.5553 21.8531 19.4428 21.9709 19.3527C22.0888 19.2626 22.2233 19.1966 22.3667 19.1587C22.5102 19.1208 22.6597 19.1116 22.8067 19.1317C22.9537 19.1518 23.0953 19.2008 23.2233 19.2758L25.1718 20.4008C25.3862 20.5247 25.5538 20.7158 25.6486 20.9446C25.7433 21.1734 25.76 21.427 25.6959 21.6662C25.6318 21.9055 25.4905 22.1168 25.2941 22.2676C25.0976 22.4183 24.8569 22.5001 24.6093 22.5001Z" fill="#1966A0"/>
<path d="M22.5 30.375H20.25C19.9516 30.375 19.6655 30.2565 19.4545 30.0455C19.2435 29.8345 19.125 29.5484 19.125 29.25C19.125 28.9516 19.2435 28.6655 19.4545 28.4545C19.6655 28.2435 19.9516 28.125 20.25 28.125H22.5C22.7984 28.125 23.0845 28.2435 23.2955 28.4545C23.5065 28.6655 23.625 28.9516 23.625 29.25C23.625 29.5484 23.5065 29.8345 23.2955 30.0455C23.0845 30.2565 22.7984 30.375 22.5 30.375Z" fill="#1966A0"/>
<path d="M22.664 39.3751C22.4164 39.3751 22.1757 39.2933 21.9792 39.1426C21.7827 38.9918 21.6415 38.7804 21.5774 38.5412C21.5133 38.302 21.5299 38.0484 21.6247 37.8196C21.7194 37.5908 21.8871 37.3996 22.1015 37.2758L24.05 36.1508C24.178 36.0758 24.3196 36.0268 24.4666 36.0067C24.6136 35.9866 24.7631 35.9958 24.9065 36.0337C25.05 36.0716 25.1845 36.1375 25.3023 36.2277C25.4202 36.3178 25.5191 36.4303 25.5933 36.5588C25.6674 36.6873 25.7155 36.8292 25.7346 36.9763C25.7537 37.1235 25.7436 37.2729 25.7047 37.4161C25.6658 37.5593 25.599 37.6934 25.5081 37.8106C25.4172 37.9279 25.304 38.026 25.175 38.0993L23.2265 39.2243C23.0555 39.3231 22.8615 39.3751 22.664 39.3751Z" fill="#1966A0"/>
<path d="M53.8378 39.3751C53.6403 39.3751 53.4463 39.3231 53.2753 39.2243L51.3268 38.0993C51.1978 38.026 51.0846 37.9279 50.9937 37.8106C50.9028 37.6934 50.836 37.5593 50.7971 37.4161C50.7582 37.2729 50.7481 37.1235 50.7672 36.9763C50.7863 36.8292 50.8344 36.6873 50.9085 36.5588C50.9827 36.4303 51.0816 36.3178 51.1994 36.2277C51.3173 36.1375 51.4518 36.0716 51.5953 36.0337C51.7387 35.9958 51.8882 35.9866 52.0352 36.0067C52.1822 36.0268 52.3238 36.0758 52.4518 36.1508L54.4003 37.2758C54.6147 37.3996 54.7823 37.5908 54.8771 37.8196C54.9718 38.0484 54.9885 38.302 54.9244 38.5412C54.8603 38.7804 54.719 38.9918 54.5226 39.1426C54.3261 39.2933 54.0854 39.3751 53.8378 39.3751Z" fill="#1966A0"/>
<path d="M56.25 30.375H54C53.7016 30.375 53.4155 30.2565 53.2045 30.0455C52.9935 29.8345 52.875 29.5484 52.875 29.25C52.875 28.9516 52.9935 28.6655 53.2045 28.4545C53.4155 28.2435 53.7016 28.125 54 28.125H56.25C56.5484 28.125 56.8345 28.2435 57.0455 28.4545C57.2565 28.6655 57.375 28.9516 57.375 29.25C57.375 29.5484 57.2565 29.8345 57.0455 30.0455C56.8345 30.2565 56.5484 30.375 56.25 30.375Z" fill="#1966A0"/>
<path d="M51.8906 22.5001C51.6429 22.5001 51.4022 22.4183 51.2058 22.2676C51.0093 22.1168 50.8681 21.9055 50.804 21.6662C50.7399 21.427 50.7565 21.1734 50.8512 20.9446C50.946 20.7158 51.1136 20.5247 51.3281 20.4008L53.2766 19.2758C53.4046 19.2008 53.5461 19.1518 53.6931 19.1317C53.8401 19.1116 53.9897 19.1208 54.1331 19.1587C54.2765 19.1966 54.4111 19.2626 54.5289 19.3527C54.6468 19.4428 54.7456 19.5553 54.8198 19.6838C54.894 19.8123 54.942 19.9542 54.9612 20.1013C54.9803 20.2485 54.9701 20.3979 54.9312 20.5411C54.8924 20.6843 54.8256 20.8184 54.7347 20.9356C54.6438 21.0529 54.5306 21.151 54.4016 21.2243L52.4531 22.3493C52.2822 22.4485 52.0881 22.5005 51.8906 22.5001Z" fill="#1966A0"/>
<path d="M46.1258 16.7345C45.9284 16.7343 45.7346 16.6821 45.5637 16.5833C45.3928 16.4845 45.251 16.3425 45.1524 16.1715C45.0538 16.0005 45.0019 15.8066 45.002 15.6092C45.002 15.4118 45.054 15.2179 45.1527 15.047L46.2777 13.0996C46.351 12.9706 46.4491 12.8574 46.5664 12.7665C46.6836 12.6756 46.8177 12.6088 46.9609 12.5699C47.1041 12.5311 47.2535 12.5209 47.4007 12.54C47.5478 12.5591 47.6897 12.6072 47.8182 12.6814C47.9466 12.7556 48.0592 12.8544 48.1493 12.9723C48.2394 13.0901 48.3054 13.2247 48.3433 13.3681C48.3812 13.5115 48.3904 13.661 48.3703 13.808C48.3502 13.955 48.3012 14.0966 48.2262 14.2246L47.1012 16.172C47.0023 16.3432 46.8601 16.4853 46.6889 16.584C46.5177 16.6828 46.3235 16.7347 46.1258 16.7345Z" fill="#1966A0"/>
<path d="M43.8749 40.2751C46.2429 39.0669 48.1589 37.1283 49.3391 34.7462C50.5194 32.3642 50.9012 29.6654 50.4281 27.0494C49.9549 24.4335 48.6519 22.0394 46.712 20.2218C44.7721 18.4041 42.2985 17.2594 39.6573 16.9572C36.7787 16.6301 33.8766 17.3232 31.4565 18.9159C29.0365 20.5087 27.252 22.9 26.4139 25.6732C25.5758 28.4465 25.7373 31.4259 26.8702 34.0923C28.0031 36.7588 30.0357 38.9432 32.6137 40.265C32.8761 40.4061 33.106 40.6008 33.2884 40.8365C33.4708 41.0721 33.6016 41.3435 33.6723 41.633C32.8061 41.6837 31.9927 42.066 31.4009 42.7007C30.8092 43.3353 30.4846 44.1734 30.4946 45.0411C30.5046 45.9087 30.8484 46.7392 31.4546 47.36C32.0608 47.9809 32.8828 48.3444 33.7499 48.3751V49.5001C33.7499 50.3952 34.1055 51.2537 34.7384 51.8866C35.3714 52.5195 36.2298 52.8751 37.1249 52.8751H39.3749C40.27 52.8751 41.1285 52.5195 41.7614 51.8866C42.3943 51.2537 42.7499 50.3952 42.7499 49.5001V48.3751C43.6171 48.3442 44.439 47.9806 45.045 47.3596C45.6511 46.7387 45.9947 45.9082 46.0045 45.0406C46.0144 44.1729 45.6897 43.3348 45.0979 42.7003C44.5061 42.0658 43.6926 41.6836 42.8264 41.633C42.8961 41.3457 43.0254 41.0763 43.2061 40.8424C43.3867 40.6084 43.6146 40.4151 43.8749 40.2751ZM40.4999 49.5001C40.4999 49.7985 40.3814 50.0846 40.1704 50.2956C39.9594 50.5066 39.6733 50.6251 39.3749 50.6251H37.1249C36.8266 50.6251 36.5404 50.5066 36.3294 50.2956C36.1185 50.0846 35.9999 49.7985 35.9999 49.5001V48.3751H40.4999V49.5001ZM43.8749 45.0001C43.8749 45.2985 43.7564 45.5846 43.5454 45.7956C43.3344 46.0066 43.0483 46.1251 42.7499 46.1251H33.7499C33.4516 46.1251 33.1654 46.0066 32.9544 45.7956C32.7435 45.5846 32.6249 45.2985 32.6249 45.0001C32.6249 44.7017 32.7435 44.4156 32.9544 44.2046C33.1654 43.9936 33.4516 43.8751 33.7499 43.8751H42.7499C43.0483 43.8751 43.3344 43.9936 43.5454 44.2046C43.7564 44.4156 43.8749 44.7017 43.8749 45.0001ZM38.2499 31.7251L35.8514 28.1251H40.6484L38.2499 31.7251ZM40.5371 41.6251H39.3749L39.3434 34.1439L43.6904 27.6189C43.8022 27.4492 43.8659 27.2524 43.8748 27.0495C43.8837 26.8465 43.8375 26.6449 43.741 26.4661C43.6446 26.2873 43.5015 26.1379 43.327 26.0338C43.1525 25.9298 42.9531 25.8749 42.7499 25.8751H33.7499C33.5463 25.8751 33.3464 25.9303 33.1717 26.035C32.9969 26.1397 32.8539 26.2898 32.7578 26.4694C32.6617 26.649 32.6162 26.8513 32.6261 27.0547C32.636 27.2581 32.7009 27.4551 32.8139 27.6245L37.0889 34.037L37.1249 41.6251H35.9628C35.8789 40.9176 35.6231 40.2414 35.2178 39.6554C34.8124 39.0695 34.2699 38.5917 33.6374 38.2636C31.6128 37.2296 29.995 35.5442 29.0447 33.4789C28.0943 31.4136 27.8667 29.0886 28.3985 26.8782C28.9303 24.6679 30.1905 22.7008 31.9762 21.2937C33.7619 19.8867 35.9692 19.1215 38.2426 19.1215C40.5161 19.1215 42.7234 19.8867 44.5091 21.2937C46.2948 22.7008 47.555 24.6679 48.0867 26.8782C48.6185 29.0886 48.3909 31.4136 47.4406 33.4789C46.4902 35.5442 44.8725 37.2296 42.8478 38.2636C42.2174 38.5925 41.6771 39.0709 41.2743 39.6569C40.8714 40.2429 40.6183 40.9187 40.5371 41.6251Z" fill="#1966A0"/>
</svg>
