<svg width="68" height="68" viewBox="0 0 68 68" fill="none" xmlns="http://www.w3.org/2000/svg">
<path d="M68 40.375C68 38.6722 67.3228 37.0855 66.1555 35.9153C67.4787 34.4675 68.153 32.5266 67.9688 30.5065C67.6373 26.9053 64.3931 24.0833 60.5795 24.0833H43.078C43.945 21.4511 45.3333 16.626 45.3333 12.75C45.3333 6.60448 40.1115 1.41669 36.8333 1.41669C33.8923 1.41669 31.7871 3.07419 31.6993 3.14219C31.3621 3.4114 31.1666 3.8194 31.1666 4.24998V13.8578L23.0038 31.535L22.6666 31.7078V31.1666C22.6666 30.3846 22.0319 29.7498 21.2499 29.7498H7.08329C3.17621 29.75 0 32.9262 0 36.8333V59.5C0 63.4072 3.17621 66.5833 7.08329 66.5833H15.5833C18.6461 66.5833 21.2641 64.6283 22.2501 61.8998C24.6075 63.1125 27.7808 63.75 29.75 63.75H55.7572C58.8427 63.75 61.5429 61.6703 62.1775 58.803C62.5033 57.324 62.3135 55.8365 61.6675 54.5445C63.7585 53.4933 65.1667 51.3315 65.1667 48.875C65.1667 47.872 64.9372 46.9115 64.5037 46.0445C66.5947 44.9905 68 42.8315 68 40.375ZM62.0245 43.8713C61.4777 43.9365 61.0158 44.3076 60.8402 44.8318C60.6674 45.356 60.8119 45.9311 61.2142 46.3108C61.9339 46.988 62.3334 47.9003 62.3334 48.875C62.3334 50.6628 60.9819 52.1645 59.1941 52.3713C58.6473 52.4365 58.1854 52.8076 58.0098 53.3318C57.8371 53.856 57.9816 54.4311 58.3838 54.8108C59.3161 55.6891 59.6901 56.9216 59.4096 58.191C59.0611 59.772 57.5253 60.9167 55.7573 60.9167H29.75C27.4493 60.9167 23.5903 59.8372 22.253 58.497C21.8478 58.0947 21.2358 57.9757 20.7088 58.191C20.179 58.4092 19.8333 58.9277 19.8333 59.5C19.8333 61.8432 17.9265 63.75 15.5833 63.75H7.08329C4.74008 63.75 2.83329 61.8432 2.83329 59.5V36.8333C2.83329 34.4901 4.74008 32.5833 7.08329 32.5833H19.8333V34C19.8333 34.4902 20.0883 34.9463 20.5076 35.207C20.9213 35.4563 21.4426 35.4818 21.8846 35.2665L24.7179 33.8498C25.0041 33.7081 25.2336 33.4701 25.3696 33.1783L33.8696 14.7616C33.9546 14.5746 33.9999 14.3706 33.9999 14.1666V5.01777C34.5893 4.69198 35.6122 4.24998 36.8333 4.24998C38.386 4.24998 42.5 8.10898 42.5 12.75C42.5 17.7367 39.7857 24.9248 39.7602 24.9957C39.5959 25.4292 39.6525 25.9194 39.916 26.3047C40.1823 26.6872 40.6187 26.9167 41.0833 26.9167H60.5795C62.9425 26.9167 64.9485 28.6082 65.1468 30.7672C65.297 32.3822 64.5206 33.9179 63.1295 34.7764C62.696 35.0427 62.4382 35.5244 62.458 36.0372C62.4778 36.55 62.7725 37.009 63.2258 37.2442C64.4243 37.8534 65.1666 39.0547 65.1666 40.375C65.1667 42.1628 63.8152 43.6645 62.0245 43.8713Z" fill="#1966A0"/>
<path d="M21.2507 32.5833C20.4687 32.5833 19.834 33.218 19.834 34V59.5C19.834 60.282 20.4687 60.9167 21.2507 60.9167C22.0327 60.9167 22.6674 60.282 22.6674 59.5V34C22.6674 33.218 22.0327 32.5833 21.2507 32.5833Z" fill="#1966A0"/>
</svg>
