<svg width="33" height="33" viewBox="0 0 33 33" fill="none" xmlns="http://www.w3.org/2000/svg">
<g clip-path="url(#clip0_56_656)">
<path d="M32.9912 33.0001V32.9987H32.9995V20.8959C32.9995 14.9752 31.7248 10.4143 24.8031 10.4143C21.4756 10.4143 19.2426 12.2403 18.331 13.9714H18.2347V10.9671H11.6719V32.9987H18.5056V22.0894C18.5056 19.2171 19.0501 16.4396 22.6072 16.4396C26.1121 16.4396 26.1644 19.7176 26.1644 22.2737V33.0001H32.9912Z" fill="#0B132A"/>
<path d="M0.544922 10.9683H7.38692V32.9999H0.544922V10.9683Z" fill="#0B132A"/>
<path d="M3.96275 0C1.77513 0 0 1.77513 0 3.96275C0 6.15037 1.77513 7.96263 3.96275 7.96263C6.15037 7.96263 7.9255 6.15037 7.9255 3.96275C7.92412 1.77513 6.149 0 3.96275 0V0Z" fill="#0B132A"/>
</g>
<defs>
<clipPath id="clip0_56_656">
<rect width="33" height="33" fill="white"/>
</clipPath>
</defs>
</svg>
