<svg width="19" height="25" viewBox="0 0 19 25" fill="none" xmlns="http://www.w3.org/2000/svg">
<path d="M9.23512 0C4.14276 0 0 4.14276 0 9.23512C0 10.9116 0.751847 12.7146 0.783355 12.7906C1.02618 13.367 1.50532 14.2623 1.85083 14.787L8.18286 24.3812C8.44198 24.7746 8.82551 25 9.23512 25C9.64472 25 10.0282 24.7746 10.2874 24.3818L16.6199 14.787C16.966 14.2623 17.4446 13.367 17.6874 12.7906C17.7189 12.7151 18.4702 10.9121 18.4702 9.23512C18.4702 4.14276 14.3275 0 9.23512 0ZM16.6857 12.3691C16.4689 12.8857 16.0229 13.7185 15.7127 14.1889L9.38016 23.7837C9.25522 23.9733 9.21556 23.9733 9.09061 23.7837L2.75804 14.1889C2.44785 13.7185 2.00185 12.8852 1.78509 12.3685C1.77586 12.3463 1.08648 10.6867 1.08648 9.23512C1.08648 4.74196 4.74196 1.08648 9.23512 1.08648C13.7283 1.08648 17.3837 4.74196 17.3837 9.23512C17.3837 10.6888 16.6927 12.3528 16.6857 12.3691Z" fill="#A30234"/>
<path d="M9.23488 4.34619C6.53877 4.34619 4.3457 6.5398 4.3457 9.23537C4.3457 11.9309 6.53877 14.1245 9.23488 14.1245C11.931 14.1245 14.1241 11.9309 14.1241 9.23537C14.1241 6.5398 11.931 4.34619 9.23488 4.34619ZM9.23488 13.0381C7.13851 13.0381 5.43219 11.3323 5.43219 9.23537C5.43219 7.13845 7.13851 5.43268 9.23488 5.43268C11.3312 5.43268 13.0376 7.13845 13.0376 9.23537C13.0376 11.3323 11.3312 13.0381 9.23488 13.0381Z" fill="#A30234"/>
</svg>
