<svg width="25" height="25" viewBox="0 0 25 25" fill="none" xmlns="http://www.w3.org/2000/svg">
<g clip-path="url(#clip0_56_674)">
<path d="M23.7179 4.16675H1.28208C0.576904 4.16675 0 4.74365 0 5.44878V19.5514C0 20.2564 0.576904 20.8334 1.28208 20.8334H23.718C24.423 20.8334 25 20.2565 25 19.5514V5.44878C25 4.74365 24.4231 4.16675 23.7179 4.16675ZM23.2368 5.12822L13.2375 12.6283C13.0577 12.7651 12.7817 12.8507 12.5 12.8495C12.2182 12.8507 11.9423 12.7651 11.7625 12.6283L1.76313 5.12822H23.2368ZM17.8955 13.1232L23.3442 19.854C23.3497 19.8607 23.3564 19.8659 23.3622 19.872H1.63779C1.64355 19.8656 1.65029 19.8607 1.65576 19.854L7.10449 13.1232C7.27144 12.9168 7.23979 12.6142 7.03301 12.4469C6.82661 12.2799 6.52402 12.3116 6.35703 12.518L0.961523 19.1831V5.7292L11.1858 13.3975C11.5702 13.6837 12.0377 13.8097 12.4999 13.8109C12.9614 13.81 13.4294 13.684 13.814 13.3975L24.0383 5.7292V19.183L18.6429 12.518C18.4759 12.3116 18.173 12.2799 17.9669 12.4469C17.7602 12.6138 17.7285 12.9168 17.8955 13.1232Z" fill="white"/>
</g>
<defs>
<clipPath id="clip0_56_674">
<rect width="25" height="25" fill="white"/>
</clipPath>
</defs>
</svg>
