<svg width="72" height="72" viewBox="0 0 72 72" fill="none" xmlns="http://www.w3.org/2000/svg">
<path d="M67.5 54H60.75V47.25C60.75 46.9516 60.6315 46.6655 60.4205 46.4545C60.2095 46.2435 59.9234 46.125 59.625 46.125H37.125V40.5H48.375C48.6734 40.5 48.9595 40.3815 49.1705 40.1705C49.3815 39.9595 49.5 39.6734 49.5 39.375V23.625C49.4976 21.5372 48.6672 19.5355 47.1908 18.0592C45.7145 16.5828 43.7128 15.7524 41.625 15.75H30.375C28.2872 15.7524 26.2855 16.5828 24.8092 18.0592C23.3328 19.5355 22.5024 21.5372 22.5 23.625V39.375C22.5 39.6734 22.6185 39.9595 22.8295 40.1705C23.0405 40.3815 23.3266 40.5 23.625 40.5H34.875V46.125H12.375C12.0766 46.125 11.7905 46.2435 11.5795 46.4545C11.3685 46.6655 11.25 46.9516 11.25 47.25V54H4.5C4.20163 54 3.91548 54.1185 3.7045 54.3295C3.49353 54.5405 3.375 54.8266 3.375 55.125V68.625C3.375 68.9234 3.49353 69.2095 3.7045 69.4205C3.91548 69.6315 4.20163 69.75 4.5 69.75H22.5C22.7984 69.75 23.0845 69.6315 23.2955 69.4205C23.5065 69.2095 23.625 68.9234 23.625 68.625V55.125C23.625 54.8266 23.5065 54.5405 23.2955 54.3295C23.0845 54.1185 22.7984 54 22.5 54H13.5V48.375H34.875V54H27C26.7016 54 26.4155 54.1185 26.2045 54.3295C25.9935 54.5405 25.875 54.8266 25.875 55.125V68.625C25.875 68.9234 25.9935 69.2095 26.2045 69.4205C26.4155 69.6315 26.7016 69.75 27 69.75H45C45.2984 69.75 45.5845 69.6315 45.7955 69.4205C46.0065 69.2095 46.125 68.9234 46.125 68.625V55.125C46.125 54.8266 46.0065 54.5405 45.7955 54.3295C45.5845 54.1185 45.2984 54 45 54H37.125V48.375H58.5V54H49.5C49.2016 54 48.9155 54.1185 48.7045 54.3295C48.4935 54.5405 48.375 54.8266 48.375 55.125V68.625C48.375 68.9234 48.4935 69.2095 48.7045 69.4205C48.9155 69.6315 49.2016 69.75 49.5 69.75H67.5C67.7984 69.75 68.0845 69.6315 68.2955 69.4205C68.5065 69.2095 68.625 68.9234 68.625 68.625V55.125C68.625 54.8266 68.5065 54.5405 68.2955 54.3295C68.0845 54.1185 67.7984 54 67.5 54ZM21.375 56.25V67.5H5.625V56.25H21.375ZM47.25 23.625V38.25H38.6325L44.4712 18.7987C45.3135 19.2928 46.0126 19.9976 46.4998 20.8439C46.987 21.6901 47.2456 22.6486 47.25 23.625ZM40.0725 18H41.625C41.8725 18 42.1087 18.045 42.345 18.0675L39.3638 28.0012L38.295 21.555L40.0725 18ZM37.5525 18L36.4275 20.25H35.5725L34.4475 18H37.5525ZM24.75 38.25V23.625C24.7544 22.6486 25.013 21.6901 25.5002 20.8439C25.9874 19.9976 26.6865 19.2928 27.5287 18.7987L33.3675 38.25H24.75ZM32.6362 28.0012L29.655 18.0675C29.8913 18.045 30.1275 18 30.375 18H31.9275L33.705 21.555L32.6362 28.0012ZM43.875 56.25V67.5H28.125V56.25H43.875ZM36.2925 38.25H35.7075L34.0987 32.8837L35.8312 22.5H36.1688L37.9012 32.8837L36.2925 38.25ZM66.375 67.5H50.625V56.25H66.375V67.5Z" fill="#1966A0"/>
<path d="M42.75 9C42.75 7.66498 42.3541 6.35994 41.6124 5.2499C40.8707 4.13987 39.8165 3.27471 38.5831 2.76382C37.3497 2.25292 35.9925 2.11925 34.6831 2.3797C33.3738 2.64015 32.171 3.28303 31.227 4.22703C30.283 5.17104 29.6402 6.37377 29.3797 7.68314C29.1193 8.99252 29.2529 10.3497 29.7638 11.5831C30.2747 12.8165 31.1399 13.8707 32.2499 14.6124C33.3599 15.3541 34.665 15.75 36 15.75C37.7897 15.7482 39.5055 15.0365 40.771 13.771C42.0365 12.5055 42.7482 10.7897 42.75 9ZM36 13.5C35.11 13.5 34.24 13.2361 33.4999 12.7416C32.7599 12.2471 32.1831 11.5443 31.8425 10.7221C31.502 9.89981 31.4128 8.99501 31.5865 8.1221C31.7601 7.24918 32.1887 6.44736 32.818 5.81802C33.4474 5.18869 34.2492 4.7601 35.1221 4.58647C35.995 4.41284 36.8998 4.50195 37.7221 4.84255C38.5443 5.18314 39.2471 5.75992 39.7416 6.49994C40.2361 7.23996 40.5 8.10999 40.5 9C40.5 10.1935 40.0259 11.3381 39.182 12.182C38.3381 13.0259 37.1935 13.5 36 13.5Z" fill="#1966A0"/>
</svg>
