<svg width="72" height="72" viewBox="0 0 72 72" fill="none" xmlns="http://www.w3.org/2000/svg">
<g opacity="0.7" clip-path="url(#clip0_79_206)">
<path d="M55.0153 38.9896C54.9682 38.9271 54.9147 38.8696 54.8558 38.8181C63.0449 28.4031 61.2405 13.3215 50.8256 5.13234C40.4106 -3.05685 25.329 -1.2524 17.1398 9.16253C10.2981 17.8639 10.2981 30.1167 17.1398 38.8181C17.082 38.8692 17.0293 38.9257 16.9827 38.9872L3.78863 60.5775C3.44213 61.1422 3.61905 61.8807 4.1837 62.2272C4.37307 62.3434 4.59092 62.4047 4.81297 62.4043H15.9764L19.2821 71.2215C19.4464 71.6608 19.8518 71.964 20.3196 71.9976L20.406 72C20.8433 72 21.2459 71.7619 21.4567 71.3787L34.3401 47.9532C34.8871 47.9915 35.4341 48.0167 35.9822 48.0167C36.5304 48.0167 37.0965 47.9843 37.6531 47.9448L50.5413 71.3787C50.7521 71.7619 51.1547 72 51.592 72H51.6784C52.1462 71.9664 52.5516 71.6632 52.7159 71.2239L56.0216 62.4043H67.185C67.8474 62.4046 68.3848 61.8678 68.3851 61.2054C68.3852 60.9847 68.3244 60.7684 68.2094 60.5799L55.0153 38.9896ZM20.6123 67.9362L17.9315 60.7838C17.7559 60.3153 17.3079 60.0051 16.8076 60.0054H6.95161L18.7627 40.6784C22.2596 44.3111 26.8149 46.746 31.7781 47.6353L20.6123 67.9362ZM26.7511 43.5235C15.9809 38.4158 11.3905 25.5442 16.4981 14.7739C21.6059 4.00364 34.4776 -0.586853 45.2478 4.52091C56.0179 9.62867 60.6084 22.5003 55.5008 33.2705C53.048 38.4425 48.6412 42.4283 43.2498 44.3512C37.8606 46.2901 31.9195 45.992 26.7511 43.5235ZM55.1904 60.0054C54.6901 60.0051 54.2421 60.3153 54.0665 60.7838L51.3857 67.9362L40.2163 47.6293C41.5213 47.3951 42.8051 47.0545 44.0546 46.611C47.5321 45.3709 50.6744 43.3405 53.2341 40.6796L65.0464 60.0054H55.1904Z" fill="#0B132A"/>
<path d="M70.7847 25.2209H64.7874C64.125 25.2209 63.5879 25.758 63.5879 26.4204C63.5879 27.0828 64.125 27.6199 64.7874 27.6199H70.7847C71.4471 27.6199 71.9841 27.0828 71.9841 26.4204C71.9841 25.758 71.4472 25.2209 70.7847 25.2209Z" fill="#0B132A"/>
<path d="M65.5547 22.5454C65.5667 22.5351 65.5784 22.5246 65.59 22.5138L69.5878 18.9154C70.0944 18.4885 70.159 17.7318 69.7322 17.2252C69.3053 16.7186 68.5486 16.654 68.042 17.0808C68.022 17.0976 68.0027 17.115 67.984 17.133L63.9849 20.7314C63.484 21.1648 63.4293 21.9223 63.8627 22.4232C64.2964 22.9242 65.0538 22.9789 65.5547 22.5454Z" fill="#0B132A"/>
<path d="M65.586 30.327C65.1026 29.8741 64.3435 29.899 63.8905 30.3824C63.4376 30.8657 63.4625 31.6249 63.9458 32.0778C63.9574 32.0886 63.9691 32.0991 63.9811 32.1094L67.9801 35.7078C68.1999 35.9075 68.4867 36.0176 68.7837 36.0161C69.4461 36.0146 69.982 35.4763 69.9805 34.8139C69.9798 34.4751 69.8357 34.1523 69.5838 33.9254L65.586 30.327Z" fill="#0B132A"/>
<path d="M8.41186 26.4204C8.41186 25.758 7.8748 25.2209 7.2124 25.2209H1.21509C0.552684 25.2209 0.015625 25.758 0.015625 26.4204C0.015625 27.0828 0.552684 27.6199 1.21509 27.6199H7.2124C7.87495 27.6199 8.41186 27.0828 8.41186 26.4204Z" fill="#0B132A"/>
<path d="M2.4152 18.9154L6.41061 22.5138C6.89399 22.9667 7.6531 22.942 8.10605 22.4585C8.55899 21.9749 8.53425 21.216 8.05072 20.763C8.03918 20.7522 8.02748 20.7416 8.01549 20.7314L4.01648 17.133C3.54599 16.6667 2.78643 16.6702 2.32014 17.1407C1.85385 17.6111 1.8573 18.3707 2.32778 18.837C2.35567 18.8644 2.38491 18.8907 2.4152 18.9154Z" fill="#0B132A"/>
<path d="M8.01458 32.1094C8.51551 31.6759 8.57024 30.9185 8.13678 30.4176C7.70332 29.9166 6.94586 29.8619 6.44494 30.2954C6.43294 30.3057 6.42125 30.3162 6.4097 30.327L2.41429 33.9254C1.92206 34.3687 1.88248 35.1272 2.32583 35.6193C2.55268 35.8711 2.87534 36.0153 3.21433 36.016C3.5106 36.0169 3.79637 35.9069 4.01558 35.7078L8.01458 32.1094Z" fill="#0B132A"/>
<path d="M47.9932 34.9078L49.1087 20.4147C49.1387 20.4147 49.1675 20.4231 49.1975 20.4231C51.1848 20.4231 52.7958 18.8121 52.7958 16.8247C52.7958 14.8374 51.1848 13.2263 49.1975 13.2263C47.2101 13.2263 45.5991 14.8374 45.5991 16.8247C45.6009 17.5838 45.8451 18.3225 46.2959 18.9334L41.7836 22.0208L38.2176 14.8408C39.7839 13.6177 40.062 11.3562 38.8387 9.79002C37.6156 8.22367 35.3541 7.94555 33.7879 9.16885C32.2216 10.392 31.9435 12.6534 33.1668 14.2196C33.3477 14.4513 33.5563 14.66 33.7879 14.8408L30.2171 22.022L25.706 18.9346C26.8666 17.327 26.5042 15.0831 24.8968 13.9225C23.2893 12.7618 21.0453 13.1242 19.8847 14.7317C18.724 16.3391 19.0864 18.5831 20.6939 19.7438C21.3081 20.1873 22.0469 20.4251 22.8045 20.4231C22.8344 20.4231 22.862 20.4147 22.892 20.4147L24.0039 34.909C24.0524 35.5351 24.5755 36.0179 25.2034 36.0161H46.7937C47.4222 36.0179 47.9455 35.5344 47.9932 34.9078ZM49.1927 15.6253C49.8551 15.6253 50.3921 16.1623 50.3921 16.8247C50.3921 17.4871 49.8551 18.0242 49.1927 18.0242C48.5302 18.0242 47.9932 17.4871 47.9932 16.8247C47.9932 16.1623 48.5302 15.6253 49.1927 15.6253ZM22.8045 18.0242C22.1421 18.0242 21.605 17.4871 21.605 16.8247C21.605 16.1623 22.1421 15.6253 22.8045 15.6253C23.4669 15.6253 24.0039 16.1623 24.0039 16.8247C24.0039 17.4871 23.467 18.0242 22.8045 18.0242ZM35.9986 10.8274C36.661 10.8274 37.198 11.3645 37.198 12.0269C37.198 12.6893 36.661 13.2263 35.9986 13.2263C35.3362 13.2263 34.7991 12.6893 34.7991 12.0269C34.7991 11.3645 35.3362 10.8274 35.9986 10.8274ZM32.2334 23.3558L35.9986 15.7728L39.7637 23.3558C39.7637 23.3666 39.7781 23.375 39.7841 23.3858L35.9986 25.9766L32.2119 23.3858C32.2178 23.375 32.2274 23.3666 32.2334 23.3558ZM45.6818 33.6172H26.3141L25.3905 21.6226L35.3209 28.4175C35.7291 28.6967 36.2668 28.6967 36.6751 28.4175L46.6054 21.6226L45.6818 33.6172Z" fill="#0B132A"/>
</g>
<defs>
<clipPath id="clip0_79_206">
<rect width="72" height="72" fill="white"/>
</clipPath>
</defs>
</svg>
