<svg width="47" height="25" viewBox="0 0 47 25" fill="none" xmlns="http://www.w3.org/2000/svg">
<path d="M1.46871 3.68742H45.5312C46.3419 3.68742 46.9999 3.02937 46.9999 2.21871C46.9999 1.40793 46.3418 0.75 45.5312 0.75H1.46871C0.657929 0.75 0 1.40805 0 2.21871C0 3.02937 0.658051 3.68742 1.46871 3.68742Z" fill="#0B132A"/>
<path d="M45.5312 11.0312H1.46871C0.657929 11.0312 0 11.6893 0 12.5C0 13.3106 0.658051 13.9687 1.46871 13.9687H45.5312C46.3419 13.9687 46.9999 13.3106 46.9999 12.5C46.9999 11.6893 46.3419 11.0312 45.5312 11.0312Z" fill="#0B132A"/>
<path d="M45.5312 21.3125H16.1562C15.3454 21.3125 14.6875 21.9706 14.6875 22.7812C14.6875 23.592 15.3456 24.2499 16.1562 24.2499H45.5312C46.342 24.2499 46.9999 23.5919 46.9999 22.7812C47 21.9704 46.342 21.3125 45.5312 21.3125Z" fill="#0B132A"/>
</svg>
