<svg width="72" height="72" viewBox="0 0 72 72" fill="none" xmlns="http://www.w3.org/2000/svg">
<g opacity="0.7">
<path d="M66.0008 38.4H63.6008V31.2C63.5967 27.8877 60.9131 25.2041 57.6008 25.2H48.0008V6C47.9967 2.6877 45.3131 0.00410157 42.0008 0H10.8008C7.48848 0.00410157 4.80488 2.6877 4.80078 6V66C4.80488 69.3123 7.48848 71.9959 10.8008 72H42.0008C45.3131 71.9959 47.9967 69.3123 48.0008 66V57.6H66.0008C66.6635 57.6 67.2008 57.0627 67.2008 56.4V39.6C67.2008 38.9373 66.6635 38.4 66.0008 38.4ZM57.6008 27.6C59.5889 27.6 61.2008 29.2119 61.2008 31.2V38.4H60.0008V32.4C60.0008 30.4119 58.3889 28.8 56.4008 28.8H49.2008C47.2127 28.8 45.6008 30.4119 45.6008 32.4V38.4H44.4008V31.2C44.4008 29.2119 46.0127 27.6 48.0008 27.6H57.6008ZM57.6008 38.4H48.0008V32.4C48.0008 31.7373 48.5381 31.2 49.2008 31.2H56.4008C57.0635 31.2 57.6008 31.7373 57.6008 32.4V38.4ZM10.8008 2.4H42.0008C43.9889 2.4 45.6008 4.01191 45.6008 6V7.2H7.20078V6C7.20078 4.01191 8.8127 2.4 10.8008 2.4ZM42.0008 69.6H10.8008C8.8127 69.6 7.20078 67.9881 7.20078 66V62.4H45.6008V66C45.6008 67.9881 43.9889 69.6 42.0008 69.6ZM45.6008 60H7.20078V9.6H45.6008V25.7086C43.417 26.6619 42.0037 28.817 42.0008 31.2V38.4H39.6008C38.9381 38.4 38.4008 38.9373 38.4008 39.6V56.4C38.4008 57.0627 38.9381 57.6 39.6008 57.6H45.6008V60ZM40.8008 55.2V51.6H44.4008C45.0635 51.6 45.6008 51.0627 45.6008 50.4C45.6008 49.7373 45.0635 49.2 44.4008 49.2H40.8008V46.8H44.4008C45.0635 46.8 45.6008 46.2627 45.6008 45.6C45.6008 44.9373 45.0635 44.4 44.4008 44.4H40.8008V40.8H64.8008V44.4H61.2008C60.5381 44.4 60.0008 44.9373 60.0008 45.6C60.0008 46.2627 60.5381 46.8 61.2008 46.8H64.8008V49.2H61.2008C60.5381 49.2 60.0008 49.7373 60.0008 50.4C60.0008 51.0627 60.5381 51.6 61.2008 51.6H64.8008V55.2H40.8008Z" fill="#0B132A"/>
<path d="M52.7992 44.4C50.8111 44.4 49.1992 46.0119 49.1992 48C49.1992 49.9881 50.8111 51.6 52.7992 51.6C54.7873 51.6 56.3992 49.9881 56.3992 48C56.3992 46.0119 54.7873 44.4 52.7992 44.4ZM52.7992 49.2C52.1365 49.2 51.5992 48.6627 51.5992 48C51.5992 47.3373 52.1365 46.8 52.7992 46.8C53.4619 46.8 53.9992 47.3373 53.9992 48C53.9992 48.6627 53.4619 49.2 52.7992 49.2Z" fill="#0B132A"/>
<path d="M30.0008 66C30.0008 64.0119 28.3889 62.4 26.4008 62.4C24.4127 62.4 22.8008 64.0119 22.8008 66C22.8008 67.9881 24.4127 69.6 26.4008 69.6C28.3889 69.6 30.0008 67.9881 30.0008 66ZM26.4008 67.2C25.7381 67.2 25.2008 66.6627 25.2008 66C25.2008 65.3373 25.7381 64.8 26.4008 64.8C27.0635 64.8 27.6008 65.3373 27.6008 66C27.6008 66.6627 27.0635 67.2 26.4008 67.2Z" fill="#0B132A"/>
<path d="M24 3.59998H28.8V5.99998H24V3.59998Z" fill="#0B132A"/>
<path d="M11.9996 14.4H40.7996V26.4H43.1996V13.2C43.1996 12.5373 42.6623 12 41.9996 12H10.7996C10.1369 12 9.59961 12.5373 9.59961 13.2V56.4C9.59961 57.0627 10.1369 57.6 10.7996 57.6H37.1996V55.2H11.9996V14.4Z" fill="#0B132A"/>
<path d="M26.4004 20.4C19.7729 20.4 14.4004 25.7725 14.4004 32.4C14.4004 39.0276 19.7729 44.4 26.4004 44.4C33.0279 44.4 38.4004 39.0276 38.4004 32.4C38.3934 25.7754 33.025 20.4071 26.4004 20.4ZM26.4004 42C21.0982 42 16.8004 37.7022 16.8004 32.4C16.8004 27.0979 21.0982 22.8 26.4004 22.8C31.7025 22.8 36.0004 27.0979 36.0004 32.4C35.9945 37.6992 31.6996 41.9942 26.4004 42Z" fill="#0B132A"/>
<path d="M25.2008 35.5031L20.9586 31.2597L19.2617 32.9566L25.2008 38.8969L34.5342 29.5635L32.8373 27.8666L25.2008 35.5031Z" fill="#0B132A"/>
</g>
</svg>
