<svg width="68" height="68" viewBox="0 0 68 68" fill="none" xmlns="http://www.w3.org/2000/svg">
<path d="M62.125 9.25012H58.75C58.4516 9.25012 58.1655 9.36865 57.9545 9.57963C57.7435 9.79061 57.625 10.0768 57.625 10.3751C57.625 10.6735 57.7435 10.9596 57.9545 11.1706C58.1655 11.3816 58.4516 11.5001 58.75 11.5001H62.125C63.0201 11.5001 63.8785 11.8557 64.5115 12.4886C65.1444 13.1216 65.5 13.98 65.5 14.8751V50.8751C65.5 51.7702 65.1444 52.6287 64.5115 53.2616C63.8785 53.8945 63.0201 54.2501 62.125 54.2501H5.875C4.97989 54.2501 4.12145 53.8945 3.48851 53.2616C2.85558 52.6287 2.5 51.7702 2.5 50.8751V14.8751C2.5 13.98 2.85558 13.1216 3.48851 12.4886C4.12145 11.8557 4.97989 11.5001 5.875 11.5001H9.25C9.54837 11.5001 9.83452 11.3816 10.0455 11.1706C10.2565 10.9596 10.375 10.6735 10.375 10.3751C10.375 10.0768 10.2565 9.79061 10.0455 9.57963C9.83452 9.36865 9.54837 9.25012 9.25 9.25012H5.875C4.38371 9.25191 2.954 9.84511 1.8995 10.8996C0.844992 11.9541 0.251786 13.3838 0.25 14.8751V50.8751C0.251786 52.3664 0.844992 53.7961 1.8995 54.8506C2.954 55.9051 4.38371 56.4983 5.875 56.5001H26.125V61.0001H18.25C17.3549 61.0001 16.4964 61.3557 15.8635 61.9886C15.2306 62.6216 14.875 63.48 14.875 64.3751C14.875 65.2702 15.2306 66.1287 15.8635 66.7616C16.4964 67.3945 17.3549 67.7501 18.25 67.7501H49.75C50.6451 67.7501 51.5035 67.3945 52.1365 66.7616C52.7694 66.1287 53.125 65.2702 53.125 64.3751C53.125 63.48 52.7694 62.6216 52.1365 61.9886C51.5035 61.3557 50.6451 61.0001 49.75 61.0001H41.875V56.5001H62.125C63.6163 56.4983 65.046 55.9051 66.1005 54.8506C67.155 53.7961 67.7482 52.3664 67.75 50.8751V14.8751C67.7482 13.3838 67.155 11.9541 66.1005 10.8996C65.046 9.84511 63.6163 9.25191 62.125 9.25012ZM50.875 64.3751C50.875 64.6735 50.7565 64.9596 50.5455 65.1706C50.3345 65.3816 50.0484 65.5001 49.75 65.5001H18.25C17.9516 65.5001 17.6655 65.3816 17.4545 65.1706C17.2435 64.9596 17.125 64.6735 17.125 64.3751C17.125 64.0768 17.2435 63.7906 17.4545 63.5796C17.6655 63.3686 17.9516 63.2501 18.25 63.2501H49.75C50.0484 63.2501 50.3345 63.3686 50.5455 63.5796C50.7565 63.7906 50.875 64.0768 50.875 64.3751ZM39.625 61.0001H28.375V56.5001H39.625V61.0001Z" fill="#1966A0"/>
<path d="M32.875 50.8751C32.5766 50.8751 32.2905 50.9936 32.0795 51.2046C31.8685 51.4156 31.75 51.7018 31.75 52.0001C31.75 52.2985 31.8685 52.5846 32.0795 52.7956C32.2905 53.0066 32.5766 53.1251 32.875 53.1251H35.125C35.4234 53.1251 35.7095 53.0066 35.9205 52.7956C36.1315 52.5846 36.25 52.2985 36.25 52.0001C36.25 51.7018 36.1315 51.4156 35.9205 51.2046C35.7095 50.9936 35.4234 50.8751 35.125 50.8751H32.875Z" fill="#1966A0"/>
<path d="M36.25 21.6251H38.2255L36.8271 23.0235C36.6162 23.2345 36.4977 23.5206 36.4977 23.8189C36.4977 24.1172 36.6162 24.4033 36.8271 24.6142L40.0109 27.798C40.2218 28.0089 40.5079 28.1274 40.8062 28.1274C41.1046 28.1274 41.3907 28.0089 41.6016 27.798L43 26.3996V28.3751C43 28.6735 43.1185 28.9596 43.3295 29.1706C43.5405 29.3816 43.8266 29.5001 44.125 29.5001H48.625C48.9234 29.5001 49.2095 29.3816 49.4205 29.1706C49.6315 28.9596 49.75 28.6735 49.75 28.3751V26.3996L51.1484 27.798C51.3593 28.0089 51.6454 28.1274 51.9438 28.1274C52.2421 28.1274 52.5282 28.0089 52.7391 27.798L55.9229 24.6142C56.1338 24.4033 56.2523 24.1172 56.2523 23.8189C56.2523 23.5206 56.1338 23.2345 55.9229 23.0235L54.5245 21.6251H56.5C56.7984 21.6251 57.0845 21.5066 57.2955 21.2956C57.5065 21.0846 57.625 20.7985 57.625 20.5001V16.0001C57.625 15.7018 57.5065 15.4156 57.2955 15.2046C57.0845 14.9936 56.7984 14.8751 56.5 14.8751H54.5245L55.9229 13.4767C56.1338 13.2658 56.2523 12.9797 56.2523 12.6814C56.2523 12.3831 56.1338 12.097 55.9229 11.886L52.7391 8.70225C52.5282 8.49134 52.2421 8.37286 51.9438 8.37286C51.6454 8.37286 51.3593 8.49134 51.1484 8.70225L49.75 10.1006V8.12512C49.75 7.82675 49.6315 7.54061 49.4205 7.32963C49.2095 7.11865 48.9234 7.00012 48.625 7.00012H44.125C43.8266 7.00012 43.5405 7.11865 43.3295 7.32963C43.1185 7.54061 43 7.82675 43 8.12512V10.1006L41.6016 8.70225C41.3907 8.49134 41.1046 8.37286 40.8062 8.37286C40.5079 8.37286 40.2218 8.49134 40.0109 8.70225L36.8271 11.886C36.6162 12.097 36.4977 12.3831 36.4977 12.6814C36.4977 12.9797 36.6162 13.2658 36.8271 13.4767L38.2255 14.8751H36.25C35.9516 14.8751 35.6655 14.9936 35.4545 15.2046C35.2435 15.4156 35.125 15.7018 35.125 16.0001V20.5001C35.125 20.7985 35.2435 21.0846 35.4545 21.2956C35.6655 21.5066 35.9516 21.6251 36.25 21.6251ZM37.375 17.1251H40.0187C40.2608 17.1251 40.4964 17.0471 40.6905 16.9026C40.8847 16.7581 41.027 16.5548 41.0965 16.323C41.1444 16.1673 41.2073 16.0166 41.2844 15.873C41.3962 15.6605 41.4371 15.4177 41.4011 15.1803C41.3651 14.9428 41.254 14.7232 41.0841 14.5534L39.2132 12.6814L40.8062 11.0884L42.6771 12.9626C42.8466 13.1322 43.0658 13.2431 43.3028 13.2794C43.5398 13.3156 43.7821 13.2752 43.9945 13.164C44.1381 13.0867 44.2888 13.0234 44.4445 12.975C44.6775 12.906 44.8819 12.7634 45.0271 12.5685C45.1723 12.3736 45.2505 12.1369 45.25 11.8939V9.25012H47.5V11.8939C47.5 12.1359 47.578 12.3715 47.7225 12.5656C47.867 12.7598 48.0703 12.9022 48.3021 12.9716C48.4578 13.0201 48.6085 13.0833 48.7521 13.1606C48.9645 13.2718 49.2069 13.3122 49.4438 13.276C49.6808 13.2398 49.9 13.1288 50.0695 12.9592L51.9404 11.0884L53.5334 12.6814L51.6625 14.5522C51.493 14.7217 51.382 14.9409 51.3458 15.1779C51.3095 15.4149 51.35 15.6572 51.4611 15.8696C51.5384 16.0132 51.6017 16.1639 51.6501 16.3196C51.7191 16.5526 51.8618 16.7571 52.0567 16.9023C52.2515 17.0475 52.4882 17.1257 52.7313 17.1251H55.375V19.3751H52.7313C52.4892 19.3751 52.2536 19.4531 52.0595 19.5976C51.8653 19.7421 51.723 19.9454 51.6535 20.1772C51.6051 20.333 51.5418 20.4837 51.4645 20.6272C51.3533 20.8396 51.3129 21.082 51.3491 21.319C51.3854 21.5559 51.4963 21.7751 51.6659 21.9446L53.5368 23.8155L51.9438 25.4119L50.0729 23.5376C49.9034 23.3681 49.6842 23.2571 49.4472 23.2209C49.2102 23.1847 48.9679 23.2251 48.7555 23.3362C48.6119 23.4135 48.4612 23.4768 48.3055 23.5252C48.0725 23.5943 47.8681 23.7369 47.7229 23.9318C47.5777 24.1267 47.4995 24.3633 47.5 24.6064V27.2501H45.25V24.6064C45.25 24.3643 45.172 24.1288 45.0275 23.9346C44.883 23.7405 44.6797 23.5981 44.4479 23.5286C44.2922 23.4802 44.1415 23.4169 43.9979 23.3396C43.7855 23.2284 43.5431 23.188 43.3062 23.2243C43.0692 23.2605 42.85 23.3714 42.6805 23.541L40.8062 25.4119L39.2132 23.8189L41.0875 21.948C41.2574 21.7782 41.3684 21.5585 41.4045 21.3211C41.4405 21.0836 41.3996 20.8409 41.2878 20.6284C41.2107 20.4848 41.1478 20.3341 41.0999 20.1784C41.0305 19.9458 40.8877 19.7419 40.6928 19.5971C40.4979 19.4523 40.2615 19.3744 40.0187 19.3751H37.375V17.1251Z" fill="#1966A0"/>
<path d="M27.25 29.5001V33.7222C27.088 33.7864 26.9316 33.8505 26.7786 33.918L23.7929 30.9322C23.5819 30.7213 23.2958 30.6029 22.9975 30.6029C22.6992 30.6029 22.4131 30.7213 22.2021 30.9322L17.4321 35.7022C17.2212 35.9132 17.1027 36.1993 17.1027 36.4976C17.1027 36.7959 17.2212 37.082 17.4321 37.293L20.4179 40.2787C20.3504 40.4317 20.2863 40.5881 20.2221 40.7501H16C15.7016 40.7501 15.4155 40.8686 15.2045 41.0796C14.9935 41.2906 14.875 41.5768 14.875 41.8751V47.5001H7V16.0001H9.25C9.54837 16.0001 9.83452 15.8816 10.0455 15.6706C10.2565 15.4596 10.375 15.1735 10.375 14.8751C10.375 14.5768 10.2565 14.2906 10.0455 14.0796C9.83452 13.8686 9.54837 13.7501 9.25 13.7501H5.875C5.57663 13.7501 5.29048 13.8686 5.07951 14.0796C4.86853 14.2906 4.75 14.5768 4.75 14.8751V48.6251C4.75 48.9235 4.86853 49.2096 5.07951 49.4206C5.29048 49.6316 5.57663 49.7501 5.875 49.7501H62.125C62.4234 49.7501 62.7095 49.6316 62.9205 49.4206C63.1315 49.2096 63.25 48.9235 63.25 48.6251V14.8751C63.25 14.5768 63.1315 14.2906 62.9205 14.0796C62.7095 13.8686 62.4234 13.7501 62.125 13.7501H59.875C59.5766 13.7501 59.2905 13.8686 59.0795 14.0796C58.8685 14.2906 58.75 14.5768 58.75 14.8751C58.75 15.1735 58.8685 15.4596 59.0795 15.6706C59.2905 15.8816 59.5766 16.0001 59.875 16.0001H61V47.5001H48.625V41.8751C48.625 41.5768 48.5065 41.2906 48.2955 41.0796C48.0845 40.8686 47.7984 40.7501 47.5 40.7501H43.2779C43.2138 40.5881 43.1496 40.4317 43.0821 40.2787L46.0679 37.293C46.2788 37.082 46.3973 36.7959 46.3973 36.4976C46.3973 36.1993 46.2788 35.9132 46.0679 35.7022L41.2979 30.9322C41.0829 30.729 40.7983 30.6157 40.5025 30.6157C40.2067 30.6157 39.9221 30.729 39.7071 30.9322L36.7214 33.918C36.5684 33.8505 36.412 33.7864 36.25 33.7222V29.5001C36.25 29.2018 36.1315 28.9156 35.9205 28.7046C35.7095 28.4936 35.4234 28.3751 35.125 28.3751H28.375C28.0766 28.3751 27.7905 28.4936 27.5795 28.7046C27.3685 28.9156 27.25 29.2018 27.25 29.5001ZM27.25 45.2501C27.25 44.0566 27.7241 42.9121 28.568 42.0681C29.4119 41.2242 30.5565 40.7501 31.75 40.7501C32.9435 40.7501 34.0881 41.2242 34.932 42.0681C35.7759 42.9121 36.25 44.0566 36.25 45.2501C36.2503 46.0413 36.039 46.8181 35.638 47.5001H27.862C27.461 46.8181 27.2497 46.0413 27.25 45.2501ZM29.5 34.5176V30.6251H34V34.5176C34 34.7558 34.0756 34.9878 34.2159 35.1803C34.3562 35.3728 34.554 35.5157 34.7808 35.5886C35.343 35.7635 35.8873 35.9914 36.4064 36.2692C36.6198 36.3863 36.8655 36.4309 37.1065 36.3964C37.3475 36.3619 37.5708 36.2502 37.7429 36.078L40.5025 33.3184L43.6817 36.4976L40.9221 39.2572C40.7499 39.4293 40.6382 39.6526 40.6037 39.8936C40.5692 40.1346 40.6139 40.3803 40.7309 40.5937C41.0087 41.1128 41.2366 41.6572 41.4115 42.2194C41.4844 42.4461 41.6274 42.6439 41.8198 42.7842C42.0123 42.9245 42.2443 43.0001 42.4825 43.0001H46.375V47.5001H38.1107C38.4724 46.4818 38.5843 45.3914 38.437 44.3209C38.2897 43.2503 37.8874 42.2307 37.2641 41.3479C36.6408 40.4651 35.8147 39.7448 34.8551 39.2477C33.8956 38.7505 32.8307 38.4911 31.75 38.4911C30.6693 38.4911 29.6044 38.7505 28.6449 39.2477C27.6853 39.7448 26.8592 40.4651 26.2359 41.3479C25.6126 42.2307 25.2103 43.2503 25.063 44.3209C24.9157 45.3914 25.0276 46.4818 25.3893 47.5001H17.125V43.0001H21.0175C21.2557 43.0001 21.4877 42.9245 21.6802 42.7842C21.8726 42.6439 22.0156 42.4461 22.0885 42.2194C22.2634 41.6572 22.4913 41.1128 22.7691 40.5937C22.8861 40.3803 22.9308 40.1346 22.8963 39.8936C22.8618 39.6526 22.7501 39.4293 22.5779 39.2572L19.8182 36.4976L22.9975 33.3184L25.7571 36.078C25.9292 36.2502 26.1525 36.3619 26.3935 36.3964C26.6345 36.4309 26.8802 36.3863 27.0936 36.2692C27.6127 35.9914 28.157 35.7635 28.7192 35.5886C28.946 35.5157 29.1438 35.3728 29.2841 35.1803C29.4244 34.9878 29.5 34.7558 29.5 34.5176Z" fill="#1966A0"/>
<path d="M46.375 22.7501C47.265 22.7501 48.1351 22.4862 48.8751 21.9917C49.6151 21.4973 50.1919 20.7945 50.5325 19.9722C50.8731 19.1499 50.9622 18.2451 50.7885 17.3722C50.6149 16.4993 50.1863 15.6975 49.557 15.0681C48.9277 14.4388 48.1258 14.0102 47.2529 13.8366C46.38 13.663 45.4752 13.7521 44.6529 14.0927C43.8307 14.4333 43.1279 15.01 42.6334 15.7501C42.1389 16.4901 41.875 17.3601 41.875 18.2501C41.875 19.4436 42.3491 20.5882 43.193 21.4321C44.0369 22.276 45.1815 22.7501 46.375 22.7501ZM46.375 16.0001C46.82 16.0001 47.255 16.1321 47.625 16.3793C47.9951 16.6266 48.2834 16.978 48.4537 17.3891C48.624 17.8002 48.6686 18.2526 48.5818 18.6891C48.495 19.1255 48.2807 19.5264 47.966 19.8411C47.6513 20.1558 47.2504 20.3701 46.814 20.4569C46.3775 20.5437 45.9251 20.4992 45.514 20.3289C45.1028 20.1586 44.7514 19.8702 44.5042 19.5002C44.257 19.1301 44.125 18.6951 44.125 18.2501C44.125 17.6534 44.3621 17.0811 44.784 16.6591C45.206 16.2372 45.7783 16.0001 46.375 16.0001Z" fill="#1966A0"/>
<path d="M12.625 14.8751H14.6005L13.2021 16.2735C12.9912 16.4845 12.8727 16.7706 12.8727 17.0689C12.8727 17.3672 12.9912 17.6533 13.2021 17.8642L16.3859 21.048C16.5968 21.2589 16.8829 21.3774 17.1812 21.3774C17.4796 21.3774 17.7657 21.2589 17.9766 21.048L19.375 19.6496V21.6251C19.375 21.9235 19.4935 22.2096 19.7045 22.4206C19.9155 22.6316 20.2016 22.7501 20.5 22.7501H25C25.2984 22.7501 25.5845 22.6316 25.7955 22.4206C26.0065 22.2096 26.125 21.9235 26.125 21.6251V19.6496L27.5234 21.048C27.7343 21.2589 28.0204 21.3774 28.3188 21.3774C28.6171 21.3774 28.9032 21.2589 29.1141 21.048L32.2979 17.8642C32.5088 17.6533 32.6273 17.3672 32.6273 17.0689C32.6273 16.7706 32.5088 16.4845 32.2979 16.2735L30.8995 14.8751H32.875C33.1734 14.8751 33.4595 14.7566 33.6705 14.5456C33.8815 14.3346 34 14.0485 34 13.7501V9.25012C34 8.95175 33.8815 8.66561 33.6705 8.45463C33.4595 8.24365 33.1734 8.12512 32.875 8.12512H30.8995L32.2979 6.72675C32.5088 6.51578 32.6273 6.22968 32.6273 5.93137C32.6273 5.63306 32.5088 5.34697 32.2979 5.136L29.1141 1.95225C28.9032 1.74134 28.6171 1.62286 28.3188 1.62286C28.0204 1.62286 27.7343 1.74134 27.5234 1.95225L26.125 3.35062V1.37512C26.125 1.07675 26.0065 0.790605 25.7955 0.579627C25.5845 0.368648 25.2984 0.250122 25 0.250122H20.5C20.2016 0.250122 19.9155 0.368648 19.7045 0.579627C19.4935 0.790605 19.375 1.07675 19.375 1.37512V3.35062L17.9766 1.95225C17.7657 1.74134 17.4796 1.62286 17.1812 1.62286C16.8829 1.62286 16.5968 1.74134 16.3859 1.95225L13.2021 5.136C12.9912 5.34697 12.8727 5.63306 12.8727 5.93137C12.8727 6.22968 12.9912 6.51578 13.2021 6.72675L14.6005 8.12512H12.625C12.3266 8.12512 12.0405 8.24365 11.8295 8.45463C11.6185 8.66561 11.5 8.95175 11.5 9.25012V13.7501C11.5 14.0485 11.6185 14.3346 11.8295 14.5456C12.0405 14.7566 12.3266 14.8751 12.625 14.8751ZM13.75 10.3751H16.3938C16.6358 10.3751 16.8714 10.2971 17.0655 10.1526C17.2597 10.0081 17.402 9.80484 17.4715 9.573C17.5194 9.41727 17.5823 9.26657 17.6594 9.123C17.7719 8.91069 17.8135 8.66792 17.7781 8.43025C17.7427 8.19259 17.6321 7.97251 17.4625 7.80225L15.5882 5.93137L17.1812 4.33837L19.0521 6.21262C19.2216 6.38217 19.4408 6.49314 19.6778 6.52937C19.9148 6.56559 20.1571 6.52517 20.3695 6.414C20.5131 6.33672 20.6638 6.27343 20.8195 6.225C21.0525 6.15598 21.2569 6.01335 21.4021 5.81846C21.5473 5.62357 21.6255 5.3869 21.625 5.14387V2.50012H23.875V5.14387C23.875 5.3859 23.953 5.62148 24.0975 5.81563C24.242 6.00978 24.4453 6.15216 24.6771 6.22162C24.8328 6.27006 24.9835 6.33335 25.1271 6.41062C25.3396 6.52302 25.5824 6.56444 25.8201 6.52881C26.0577 6.49318 26.2777 6.38237 26.4479 6.21262L28.3188 4.33837L29.9117 5.93137L28.0375 7.80225C27.868 7.97173 27.757 8.19093 27.7208 8.42791C27.6845 8.66488 27.725 8.90723 27.8361 9.11962C27.9134 9.26322 27.9767 9.41391 28.0251 9.56962C28.0941 9.80265 28.2368 10.0071 28.4317 10.1523C28.6265 10.2975 28.8632 10.3757 29.1062 10.3751H31.75V12.6251H29.1062C28.8642 12.6251 28.6286 12.7031 28.4345 12.8476C28.2403 12.9921 28.098 13.1954 28.0285 13.4272C27.9801 13.583 27.9168 13.7336 27.8395 13.8772C27.7283 14.0896 27.6879 14.332 27.7241 14.569C27.7604 14.8059 27.8713 15.0251 28.0409 15.1946L29.9117 17.0655L28.3188 18.6619L26.4479 16.7876C26.2784 16.6181 26.0592 16.5071 25.8222 16.4709C25.5852 16.4347 25.3429 16.4751 25.1305 16.5862C24.9869 16.6635 24.8362 16.7268 24.6805 16.7752C24.4475 16.8443 24.2431 16.9869 24.0979 17.1818C23.9527 17.3767 23.8745 17.6133 23.875 17.8564V20.5001H21.625V17.8564C21.625 17.6143 21.547 17.3788 21.4025 17.1846C21.258 16.9905 21.0547 16.8481 20.8229 16.7786C20.6672 16.7302 20.5165 16.6669 20.3729 16.5896C20.1605 16.4784 19.9181 16.438 19.6812 16.4743C19.4442 16.5105 19.225 16.6214 19.0555 16.791L17.1812 18.6619L15.5882 17.0689L17.4625 15.198C17.6324 15.0282 17.7434 14.8085 17.7795 14.5711C17.8155 14.3336 17.7746 14.0909 17.6628 13.8784C17.5857 13.7348 17.5228 13.5841 17.4749 13.4284C17.4055 13.1958 17.2627 12.9919 17.0678 12.8471C16.8729 12.7023 16.6365 12.6244 16.3938 12.6251H13.75V10.3751Z" fill="#1966A0"/>
<path d="M22.75 16.0001C23.64 16.0001 24.51 15.7362 25.2501 15.2417C25.9901 14.7473 26.5669 14.0445 26.9075 13.2222C27.2481 12.3999 27.3372 11.4951 27.1635 10.6222C26.9899 9.7493 26.5613 8.94748 25.932 8.31814C25.3026 7.68881 24.5008 7.26022 23.6279 7.08659C22.755 6.91296 21.8502 7.00207 21.0279 7.34267C20.2057 7.68326 19.5029 8.26004 19.0084 9.00006C18.5139 9.74008 18.25 10.6101 18.25 11.5001C18.25 12.6936 18.7241 13.8382 19.568 14.6821C20.4119 15.526 21.5565 16.0001 22.75 16.0001ZM22.75 9.25012C23.195 9.25012 23.63 9.38208 24 9.62932C24.37 9.87655 24.6584 10.228 24.8287 10.6391C24.999 11.0502 25.0436 11.5026 24.9568 11.9391C24.87 12.3755 24.6557 12.7764 24.341 13.0911C24.0263 13.4058 23.6254 13.6201 23.189 13.7069C22.7525 13.7937 22.3001 13.7492 21.889 13.5789C21.4778 13.4086 21.1264 13.1202 20.8792 12.7502C20.632 12.3801 20.5 11.9451 20.5 11.5001C20.5 10.9034 20.7371 10.3311 21.159 9.90913C21.581 9.48718 22.1533 9.25012 22.75 9.25012Z" fill="#1966A0"/>
</svg>
