<svg width="61" height="61" viewBox="0 0 61 61" fill="none" xmlns="http://www.w3.org/2000/svg">
<path d="M44.0561 13.0578C49.3606 17.1827 52.4443 23.3575 52.5611 30.0488H49.374C49.0132 30.0488 48.6881 30.2661 48.55 30.5994C48.412 30.9327 48.4883 31.3163 48.7434 31.5714L52.4454 35.2735C52.6126 35.4407 52.8394 35.5347 53.076 35.5347C53.3125 35.5347 53.5394 35.4407 53.7066 35.2735L57.4086 31.5714C57.6636 31.3163 57.74 30.9327 57.6019 30.5994C57.4639 30.2661 57.1386 30.0488 56.778 30.0488H54.3448C54.2278 22.803 50.8933 16.1151 45.151 11.6498C44.7623 11.3474 44.2018 11.4176 43.8996 11.8063C43.5972 12.1952 43.6672 12.7556 44.0561 13.0578ZM54.6249 31.8326L53.076 33.3815L51.5271 31.8326H54.6249ZM22.8829 11.5908V9.45873C22.8829 5.22685 26.3258 1.78399 30.5576 1.78399C34.7895 1.78399 38.2324 5.22685 38.2324 9.45873V11.5908C37.3253 11.4874 36.4851 12.1435 36.4853 13.0772V17.2097C36.4853 17.3224 36.4989 17.4319 36.5228 17.5375C36.2385 18.2399 35.6922 19.2275 34.6801 20.0623C34.283 20.3897 33.8505 20.6649 33.3877 20.8855C32.9663 20.1134 32.1467 19.5883 31.2068 19.5883H29.2762C27.9071 19.5883 26.7932 20.7021 26.7932 22.0712C26.7932 23.4403 27.9071 24.5542 29.2762 24.5542H31.2068C32.3461 24.5542 33.3061 23.782 33.5973 22.7341C34.4036 22.4214 35.1484 21.9883 35.8152 21.4384C36.8916 20.5505 37.5564 19.5301 37.9595 18.6957C37.9635 18.6957 37.9675 18.6963 37.9716 18.6963H39.7119C40.8429 18.6963 41.7631 17.7761 41.7631 16.6451V13.6421C41.7631 12.6146 41.003 11.7637 40.016 11.616V9.45885C40.016 4.24342 35.7729 0.000366211 30.5575 0.000366211C25.3421 0.000366211 21.099 4.24342 21.099 9.45885V11.616C20.112 11.7637 19.3519 12.6146 19.3519 13.6421V16.6451C19.3519 17.7761 20.2721 18.6963 21.4031 18.6963H23.1434C23.9631 18.6963 24.6299 18.0295 24.6299 17.2098V13.0772C24.6282 12.1204 23.7865 11.5027 22.8829 11.5908ZM31.2068 22.7705H29.2762C28.8907 22.7705 28.577 22.4568 28.577 22.0712C28.577 21.6856 28.8907 21.372 29.2762 21.372H31.2068C31.5914 21.372 31.9044 21.6842 31.9059 22.0685V22.0736C31.9046 22.4581 31.5916 22.7705 31.2068 22.7705ZM38.2689 13.3745H39.7119C39.8594 13.3745 39.9794 13.4945 39.9794 13.642V16.645C39.9794 16.7924 39.8594 16.9124 39.7119 16.9124H38.2689V13.3745ZM22.8463 16.9124H21.4032C21.2558 16.9124 21.1358 16.7924 21.1358 16.645V13.642C21.1358 13.4945 21.2558 13.3745 21.4032 13.3745H22.8463V16.9124ZM58.4311 51.1914C57.7802 50.5397 57.0267 49.9944 56.2091 49.5767C56.9061 48.7045 57.3244 47.6003 57.3244 46.3996V41.2676C57.3244 39.4162 55.8181 37.91 53.9667 37.91H50.4859C48.6345 37.91 47.1281 39.4162 47.1281 41.2676V46.3996C47.1281 49.2108 49.4151 51.4978 52.2262 51.4978C53.1234 51.4978 53.9668 51.2639 54.6999 50.8553C55.6217 51.2049 56.4692 51.7514 57.1693 52.4524C58.4893 53.7724 59.2162 55.5274 59.2162 57.3942C59.2162 57.8508 59.0387 58.2797 58.7164 58.6019C58.3941 58.9243 57.9656 59.1017 57.5098 59.1017H46.9429C46.0019 59.1017 45.2364 58.3358 45.2364 57.3942C45.2364 55.5275 45.9634 53.7724 47.2833 52.4524C47.6316 52.104 47.6316 51.5394 47.2833 51.1911C46.935 50.8429 46.3703 50.8429 46.0221 51.1911C44.3651 52.8481 43.4527 55.051 43.4527 57.3942C43.4527 59.3193 45.0184 60.8855 46.9429 60.8855H57.5098C58.4421 60.8855 59.3185 60.5224 59.9776 59.8633C60.6368 59.204 61 58.3271 61 57.3941C61.0001 55.0509 60.0875 52.8479 58.4311 51.1914ZM55.5405 46.3996C55.5405 48.2272 54.0537 49.714 52.2262 49.714C50.3987 49.714 48.9119 48.2272 48.9119 46.3996V45.0502L51.8634 44.078C52.9238 43.7284 54.0633 43.8858 54.9897 44.5092L55.5405 44.8798V46.3996ZM55.5405 42.7617C54.2433 42.057 52.7274 41.9154 51.3053 42.3838L48.9119 43.1723V41.2676C48.9119 40.3998 49.618 39.6938 50.4859 39.6938H53.9667C54.8345 39.6938 55.5406 40.3999 55.5406 41.2676V42.7617H55.5405ZM44.6886 48.3653C44.3965 47.9687 43.8382 47.884 43.4416 48.1761C39.6438 50.9732 35.1353 52.4518 30.4034 52.4518C30.3692 52.4518 30.3347 52.4509 30.3004 52.4508V49.1612C30.3004 48.8005 30.0832 48.4752 29.7498 48.3372C29.4167 48.1992 29.033 48.2754 28.7779 48.5304L25.076 52.2324C24.9086 52.3997 24.8147 52.6265 24.8147 52.8632C24.8147 53.0998 24.9086 53.3265 25.076 53.4939L28.7779 57.196C29.0342 57.4523 29.4195 57.526 29.7498 57.3892C30.0832 57.2513 30.3004 56.9259 30.3004 56.5653V54.2346C30.3347 54.2347 30.3692 54.2357 30.4034 54.2357C35.5186 54.2357 40.393 52.637 44.4994 49.6125C44.896 49.3203 44.9808 48.762 44.6886 48.3653ZM28.5168 54.4121L26.9679 52.8632L28.5168 51.3144V54.4121ZM23.0641 46.2615C23.1775 45.8387 23.1193 45.397 22.9004 45.0179L20.7875 41.3583C20.5686 40.9791 20.2151 40.7079 19.7923 40.5946C19.3693 40.4815 18.9276 40.5394 18.5486 40.7584L17.8759 41.1468C17.0961 40.5288 16.2345 40.0307 15.3123 39.6648V38.8899C15.3123 37.9861 14.5771 37.2509 13.6733 37.2509H9.4475C8.54374 37.2509 7.8086 37.9863 7.8086 38.8899V39.6649C6.8864 40.0307 6.02485 40.5287 5.24488 41.1468L4.57229 40.7584C4.19319 40.5395 3.75165 40.4816 3.32855 40.5946C2.90568 40.7079 2.55226 40.979 2.33334 41.3583L0.220312 45.0179C0.00138754 45.397 -0.0567625 45.8387 0.0565647 46.2617C0.169892 46.6846 0.44114 47.0379 0.820245 47.2567L1.49224 47.6448C1.42089 48.133 1.38474 48.6306 1.38474 49.1253C1.38474 49.62 1.42089 50.1175 1.49224 50.6058L0.820126 50.9938C0.0375381 51.4458 -0.23145 52.4501 0.220312 53.2326L2.33322 56.8923C2.78498 57.6749 3.78923 57.944 4.57205 57.4922L5.24476 57.1038C6.02497 57.722 6.8864 58.2201 7.80848 58.5858V59.3608C7.80848 60.2645 8.54374 60.9997 9.44738 60.9997H13.6732C14.577 60.9997 15.3122 60.2644 15.3122 59.3608V58.5858C16.2343 58.2201 17.0958 57.722 17.8758 57.1038L18.5486 57.4923C19.3312 57.944 20.3355 57.6748 20.7874 56.8923L22.9003 53.2326C23.352 52.4501 23.083 51.4458 22.3004 50.9938L21.6285 50.6058C21.6998 50.1174 21.736 49.6198 21.736 49.1253C21.736 48.6308 21.6998 48.1332 21.6285 47.6448L22.3004 47.2569C22.6797 47.0379 22.9508 46.6845 23.0641 46.2615ZM19.851 47.8199C19.9182 48.2496 19.9523 48.6889 19.9523 49.1254C19.9523 49.562 19.9182 50.0012 19.851 50.4309C19.7472 51.0939 20.0686 51.7652 20.6506 52.101L21.2834 52.4663L19.3152 55.8752L18.6817 55.5095C18.0991 55.1731 17.3564 55.2307 16.8339 55.6534C16.1512 56.2057 15.3913 56.6448 14.5754 56.959C13.9492 57.2 13.5285 57.814 13.5285 58.4867V59.2163H9.59222V58.4867C9.59222 57.8141 9.1715 57.2002 8.54528 56.959C7.72952 56.6448 6.96964 56.2057 6.28694 55.6534C5.76454 55.231 5.02215 55.1731 4.4391 55.5095L3.80564 55.8753L1.83745 52.4663L2.46997 52.1012C3.05218 51.7653 3.37361 51.0939 3.2698 50.4309C3.20261 50.0013 3.16848 49.562 3.16848 49.1254C3.16848 48.6887 3.20261 48.2496 3.2698 47.8199C3.37361 47.1571 3.05218 46.4858 2.47021 46.1497L1.83745 45.7844L3.80552 42.3756L4.4391 42.7414C5.02215 43.0779 5.76466 43.02 6.28694 42.5975C6.9694 42.0454 7.72928 41.6062 8.54564 41.2919C9.17161 41.0506 9.59222 40.4368 9.59222 39.7643V39.0346H13.5285V39.7642C13.5285 40.4368 13.9492 41.0507 14.5753 41.2919C15.3914 41.6062 16.1513 42.0455 16.8339 42.5975C17.3563 43.0202 18.0988 43.0779 18.6816 42.7414L19.3152 42.3756L21.2832 45.7844L20.6504 46.1497C20.0685 46.4858 19.7472 47.157 19.851 47.8199ZM7.1014 34.4529C7.18429 34.9413 7.65305 35.2639 8.12991 35.1829C8.61544 35.1005 8.94234 34.64 8.85994 34.1543C8.65326 32.9371 8.54849 31.6883 8.54849 30.4429C8.54849 25.1854 10.405 20.1589 13.7956 16.1799L15.5448 18.1559C15.7851 18.4276 16.1658 18.5243 16.5033 18.408C16.8443 18.2904 17.081 17.9791 17.1029 17.619L17.421 12.3932C17.4508 11.9016 17.0766 11.4788 16.5849 11.4488L11.3591 11.1306C10.9975 11.1082 10.6612 11.3059 10.5032 11.6301C10.3452 11.9544 10.398 12.342 10.6371 12.612L12.6031 14.8328C8.83294 19.1641 6.76475 24.6747 6.76475 30.4429C6.76475 31.788 6.87808 33.1372 7.1014 34.4529ZM15.5863 13.175L15.4532 15.3614L13.4 13.042L15.5863 13.175ZM11.5604 42.2343C11.0679 42.2343 10.6685 42.6335 10.6685 43.1262C10.6685 43.6189 11.0679 44.0181 11.5604 44.0181C14.3766 44.0181 16.6676 46.3092 16.6676 49.1253C16.6676 51.9413 14.3765 54.2325 11.5604 54.2325C8.74435 54.2325 6.45319 51.9413 6.45319 49.1253C6.45319 47.5471 7.16609 46.0821 8.40901 45.106C8.79632 44.8017 8.86386 44.2413 8.55955 43.8538C8.25537 43.4663 7.69467 43.399 7.30725 43.7032C5.63088 45.0196 4.66945 46.9958 4.66945 49.1253C4.66945 52.925 7.76079 56.0162 11.5604 56.0162C15.36 56.0162 18.4514 52.925 18.4514 49.1253C18.4514 45.3255 15.36 42.2343 11.5604 42.2343Z" fill="white"/>
</svg>
