<svg width="61" height="61" viewBox="0 0 61 61" fill="none" xmlns="http://www.w3.org/2000/svg">
<path d="M13.9362 11.2554C14.4297 11.2554 14.8298 10.8553 14.8298 10.3618C14.8298 9.86831 14.4297 9.46824 13.9362 9.46824C13.4427 9.46824 13.0427 9.86831 13.0427 10.3618C13.0427 10.8553 13.4426 11.2554 13.9362 11.2554ZM6.7878 11.2554C7.28128 11.2554 7.68135 10.8553 7.68135 10.3618C7.68135 9.86831 7.28128 9.46824 6.7878 9.46824C6.29432 9.46824 5.89424 9.86831 5.89424 10.3618C5.89424 10.8553 6.2942 11.2554 6.7878 11.2554ZM10.362 11.2554C10.8555 11.2554 11.2556 10.8553 11.2556 10.3618C11.2556 9.86831 10.8555 9.46824 10.362 9.46824C9.86853 9.46824 9.46846 9.86831 9.46846 10.3618C9.46846 10.8553 9.86841 11.2554 10.362 11.2554ZM10.166 20.7214C10.1715 20.7215 10.177 20.7215 10.1825 20.7215L18.2613 20.7236H18.2617C18.8199 20.7236 19.2937 20.362 19.4411 19.8237C19.5886 19.2852 19.3648 18.7325 18.8844 18.4483L17.6557 17.7213C19.6306 15.764 20.7413 13.0933 20.7237 10.2952C20.6883 4.6994 16.1083 0.0816315 10.5142 0.00109243C4.71737 -0.0821868 0 4.60683 0 10.362C0 15.881 4.54736 20.6019 10.166 20.7214ZM4.34267 4.25489C5.99039 2.63076 8.16828 1.75568 10.4885 1.78796C15.1175 1.85456 18.9073 5.67588 18.9366 10.3064C18.9524 12.8047 17.8811 15.1804 15.9972 16.8243C15.6822 17.0991 15.5172 17.5114 15.5554 17.9273C15.5935 18.343 15.8309 18.7181 16.1901 18.9305L16.1991 18.9357L10.1913 18.9343C5.54695 18.8452 1.78711 15.0191 1.78711 10.362C1.78711 8.0482 2.69472 5.87937 4.34267 4.25489ZM60.1064 59.2129H59.2129V45.9061C59.2129 42.4198 57.1528 39.254 53.9546 37.8363L49.2454 35.818C50.3913 35.4564 51.4266 34.8116 52.2689 33.9172C53.5397 32.5679 54.2685 30.7371 54.2685 28.8941C54.2685 27.2006 53.6769 25.6023 52.5573 24.2713C51.1569 22.6085 50.3857 20.4952 50.3857 18.3204V14.0385C50.3857 10.2882 48.9252 6.76304 46.2734 4.11251C43.6215 1.46045 40.096 2.01622e-05 36.3462 2.01622e-05C28.6054 2.01622e-05 22.3079 6.29755 22.3079 14.0384V18.1809C22.3084 20.4312 21.424 22.5792 19.9869 24.3107C18.1782 26.4897 17.8025 29.436 19.0064 31.9995C19.8999 33.9024 21.5117 35.2696 23.4411 35.8482L18.7649 37.8817C15.4841 39.2623 13.3641 42.4542 13.3641 46.0134V56.5323C13.3641 57.0258 13.7641 57.4259 14.2577 57.4259C14.7513 57.4259 15.1512 57.0258 15.1512 56.5323V46.0134C15.1512 43.1753 16.8417 40.6298 19.4678 39.5248L25.3293 36.9759V42.3545H22.6364C21.8774 42.3545 21.151 42.6781 20.6434 43.2423C20.1358 43.8066 19.8906 44.563 19.9707 45.3176L21.4436 59.2129H0.893554C0.399955 59.2129 0 59.613 0 60.1064C0 60.5999 0.399955 61 0.893554 61H60.1064C60.6 61 61 60.5999 61 60.1064C61 59.613 60.6 59.2129 60.1064 59.2129ZM51.1901 25.422C52.0349 26.4264 52.4814 27.6269 52.4814 28.894C52.4814 30.2864 51.9298 31.6706 50.968 32.6918C49.9496 33.773 48.5505 34.3685 47.0285 34.3685H45.864L44.3344 33.7129C42.9982 33.1398 42.0841 31.9113 41.8973 30.4973C44.6544 29.0128 46.5329 26.0993 46.5329 22.7547V16.0372C46.7944 16.0549 47.0556 16.0646 47.3162 16.0646C47.7459 16.0646 48.174 16.0402 48.5988 15.992V18.3203C48.5986 20.9156 49.5191 23.4378 51.1901 25.422ZM36.5634 39.5284C33.3667 39.585 30.1942 39.1799 27.1164 38.3262V36.1987L27.3748 36.0864C27.3768 36.0856 27.3789 36.0846 27.381 36.0838L28.9751 35.3906C30.7496 34.6192 32.0035 33.0391 32.3837 31.1927C33.1618 31.4189 33.9831 31.5426 34.8332 31.5426H37.7449C38.5983 31.5426 39.4227 31.418 40.2034 31.1901C40.5961 33.0281 41.8548 34.5939 43.6301 35.3555L45.3314 36.0846C45.3325 36.0851 45.3336 36.0856 45.3347 36.0859L45.4607 36.1399V38.1506C42.5688 39.0122 39.5791 39.4757 36.5634 39.5284ZM45.4605 40.0111V42.3546H27.1164V40.1767C30.0132 40.9362 32.9874 41.3206 35.9818 41.3206C36.186 41.3206 36.3903 41.3188 36.5946 41.3152C39.5958 41.2628 42.5724 40.8243 45.4605 40.0111ZM48.5986 14.1901C46.1373 14.5227 43.3629 13.8633 41.4514 12.3823C41.0614 12.0802 40.5002 12.1512 40.1978 12.5414C39.8955 12.9314 39.9668 13.4927 40.3568 13.795C41.6065 14.7631 43.1138 15.445 44.7457 15.7889V20.6535C44.3164 21.6321 43.8384 22.446 42.7607 23.335C42.3071 23.7094 41.8105 24.0202 41.2786 24.2668C40.8444 23.4194 39.9624 22.8377 38.9466 22.8377H36.8526C35.4082 22.8377 34.2333 24.0128 34.2333 25.457C34.2333 26.9012 35.4082 28.0763 36.8526 28.0763H38.9466C40.162 28.0763 41.1867 27.244 41.4808 26.1196C42.6762 25.6641 44.6252 24.0393 44.6256 24.0387C44.0205 27.2873 41.1664 29.755 37.745 29.755H34.8331C30.973 29.755 27.8324 26.6146 27.8324 22.7543V15.8473C30.8673 15.3715 33.7344 14.3445 36.3638 12.7893C40.3674 10.4211 42.9355 7.32657 44.4853 4.88169C47.137 7.24341 48.6455 10.6293 48.5986 14.1901ZM39.7785 25.4595C39.7772 25.9174 39.4046 26.2895 38.9465 26.2895H36.8524C36.3935 26.2895 36.0202 25.9161 36.0202 25.4573C36.0202 24.9985 36.3936 24.6251 36.8524 24.6251H38.9465C39.4044 24.6251 39.777 24.9969 39.7785 25.4545V25.4595ZM24.095 14.0384C24.095 7.28296 29.5908 1.78713 36.3462 1.78713C38.7689 1.78713 41.0841 2.48648 43.0624 3.78845C41.6362 6.07464 39.2356 9.01455 35.454 11.2515C32.8597 12.7861 30.014 13.7658 26.9957 14.1635H26.9399C26.9396 14.1635 26.9392 14.1635 26.9388 14.1635C26.9383 14.1635 26.938 14.1635 26.9376 14.1635H24.0949V14.0384H24.095ZM20.6238 31.2399C19.7178 29.31 20.0006 27.0922 21.361 25.4533C23.0679 23.3968 24.0969 20.8558 24.095 18.1809V15.9506H26.0453V22.7547C26.0453 26.1012 27.9262 29.0161 30.6857 30.4998C30.5131 31.9246 29.6018 33.1692 28.2624 33.7516L26.8437 34.3685H25.5485C23.4171 34.3685 21.5301 33.1697 20.6238 31.2399ZM51.7299 45.1294L50.2369 59.2129H23.2408L21.7478 45.1294C21.7208 44.8741 21.8003 44.6284 21.972 44.4377C22.1437 44.2468 22.3797 44.1417 22.6364 44.1417H50.8413C51.098 44.1417 51.334 44.2468 51.5057 44.4377C51.6773 44.6284 51.7569 44.8741 51.7299 45.1294ZM57.4258 59.2129H52.034L53.507 45.3179C53.587 44.5631 53.3417 43.8067 52.8343 43.2425C52.3267 42.6782 51.6004 42.3546 50.8413 42.3546H47.2476V36.906L53.2405 39.4745C55.7829 40.6016 57.4258 43.1261 57.4258 45.9061V59.2129ZM36.7388 48.2817C34.8665 48.2817 33.3433 49.805 33.3433 51.6772C33.3433 53.5495 34.8665 55.0728 36.7388 55.0728C38.6111 55.0728 40.1343 53.5495 40.1343 51.6772C40.1343 49.805 38.6111 48.2817 36.7388 48.2817ZM36.7388 53.2856C35.8519 53.2856 35.1304 52.5641 35.1304 51.6772C35.1304 50.7904 35.8519 50.0689 36.7388 50.0689C37.6257 50.0689 38.3472 50.7904 38.3472 51.6772C38.3472 52.5641 37.6258 53.2856 36.7388 53.2856Z" fill="white"/>
</svg>
