<svg width="61" height="61" viewBox="0 0 61 61" fill="none" xmlns="http://www.w3.org/2000/svg">
<path d="M14.5156 10.0995C14.0221 10.0995 13.6221 10.4996 13.6221 10.9931C13.6221 11.4866 14.0221 11.8866 14.5156 11.8866C15.0091 11.8866 15.4092 11.4866 15.4092 10.9931C15.4092 10.4996 15.0091 10.0995 14.5156 10.0995ZM10.9414 10.0995C10.4479 10.0995 10.0478 10.4996 10.0478 10.9931C10.0478 11.4866 10.4479 11.8866 10.9414 11.8866C11.4349 11.8866 11.835 11.4866 11.835 10.9931C11.835 10.4996 11.4349 10.0995 10.9414 10.0995ZM53.6328 11.8866C54.1263 11.8866 54.5264 11.4866 54.5264 10.9931C54.5264 10.4996 54.1263 10.0995 53.6328 10.0995C53.1393 10.0995 52.7393 10.4996 52.7393 10.9931C52.7393 11.4866 53.1393 11.8866 53.6328 11.8866ZM46.4844 10.0995C45.9909 10.0995 45.5908 10.4996 45.5908 10.9931C45.5908 11.4866 45.9909 11.8866 46.4844 11.8866C46.9779 11.8866 47.3779 11.4866 47.3779 10.9931C47.3779 10.4996 46.9779 10.0995 46.4844 10.0995ZM7.36718 10.0995C6.8737 10.0995 6.47362 10.4996 6.47362 10.9931C6.47362 11.4866 6.8737 11.8866 7.36718 11.8866C7.86066 11.8866 8.26073 11.4866 8.26073 10.9931C8.26073 10.4996 7.86066 10.0995 7.36718 10.0995ZM50.9522 10.9931C50.9522 10.4996 50.5521 10.0995 50.0586 10.0995C49.5651 10.0995 49.165 10.4996 49.165 10.9931C49.165 11.4866 49.5651 11.8866 50.0586 11.8866C50.5521 11.8866 50.9522 11.4866 50.9522 10.9931ZM7.36718 49.217C6.8737 49.217 6.47362 49.617 6.47362 50.1105C6.47362 50.604 6.8737 51.0041 7.36718 51.0041C7.86066 51.0041 8.26073 50.604 8.26073 50.1105C8.26073 49.617 7.86066 49.217 7.36718 49.217ZM50.0586 49.217C49.5651 49.217 49.165 49.617 49.165 50.1105C49.165 50.604 49.5651 51.0041 50.0586 51.0041C50.5521 51.0041 50.9522 50.604 50.9522 50.1105C50.9522 49.617 50.5521 49.217 50.0586 49.217ZM53.6328 49.217C53.1393 49.217 52.7393 49.617 52.7393 50.1105C52.7393 50.604 53.1393 51.0041 53.6328 51.0041C54.1263 51.0041 54.5264 50.604 54.5264 50.1105C54.5264 49.617 54.1263 49.217 53.6328 49.217ZM52.636 39.477C53.0065 37.8368 53.1963 36.1518 53.1963 34.4536C53.1963 29.9358 51.9002 25.6426 49.4332 21.9324L50.2492 21.9322C50.2547 21.9322 50.2602 21.9322 50.2655 21.9321C53.1447 21.8786 55.8429 20.717 57.8631 18.6613C59.8859 16.6029 61 13.8797 61 10.9933C61 8.041 59.842 5.27349 57.7391 3.2008C55.6368 1.12835 52.8541 0.0109262 49.8978 0.0529828C43.9908 0.13793 39.1547 5.01412 39.1173 10.9227C39.0985 13.9009 40.2905 16.7427 42.4075 18.8138L41.0424 19.6215C40.554 19.9104 40.3267 20.4723 40.4765 21.0195C40.6264 21.5668 41.1083 21.9345 41.6758 21.9343L47.247 21.933C48.5895 23.723 49.6189 25.6799 50.3184 27.7512C49.6754 27.5858 49.026 27.4457 48.3749 27.3342C44.983 26.753 42.4836 27.091 40.6586 27.3379C38.7004 27.6026 37.7175 27.7002 36.7756 27.0313C35.99 26.4734 35.8794 25.8343 35.7377 24.6592C35.5805 23.3578 35.385 21.738 33.7494 20.0492C32.4662 18.7239 31.0376 18.1128 29.7773 17.5737C28.2848 16.9353 27.4215 16.5235 27.0359 15.4825C26.8575 15.0011 26.8133 14.4565 26.9004 13.859C28.0856 13.6524 29.2902 13.5446 30.5001 13.5446C32.5044 13.5446 34.4864 13.8275 36.391 14.3857C36.8647 14.5249 37.3611 14.2531 37.4999 13.7795C37.6387 13.3059 37.3673 12.8095 36.8937 12.6707C34.8258 12.0647 32.6747 11.7574 30.5001 11.7574C27.4512 11.7574 24.3666 12.3919 21.5712 13.5846C21.7816 12.7217 21.8885 11.8286 21.8828 10.9225C21.8454 5.014 17.0093 0.137811 11.1024 0.0528637C8.14862 0.00925819 5.36335 1.12835 3.26088 3.20068C1.15805 5.27349 0 8.04088 0 10.9933C0 13.8797 1.11408 16.6029 3.13697 18.6614C5.39147 20.9555 8.37142 21.9646 11.5668 21.9326C9.09984 25.6426 7.80371 29.9359 7.80371 34.4536C7.80371 36.1518 7.99362 37.8368 8.36403 39.477C6.39464 39.9508 4.59001 40.9637 3.13697 42.4423C1.11408 44.5007 0 47.224 0 50.1104C0 53.0627 1.15805 55.8302 3.26088 57.9029C8.3869 62.9558 17.5666 61.4852 20.7411 54.9462C23.7707 56.3886 27.1237 57.1499 30.5 57.1499C33.8644 57.1499 37.2292 56.3911 40.2604 54.9488C43.3332 61.2391 52.4001 63.1658 57.7392 57.9029C59.842 55.8302 61 53.0627 61 50.1104C61 47.224 59.8859 44.5008 57.863 42.4423C56.41 40.9638 54.6054 39.9509 52.636 39.477ZM43.6642 20.1468C44.1059 19.9085 44.4452 19.5357 44.4928 19.0167C44.5318 18.5928 44.3634 18.1725 44.0425 17.8924C42.0314 16.1372 40.8875 13.6009 40.9044 10.9339C40.9358 5.99047 44.9817 1.91098 49.9235 1.83973C49.9689 1.83914 50.014 1.83878 50.0594 1.83878C52.4809 1.83878 54.7581 2.7713 56.4847 4.47334C58.2439 6.20767 59.2129 8.52317 59.2129 10.9933C59.2129 13.4083 58.2809 15.6866 56.5883 17.4088C54.8999 19.1268 52.6457 20.0985 50.2403 20.1452L43.6642 20.1468ZM10.7597 20.1452C8.35426 20.0984 6.10012 19.1268 4.41166 17.4088C2.71915 15.6866 1.78711 13.4082 1.78711 10.9933C1.78711 8.52317 2.75608 6.20779 4.51543 4.47346C6.2743 2.7396 8.60445 1.80459 11.0765 1.83985C16.0183 1.91098 20.0642 5.99059 20.0956 10.934C20.1125 13.6011 18.9686 16.1373 16.9575 17.8925C16.6366 18.1726 16.4682 18.5929 16.5072 19.0168C16.5495 19.4776 16.889 19.9627 17.3358 20.1469L10.7597 20.1452ZM11.0765 59.2637C8.60303 59.2967 6.2743 58.364 4.51543 56.6301C2.75608 54.8959 1.78711 52.5805 1.78711 50.1104C1.78711 47.6954 2.71915 45.4171 4.41166 43.6949C6.10012 41.9769 8.35426 41.0052 10.7597 40.9585L17.3358 40.9568C16.8822 41.1598 16.5526 41.5925 16.5072 42.0869C16.4682 42.5108 16.6366 42.9311 16.9575 43.2112C17.5246 43.7062 18.0228 44.2633 18.4455 44.868C18.4563 44.8848 18.4672 44.9014 18.4792 44.9175C19.5333 46.4469 20.1076 48.2751 20.0957 50.1697C20.0642 55.1131 16.0183 59.1926 11.0765 59.2637ZM21.1945 46.2926C22.9026 47.1058 24.3913 47.9686 24.4604 49.0045C24.4964 49.5417 24.1384 50.6098 21.6822 52.1833C21.809 51.5335 21.8783 50.8643 21.8827 50.1809C21.8911 48.8376 21.6525 47.5223 21.1945 46.2926ZM39.5942 53.2861C37.8161 54.1442 35.9142 54.7447 33.9613 55.0719C33.7438 54.6355 33.5461 54.1882 33.3731 53.7343C31.7385 49.429 32.3567 48.3639 32.5854 48.1397C32.7264 48.0012 32.9201 48.0121 33.7372 48.2041C34.6028 48.4076 35.7883 48.6863 37.2886 48.3132C37.7676 48.194 38.0592 47.7093 37.9402 47.2304C37.8212 46.7513 37.3362 46.46 36.8575 46.5788C35.7766 46.8475 34.9102 46.644 34.1461 46.4644C33.2365 46.2506 32.2056 46.0083 31.334 46.8639C29.7134 48.4525 30.7681 51.9079 31.7036 54.3717C31.8226 54.6841 31.9536 54.9935 32.0921 55.2997C31.5629 55.3402 31.032 55.3629 30.5001 55.3629C27.7543 55.3629 25.0252 54.818 22.5039 53.7771C25.1258 52.1222 26.3528 50.5137 26.2437 48.8854C26.0882 46.554 23.5057 45.3754 20.7716 44.1276C20.4474 43.9796 20.1155 43.8273 19.7879 43.6737C19.4309 43.1832 19.032 42.7197 18.5927 42.2899L19.9578 41.4822C20.4462 41.1933 20.6735 40.6314 20.5238 40.0842C20.3739 39.5369 19.892 39.1692 19.3245 39.1693C18.5398 39.1695 10.7783 39.0737 10.1328 39.2004C9.77382 37.6527 9.59106 36.0597 9.59106 34.4538C9.59106 30.7181 10.5531 27.1495 12.393 23.9864C16.726 25.5673 19.1433 27.4236 19.3942 29.3748C19.6114 31.0574 18.1821 32.5597 16.6687 34.1502C16.0061 34.8466 15.3209 35.5668 14.7706 36.319C14.4793 36.7173 14.5659 37.2764 14.9642 37.5677C15.1232 37.6841 15.3079 37.7401 15.491 37.7401C15.7664 37.7401 16.0379 37.6134 16.2129 37.3741C16.6952 36.7149 17.3113 36.0675 17.9634 35.382C19.6177 33.6434 21.4926 31.6728 21.1666 29.1464C20.8245 26.4861 18.2737 24.2887 13.3814 22.4461C13.503 22.2735 13.628 22.1028 13.7549 21.933L19.3246 21.9343H19.3248C19.8922 21.9343 20.374 21.5667 20.5238 21.0195C20.6735 20.4723 20.4462 19.9104 19.9578 19.6215L18.5927 18.8138C19.4402 17.9847 20.1388 17.0318 20.6715 15.9965C22.067 15.2525 23.5449 14.6713 25.0718 14.2622C25.0513 14.912 25.1469 15.528 25.3602 16.1034C26.0315 17.915 27.5786 18.5767 29.0745 19.2166C30.2338 19.7125 31.4326 20.2253 32.4657 21.2922C33.6828 22.5491 33.8191 23.6781 33.9634 24.8733C34.109 26.0795 34.274 27.4465 35.7409 28.4883C37.2997 29.5953 38.9673 29.3699 40.8982 29.1088C42.7038 28.8646 44.9512 28.5606 48.0732 29.0955C49.0208 29.2579 49.965 29.4838 50.8871 29.7676C51.2327 31.2866 51.4094 32.8549 51.4094 34.4538C51.4094 36.0597 51.2267 37.6527 50.8677 39.2004C50.6679 39.1859 50.4674 39.1753 50.2657 39.1716C50.2603 39.1715 50.2548 39.1715 50.2493 39.1715L41.6759 39.1693C41.6757 39.1693 41.6757 39.1693 41.6756 39.1693C41.1083 39.1693 40.6265 39.537 40.4767 40.0842C40.327 40.6314 40.5543 41.1933 41.0426 41.4822L42.4077 42.2899C40.2909 44.3611 39.0989 47.2029 39.1176 50.181C39.1241 51.2579 39.291 52.3004 39.5942 53.2861ZM56.4846 56.6301C54.7256 58.364 52.3947 59.2984 49.9235 59.2637C44.9817 59.1926 40.9358 55.113 40.9044 50.1696C40.8875 47.5025 42.0314 44.9663 44.0425 43.2111C44.3634 42.931 44.5318 42.5106 44.4928 42.0867C44.4464 41.5806 44.1156 41.174 43.6642 40.9567L50.2403 40.9584C52.6457 41.0052 54.8999 41.9768 56.5883 43.6948C58.2809 45.4171 59.2129 47.6954 59.2129 50.1104C59.2129 52.5805 58.2439 54.8959 56.4846 56.6301ZM46.4844 49.217C45.9909 49.217 45.5908 49.617 45.5908 50.1105C45.5908 50.604 45.9909 51.0041 46.4844 51.0041C46.9779 51.0041 47.3779 50.604 47.3779 50.1105C47.3779 49.617 46.9779 49.217 46.4844 49.217ZM14.5156 49.217C14.0221 49.217 13.6221 49.617 13.6221 50.1105C13.6221 50.604 14.0221 51.0041 14.5156 51.0041C15.0091 51.0041 15.4092 50.604 15.4092 50.1105C15.4092 49.617 15.0091 49.217 14.5156 49.217ZM38.7136 32.3251C37.6582 31.5467 36.33 32.2144 35.0457 32.8601C33.9355 33.4183 32.6773 34.0507 31.9415 33.6058C31.4789 33.326 31.3422 32.7402 31.1721 31.8088C30.9953 30.8408 30.7752 29.6362 29.6387 29.1015C28.876 28.7428 27.9098 28.7927 26.8444 29.2464C25.3274 29.8922 23.4728 31.5021 22.7493 33.6422C22.0447 35.7265 22.4379 38.2414 23.8011 40.3692C24.8519 42.0094 26.2824 43.0736 27.6276 43.2157C28.3669 43.2939 28.9133 43.0818 29.3952 42.8946C29.8751 42.7083 30.3286 42.5322 31.1176 42.5602C31.9664 42.5902 32.4633 42.8348 32.944 43.0713C36.1406 44.6441 38.3832 40.945 39.2755 37.685C39.6141 36.4477 40.2372 33.4487 38.7136 32.3251ZM37.5518 37.2131C36.8974 39.6041 35.5537 41.6316 34.5567 41.7328C34.33 41.756 34.1405 41.6682 33.733 41.4677C33.1755 41.1934 32.4121 40.8177 31.1809 40.7742C30.1645 40.7382 29.2726 41.0251 28.7485 41.2286C28.3268 41.3924 28.111 41.4697 27.8156 41.4384C27.0292 41.3552 26.0441 40.5571 25.3061 39.405C24.2328 37.7299 23.9101 35.7894 24.4424 34.2144C24.9858 32.6068 26.4315 31.3646 27.5446 30.8905C28.2021 30.6105 28.6646 30.618 28.878 30.7186C29.1612 30.8518 29.2742 31.364 29.4142 32.1299C29.6004 33.1495 29.8321 34.4184 31.0165 35.1349C32.5974 36.0914 34.3999 35.185 35.8485 34.4569C36.3902 34.1845 37.3986 33.6782 37.653 33.7633C37.8898 33.9381 38.1121 35.1661 37.5518 37.2131ZM10.9414 49.217C10.4479 49.217 10.0478 49.617 10.0478 50.1105C10.0478 50.604 10.4479 51.0041 10.9414 51.0041C11.4349 51.0041 11.835 50.604 11.835 50.1105C11.835 49.617 11.4349 49.217 10.9414 49.217Z" fill="white"/>
</svg>
