<svg width="121" height="121" viewBox="0 0 121 121" fill="none" xmlns="http://www.w3.org/2000/svg">
<g clip-path="url(#clip0_145_13)">
<path d="M119.865 30.8404C119.426 30.3398 118.751 30.1135 118.098 30.2476L79.4037 38.195C78.3999 38.4011 27.0105 49.9041 27.2167 50.9079C27.4227 51.9114 79.1462 42.0358 80.1502 41.8299L107.913 36.1279L49.6014 65.9241L30.4805 52.0311L64.0463 45.1373C65.0502 44.931 84.5794 39.7796 84.3733 38.7758C84.1672 37.7722 64.3038 41.2959 63.2999 41.5022L25.6137 49.2422C24.8937 49.3902 24.3287 49.9491 24.1734 50.6678C24.0181 51.3865 24.3016 52.1289 24.8962 52.561L47.7313 69.1525L51.9379 93.5221C51.9423 93.5473 51.9483 93.5694 51.9552 93.5897C52.0353 93.9677 52.2288 94.3206 52.5292 94.5892C52.7172 94.7573 52.9328 94.8819 53.1623 94.9609C53.6119 95.1156 54.1141 95.095 54.5608 94.8831L71.8624 86.6855L93.6516 102.517C93.8023 102.627 93.9664 102.711 94.1383 102.771C94.5096 102.898 94.9168 102.907 95.3003 102.786C95.8614 102.609 96.3053 102.176 96.4968 101.62L120.226 32.669C120.443 32.039 120.305 31.3409 119.865 30.8404ZM58.7145 74.1417C58.4104 74.3653 58.1815 74.6762 58.0586 75.0333L54.3651 85.7656L51.4927 69.125L97.6647 45.532L58.7145 74.1417ZM56.9555 89.6424L60.7514 78.6126L68.4416 84.2002L56.9555 89.6424ZM93.8039 98.0409L62.9584 75.6291L114.561 37.7256L93.8039 98.0409Z" fill="#1966A0"/>
<path d="M38.8608 70.9093C38.4113 69.9884 37.3007 69.6062 36.3795 70.0554L14.3645 80.7972C13.4436 81.2466 13.0613 82.3575 13.5105 83.2786C13.7355 83.739 14.1255 84.0648 14.5745 84.2193C15.0235 84.3738 15.5314 84.3571 15.992 84.1324L38.0069 73.3905C38.9278 72.9414 39.3101 71.8304 38.8608 70.9093Z" fill="#1966A0"/>
<path d="M43.7258 86.7821C43.2768 85.8613 42.1662 85.4791 41.2446 85.9282L29.5839 91.6177C28.663 92.067 28.2807 93.1779 28.7301 94.0988C28.9548 94.5594 29.3448 94.8852 29.7938 95.0397C30.2428 95.1942 30.7507 95.1773 31.2112 94.9527L42.8719 89.2632C43.7928 88.8139 44.1751 87.703 43.7258 86.7821Z" fill="#1966A0"/>
<path d="M73.8958 96.4201C73.4463 95.4994 72.3357 95.1172 71.4147 95.5663L59.7223 101.271C58.8014 101.721 58.4191 102.832 58.8684 103.753C59.0932 104.213 59.4832 104.539 59.9321 104.694C60.3811 104.848 60.8891 104.831 61.3496 104.607L73.0419 98.9015C73.9628 98.4522 74.3451 97.3412 73.8958 96.4201Z" fill="#1966A0"/>
</g>
<defs>
<clipPath id="clip0_145_13">
<rect width="95" height="95" fill="white" transform="translate(31) rotate(18.9907)"/>
</clipPath>
</defs>
</svg>
