<svg width="25" height="25" viewBox="0 0 25 25" fill="none" xmlns="http://www.w3.org/2000/svg">
<g clip-path="url(#clip0_56_669)">
<path d="M24.9828 20.5761C24.9034 19.9753 24.5566 19.4574 24.0315 19.155L17.8639 15.604C17.1085 15.1691 16.1502 15.2957 15.5336 15.9122L14.3188 17.127C13.9955 17.4503 13.4841 17.4789 13.1294 17.1935C12.1717 16.4229 11.2287 15.5748 10.3268 14.6727C9.42477 13.7708 8.57668 12.8279 7.80602 11.8701C7.52055 11.5153 7.54911 11.004 7.87248 10.6806L9.08725 9.46582C9.70376 8.84936 9.83054 7.89118 9.39551 7.13563L5.84444 0.968038C5.54208 0.442886 5.02416 0.0961329 4.42341 0.0166528C3.82262 -0.0629893 3.23229 0.137385 2.80379 0.565886L0.973319 2.39641C-0.304247 3.67403 -0.324766 6.01103 0.915545 8.97701C2.10818 11.8289 4.33384 14.9684 7.18243 17.8171C10.0311 20.6657 13.1706 22.8914 16.0225 24.084C17.4825 24.6945 18.7899 24.9996 19.8938 24.9995C21.0324 24.9995 21.9544 24.6749 22.6031 24.0262L24.4336 22.1956C24.8621 21.7671 25.0623 21.1768 24.9828 20.5761ZM17.4598 16.3059L23.6274 19.8569C23.9324 20.0325 24.1338 20.3334 24.1799 20.6823C24.2187 20.9751 24.1426 21.2634 23.9701 21.4958L15.7735 16.8178L16.1063 16.4849C16.4644 16.1269 17.0211 16.0533 17.4598 16.3059ZM4.31715 0.819607C4.66612 0.865772 4.96692 1.06717 5.14251 1.37219L8.69358 7.53978C8.94627 7.97859 8.87263 8.53517 8.51459 8.89315L8.20882 9.19893L3.50513 1.02938C3.6974 0.886992 3.92737 0.809672 4.1671 0.809672C4.21683 0.809672 4.26699 0.812966 4.31715 0.819607ZM22.0304 23.4535C21.0154 24.4684 18.9395 24.4259 16.335 23.3367C13.578 22.1838 10.5311 20.0202 7.75521 17.2443C4.97934 14.4685 2.81567 11.4215 1.66278 8.66454C0.573543 6.06 0.531049 3.98412 1.54604 2.96908L2.90492 1.61014L7.61568 9.79206L7.29976 10.108C6.68341 10.7244 6.62974 11.7002 7.17498 12.3779C7.96379 13.3582 8.83154 14.323 9.75398 15.2455C10.6765 16.168 11.6413 17.0357 12.6216 17.8245C13.2992 18.3698 14.275 18.3161 14.8915 17.6997L15.1797 17.4115L23.3878 22.096L22.0304 23.4535Z" fill="white"/>
</g>
<defs>
<clipPath id="clip0_56_669">
<rect width="25" height="25" fill="white"/>
</clipPath>
</defs>
</svg>
