<svg width="25" height="25" viewBox="0 0 25 25" fill="none" xmlns="http://www.w3.org/2000/svg">
<path d="M24.9829 20.5765C24.9034 19.9758 24.5566 19.4578 24.0315 19.1555L17.8639 15.6045C17.1085 15.1695 16.1502 15.2961 15.5336 15.9127L14.3188 17.1275C13.9955 17.4508 13.4841 17.4794 13.1294 17.1939C12.1717 16.4233 11.2287 15.5752 10.3268 14.6732C9.42478 13.7712 8.57669 12.8283 7.80602 11.8706C7.52055 11.5158 7.54912 11.0044 7.87249 10.6811L9.08726 9.4663C9.70378 8.84984 9.83055 7.89166 9.39552 7.13611L5.84445 0.968526C5.54208 0.443374 5.02416 0.0966211 4.42342 0.0171411C3.82262 -0.0625009 3.2323 0.137873 2.80379 0.566374L0.97332 2.3969C-0.304248 3.67452 -0.324766 6.01151 0.915546 8.97749C2.10818 11.8294 4.33384 14.9688 7.18244 17.8175C10.0311 20.6662 13.1706 22.8918 16.0226 24.0845C17.4825 24.695 18.7899 25.0001 19.8938 25C21.0325 25 21.9544 24.6753 22.6032 24.0266L24.4336 22.1961C24.8621 21.7676 25.0623 21.1773 24.9829 20.5765ZM17.4598 16.3063L23.6274 19.8574C23.9324 20.033 24.1338 20.3338 24.1799 20.6828C24.2187 20.9756 24.1426 21.2639 23.9701 21.4962L15.7735 16.8183L16.1064 16.4854C16.4644 16.1273 17.0211 16.0537 17.4598 16.3063ZM4.31716 0.820094C4.66613 0.86626 4.96693 1.06766 5.14252 1.37268L8.69359 7.54026C8.94628 7.97907 8.87263 8.53565 8.5146 8.89363L8.20883 9.19941L3.50513 1.02986C3.69741 0.88748 3.92737 0.810159 4.16711 0.810159C4.21684 0.810159 4.267 0.813453 4.31716 0.820094ZM22.0304 23.4539C21.0154 24.4689 18.9395 24.4264 16.335 23.3372C13.5781 22.1843 10.5311 20.0206 7.75522 17.2448C4.97935 14.469 2.81567 11.4219 1.66278 8.66502C0.573544 6.06048 0.53105 3.98461 1.54604 2.96956L2.90493 1.61063L7.61569 9.79253L7.29977 10.1085C6.68342 10.7249 6.62975 11.7006 7.17499 12.3784C7.9638 13.3587 8.83154 14.3235 9.75399 15.2459C10.6765 16.1684 11.6413 17.0362 12.6216 17.825C13.2992 18.3702 14.275 18.3166 14.8915 17.7001L15.1798 17.4119L23.3878 22.0964L22.0304 23.4539Z" fill="#A30234"/>
</svg>
