<svg width="72" height="72" viewBox="0 0 72 72" fill="none" xmlns="http://www.w3.org/2000/svg">
<path d="M59.3388 52.3284H15.1794C15.0472 52.3286 14.9163 52.3019 14.7948 52.2498C14.6732 52.1977 14.5636 52.1214 14.4725 52.0255C14.3815 51.9296 14.3109 51.8162 14.2652 51.6921C14.2194 51.568 14.1994 51.4359 14.2064 51.3039L14.582 44.2323C14.8711 41.7646 15.7959 39.4142 17.2659 37.4111C18.7359 35.4079 20.7007 33.8207 22.9681 32.8048C23.0013 32.7901 23.0355 32.7774 23.0702 32.7668L31.0583 30.2371C31.1817 30.1924 31.3129 30.1732 31.4439 30.1805C31.575 30.1879 31.7032 30.2216 31.8208 30.2798C31.9385 30.338 32.0431 30.4194 32.1285 30.519C32.2138 30.6187 32.2782 30.7346 32.3176 30.8598C32.357 30.985 32.3707 31.1169 32.3578 31.2475C32.3449 31.3781 32.3057 31.5047 32.2426 31.6198C32.1795 31.7349 32.0938 31.836 31.9906 31.9171C31.8874 31.9981 31.7689 32.0575 31.6421 32.0916L23.7075 34.6048C21.7682 35.4812 20.0876 36.8428 18.8281 38.5583C17.5685 40.2737 16.7726 42.2849 16.5173 44.3977L16.201 50.3825H58.3172L58.0253 44.3316C57.754 42.2327 56.9518 40.2376 55.6947 38.5351C54.4375 36.8326 52.7669 35.4788 50.8408 34.6018L42.8284 32.0721C42.7032 32.0367 42.5863 31.9765 42.4848 31.8951C42.3833 31.8136 42.2991 31.7127 42.2373 31.5982C42.1754 31.4837 42.1372 31.3579 42.1248 31.2283C42.1125 31.0988 42.1262 30.9681 42.1653 30.8439C42.2044 30.7198 42.2679 30.6047 42.3522 30.5056C42.4366 30.4065 42.5399 30.3252 42.6562 30.2668C42.7724 30.2083 42.8992 30.1737 43.0291 30.1651C43.159 30.1565 43.2892 30.174 43.4122 30.2167L51.4771 32.7658C51.5112 32.7775 51.5462 32.7902 51.5744 32.8048C53.8281 33.8209 55.7826 35.3994 57.2503 37.3886C58.718 39.3779 59.6496 41.7111 59.9556 44.1642L60.3079 51.3078C60.3143 51.4395 60.2939 51.5712 60.2479 51.6948C60.2019 51.8184 60.1313 51.9314 60.0403 52.0268C59.9493 52.1223 59.8398 52.1982 59.7186 52.2501C59.5973 52.3019 59.4668 52.3286 59.3349 52.3284H59.3388Z" fill="#1966A0"/>
<path d="M32.424 38.4791C32.1942 38.4791 31.9717 38.3978 31.7961 38.2494C31.6205 38.101 31.5031 37.8953 31.4647 37.6686L30.3944 31.32C30.3576 31.1016 30.3963 30.8773 30.5042 30.6839C30.6121 30.4906 30.7828 30.3398 30.9879 30.2565C31.1367 30.1955 31.2974 30.1688 31.4579 30.1784C31.6184 30.188 31.7747 30.2337 31.9152 30.312L37.7657 33.9568C37.9091 34.0459 38.0269 34.1709 38.1074 34.3193C38.1879 34.4678 38.2284 34.6346 38.2248 34.8035C38.2213 34.9723 38.1739 35.1374 38.0872 35.2823C38.0006 35.4273 37.8777 35.5472 37.7306 35.6303L32.9018 38.3546C32.756 38.4368 32.5914 38.4797 32.424 38.4791ZM32.6605 33.0684L33.1518 35.9776L35.3459 34.7351L32.6605 33.0684Z" fill="#1966A0"/>
<path d="M42.0808 38.4791C41.913 38.4792 41.7481 38.436 41.6021 38.3536L36.7732 35.6293C36.6262 35.5461 36.5034 35.4261 36.4168 35.2811C36.3303 35.1361 36.2829 34.9711 36.2795 34.8022C36.2761 34.6334 36.3166 34.4665 36.3972 34.3181C36.4778 34.1697 36.5956 34.0448 36.7391 33.9557L42.5925 30.3159C42.7224 30.2355 42.8693 30.1869 43.0214 30.1739C43.1736 30.1609 43.3266 30.1838 43.4682 30.2409C43.6795 30.3255 43.857 30.4775 43.9729 30.6734C44.0889 30.8692 44.1369 31.0979 44.1094 31.3239L43.0391 37.6725C43.0007 37.8992 42.8833 38.1049 42.7077 38.2533C42.5321 38.4016 42.3097 38.483 42.0798 38.483L42.0808 38.4791ZM39.1618 34.738L41.351 35.9776L41.8434 33.0684L39.1618 34.738Z" fill="#1966A0"/>
<path d="M37.2542 35.7471C37.0727 35.7473 36.8947 35.6967 36.7404 35.6011L31.0437 32.0614C30.9374 32.0266 30.8385 31.9725 30.7518 31.9019C30.5944 31.7799 30.4787 31.6121 30.4207 31.4216C30.3626 31.2312 30.3651 31.0274 30.4278 30.8384L31.3881 28.1384C31.429 28.0156 31.494 27.9022 31.5792 27.8048C31.6645 27.7074 31.7684 27.628 31.8847 27.5713C32.001 27.5145 32.1275 27.4816 32.2567 27.4743C32.3859 27.4671 32.5153 27.4857 32.6373 27.529C32.7592 27.5724 32.8713 27.6397 32.9669 27.7269C33.0626 27.8141 33.1398 27.9195 33.1942 28.037C33.2486 28.1544 33.279 28.2816 33.2836 28.4109C33.2882 28.5403 33.267 28.6692 33.2212 28.7903L32.5401 30.7032L37.2493 33.6279L41.9653 30.6924L41.2842 28.7815C41.1979 28.5383 41.2117 28.2708 41.3227 28.0378C41.4336 27.8048 41.6326 27.6254 41.8758 27.539C42.119 27.4527 42.3865 27.4666 42.6195 27.5775C42.8526 27.6884 43.032 27.8874 43.1183 28.1306L44.0786 30.8384C44.1253 30.9696 44.1433 31.1093 44.1313 31.2481C44.1194 31.3868 44.0777 31.5214 44.0093 31.6427C43.9409 31.764 43.8472 31.8692 43.7346 31.9512C43.622 32.0331 43.4931 32.09 43.3566 32.1179L37.7601 35.6001C37.6083 35.695 37.4332 35.7458 37.2542 35.7471Z" fill="#1966A0"/>
<path d="M38.566 39.3421H35.9526C35.7985 39.3421 35.6466 39.3055 35.5094 39.2353C35.3723 39.1651 35.2537 39.0633 35.1635 38.9384L33.6992 36.9078C33.6197 36.7982 33.5639 36.6732 33.5354 36.5408C33.5069 36.4083 33.5064 36.2715 33.5339 36.1388C33.5614 36.0062 33.6162 35.8808 33.695 35.7706C33.7737 35.6604 33.8746 35.5679 33.9911 35.4989L36.7592 33.876C36.9086 33.7882 37.0788 33.7419 37.252 33.7419C37.4253 33.7419 37.5954 33.7882 37.7448 33.876L40.5149 35.5067C40.6313 35.5757 40.7321 35.6682 40.8107 35.7783C40.8893 35.8884 40.9441 36.0137 40.9716 36.1462C40.9991 36.2787 40.9986 36.4155 40.9702 36.5478C40.9418 36.6801 40.8862 36.805 40.8068 36.9146L39.3473 38.9374C39.2581 39.0615 39.1408 39.1628 39.0051 39.2331C38.8693 39.3035 38.7189 39.3408 38.566 39.3421ZM36.4498 37.3962H38.0679L38.6118 36.6431L37.2554 35.8443L35.903 36.6373L36.4498 37.3962Z" fill="#1966A0"/>
<path d="M37.265 49.9057C37.134 49.9057 37.0043 49.8792 36.8838 49.8279C36.7633 49.7766 36.6543 49.7014 36.5635 49.607L33.7935 46.726C33.6857 46.614 33.6063 46.4779 33.5619 46.3289C33.5176 46.1799 33.5096 46.0225 33.5386 45.8698L34.998 38.1833C35.0404 37.9607 35.1591 37.7599 35.3337 37.6155C35.5083 37.4711 35.7279 37.3921 35.9544 37.3923H38.5678C38.7944 37.3921 39.014 37.4711 39.1886 37.6155C39.3632 37.7599 39.4819 37.9607 39.5243 38.1833L40.9837 45.8698C41.0127 46.0225 41.0047 46.1799 40.9604 46.3289C40.916 46.4779 40.8366 46.614 40.7288 46.726L37.9588 49.607C37.8689 49.7005 37.7612 49.7751 37.6421 49.8264C37.5229 49.8777 37.3947 49.9046 37.265 49.9057ZM35.54 45.7394L37.265 47.5287L38.9852 45.7394L37.7671 39.3421H36.7591L35.54 45.7394Z" fill="#1966A0"/>
<path d="M37.2499 30.7703C30.0236 30.7703 24.7793 23.9507 24.7793 14.5547C24.7793 14.1003 24.8036 13.6527 24.8425 13.2052C24.8646 12.9522 24.9848 12.7179 25.1773 12.5522C25.3698 12.3866 25.6195 12.3028 25.8729 12.3188C30.983 12.6408 36.1864 11.16 39.4459 8.45122C39.548 8.36648 39.6663 8.30352 39.7936 8.26621C39.921 8.22889 40.0546 8.21801 40.1863 8.23423C40.3179 8.25045 40.4449 8.29343 40.5594 8.36053C40.6738 8.42763 40.7734 8.51743 40.8518 8.62441C41.794 9.93328 42.9865 11.0421 44.3604 11.8866C45.7344 12.731 47.2622 13.2943 48.8555 13.5438C49.0936 13.5701 49.3136 13.6834 49.4734 13.8618C49.6331 14.0403 49.7215 14.2714 49.7215 14.5109V14.5547C49.7185 23.9507 44.4762 30.7703 37.2499 30.7703ZM26.7282 14.3027V14.5547C26.7282 22.825 31.1552 28.8243 37.2528 28.8243C43.1558 28.8243 47.4924 23.2025 47.7609 15.3438C44.6857 14.6576 41.9233 12.9747 39.9032 10.5567C36.0138 13.1578 31.4042 14.4684 26.7282 14.3027Z" fill="#1966A0"/>
<path d="M48.7454 15.4839C48.7093 15.4839 48.6733 15.4819 48.6374 15.478C45.2169 14.9738 42.1043 13.2206 39.9001 10.5567C35.7259 13.3314 30.7456 14.6349 25.7472 14.2608C25.6171 14.2526 25.4899 14.2182 25.3732 14.1598C25.2566 14.1014 25.1529 14.0201 25.0683 13.9208C24.9837 13.8215 24.9199 13.7062 24.8808 13.5818C24.8416 13.4573 24.8279 13.3263 24.8404 13.1964C25.4933 6.43425 30.8271 1.3349 37.2468 1.3349C44.0995 1.3349 49.6941 7.24377 49.7184 14.508C49.7184 14.766 49.6159 15.0135 49.4334 15.196C49.2509 15.3784 49.0035 15.481 48.7454 15.481V15.4839ZM40.0675 8.22744C40.2203 8.22681 40.3711 8.26246 40.5074 8.33148C40.6437 8.40049 40.7617 8.50089 40.8517 8.62441C42.5377 10.9308 44.958 12.5952 47.715 13.3443C47.1478 7.70106 42.6643 3.28085 37.2497 3.28085C34.7366 3.33996 32.3244 4.28181 30.4362 5.9413C28.5479 7.60079 27.304 9.87199 26.9226 12.3567C31.6902 12.42 36.4062 10.9712 39.4457 8.44733C39.6211 8.3039 39.8409 8.22613 40.0675 8.22744Z" fill="#1966A0"/>
<path d="M37.2499 30.7703C30.0236 30.7703 24.7793 23.9507 24.7793 14.5547C24.7793 14.1003 24.8036 13.6527 24.8425 13.2052C24.8646 12.9522 24.9848 12.7179 25.1773 12.5522C25.3698 12.3866 25.6195 12.3028 25.8729 12.3188C30.983 12.6408 36.1864 11.16 39.4459 8.45122C39.548 8.36648 39.6663 8.30352 39.7936 8.26621C39.921 8.22889 40.0546 8.21801 40.1863 8.23423C40.3179 8.25045 40.4449 8.29343 40.5594 8.36053C40.6738 8.42763 40.7734 8.51743 40.8518 8.62441C41.794 9.93328 42.9865 11.0421 44.3604 11.8866C45.7344 12.731 47.2622 13.2943 48.8555 13.5438C49.0936 13.5701 49.3136 13.6834 49.4734 13.8618C49.6331 14.0403 49.7215 14.2714 49.7215 14.5109V14.5547C49.7185 23.9507 44.4762 30.7703 37.2499 30.7703ZM26.7282 14.3027V14.5547C26.7282 22.825 31.1552 28.8243 37.2528 28.8243C43.1558 28.8243 47.4924 23.2025 47.7609 15.3438C44.6857 14.6576 41.9233 12.9747 39.9032 10.5567C36.0138 13.1578 31.4042 14.4684 26.7282 14.3027Z" fill="#1966A0"/>
<path d="M48.7454 15.4839C48.7093 15.4839 48.6733 15.4819 48.6374 15.478C45.2169 14.9738 42.1043 13.2206 39.9001 10.5567C35.7259 13.3314 30.7456 14.6349 25.7472 14.2608C25.6171 14.2526 25.4899 14.2182 25.3732 14.1598C25.2566 14.1014 25.1529 14.0201 25.0683 13.9208C24.9837 13.8215 24.9199 13.7062 24.8808 13.5818C24.8416 13.4573 24.8279 13.3263 24.8404 13.1964C25.4933 6.43425 30.8271 1.3349 37.2468 1.3349C44.0995 1.3349 49.6941 7.24377 49.7184 14.508C49.7184 14.766 49.6159 15.0135 49.4334 15.196C49.2509 15.3784 49.0035 15.481 48.7454 15.481V15.4839ZM40.0675 8.22744C40.2203 8.22681 40.3711 8.26246 40.5074 8.33148C40.6437 8.40049 40.7617 8.50089 40.8517 8.62441C42.5377 10.9308 44.958 12.5952 47.715 13.3443C47.1478 7.70106 42.6643 3.28085 37.2497 3.28085C34.7366 3.33996 32.3244 4.28181 30.4362 5.9413C28.5479 7.60079 27.304 9.87199 26.9226 12.3567C31.6902 12.42 36.4062 10.9712 39.4457 8.44733C39.6211 8.3039 39.8409 8.22613 40.0675 8.22744Z" fill="#1966A0"/>
<path d="M59.3388 52.3284H15.1794C15.0472 52.3286 14.9163 52.3019 14.7948 52.2498C14.6732 52.1977 14.5636 52.1214 14.4725 52.0255C14.3815 51.9296 14.3109 51.8162 14.2652 51.6921C14.2194 51.568 14.1994 51.4359 14.2064 51.3039L14.582 44.2323C14.8711 41.7646 15.7959 39.4142 17.2659 37.4111C18.7359 35.4079 20.7007 33.8207 22.9681 32.8048C23.0013 32.7901 23.0355 32.7774 23.0702 32.7668L31.0583 30.2371C31.1817 30.1924 31.3129 30.1732 31.4439 30.1805C31.575 30.1879 31.7032 30.2216 31.8208 30.2798C31.9385 30.338 32.0431 30.4194 32.1285 30.519C32.2138 30.6187 32.2782 30.7346 32.3176 30.8598C32.357 30.985 32.3707 31.1169 32.3578 31.2475C32.3449 31.3781 32.3057 31.5047 32.2426 31.6198C32.1795 31.7349 32.0938 31.836 31.9906 31.9171C31.8874 31.9981 31.7689 32.0575 31.6421 32.0916L23.7075 34.6048C21.7682 35.4812 20.0876 36.8428 18.8281 38.5583C17.5685 40.2737 16.7726 42.2849 16.5173 44.3977L16.201 50.3825H58.3172L58.0253 44.3316C57.754 42.2327 56.9518 40.2376 55.6947 38.5351C54.4375 36.8326 52.7669 35.4788 50.8408 34.6018L42.8284 32.0721C42.7032 32.0367 42.5863 31.9765 42.4848 31.8951C42.3833 31.8136 42.2991 31.7127 42.2373 31.5982C42.1754 31.4837 42.1372 31.3579 42.1248 31.2283C42.1125 31.0988 42.1262 30.9681 42.1653 30.8439C42.2044 30.7198 42.2679 30.6047 42.3522 30.5056C42.4366 30.4065 42.5399 30.3252 42.6562 30.2668C42.7724 30.2083 42.8992 30.1737 43.0291 30.1651C43.159 30.1565 43.2892 30.174 43.4122 30.2167L51.4771 32.7658C51.5112 32.7775 51.5462 32.7902 51.5744 32.8048C53.8281 33.8209 55.7826 35.3994 57.2503 37.3886C58.718 39.3779 59.6496 41.7111 59.9556 44.1642L60.3079 51.3078C60.3143 51.4395 60.2939 51.5712 60.2479 51.6948C60.2019 51.8184 60.1313 51.9314 60.0403 52.0268C59.9493 52.1223 59.8398 52.1982 59.7186 52.2501C59.5973 52.3019 59.4668 52.3286 59.3349 52.3284H59.3388Z" fill="#1966A0"/>
<path d="M18.2021 69.5374C18.0604 69.5375 17.9203 69.5066 17.7918 69.4469C17.6633 69.3872 17.5493 69.3001 17.458 69.1918C17.3666 69.0834 17.3 68.9564 17.2628 68.8197C17.2256 68.6829 17.2188 68.5397 17.2427 68.4L17.8664 64.763L15.2238 62.1876C15.0937 62.0609 15.0017 61.9003 14.9581 61.724C14.9145 61.5477 14.9212 61.3627 14.9773 61.19C15.0333 61.0173 15.1366 60.8637 15.2755 60.7467C15.4143 60.6296 15.5831 60.5538 15.7628 60.5277L19.4154 59.9974L21.048 56.6893C21.1287 56.5261 21.2535 56.3888 21.4083 56.293C21.5631 56.1972 21.7417 56.1467 21.9237 56.1473C22.1057 56.1467 22.2843 56.1972 22.4391 56.293C22.5939 56.3888 22.7187 56.5261 22.7994 56.6893L24.432 59.9974L28.0836 60.5277C28.2633 60.5538 28.4321 60.6296 28.571 60.7467C28.7098 60.8637 28.8131 61.0173 28.8692 61.19C28.9253 61.3627 28.9319 61.5477 28.8883 61.724C28.8447 61.9003 28.7527 62.0609 28.6226 62.1876L25.9791 64.763L26.6027 68.4C26.6334 68.5789 26.6134 68.7629 26.545 68.931C26.4765 69.0992 26.3624 69.2448 26.2156 69.3515C26.0687 69.4582 25.8949 69.5217 25.7138 69.5348C25.5327 69.5478 25.3516 69.51 25.1909 69.4255L21.9256 67.7082L18.6594 69.4255C18.5184 69.4997 18.3614 69.5381 18.2021 69.5374ZM17.9939 62.173L19.5915 63.7297C19.7043 63.8399 19.7887 63.9758 19.8373 64.1258C19.886 64.2758 19.8974 64.4354 19.8707 64.5908L19.4942 66.7888L21.4674 65.7506C21.607 65.6771 21.7625 65.6388 21.9203 65.6388C22.0781 65.6388 22.2335 65.6771 22.3732 65.7506L24.3464 66.7888L23.9699 64.5908C23.9431 64.4354 23.9546 64.2758 24.0032 64.1258C24.0519 63.9758 24.1363 63.8399 24.2491 63.7297L25.8467 62.173L23.6391 61.8519C23.4829 61.8292 23.3347 61.7689 23.207 61.6762C23.0794 61.5835 22.9762 61.4611 22.9064 61.3197L21.9208 59.3202L20.9332 61.3168C20.8635 61.4581 20.7605 61.5804 20.633 61.6731C20.5055 61.7658 20.3575 61.8262 20.2015 61.849L17.9939 62.173Z" fill="#1966A0"/>
<path d="M56.3006 69.5374C56.143 69.5373 55.9877 69.4989 55.8482 69.4255L52.5819 67.7082L49.3156 69.4255C49.155 69.51 48.9738 69.5478 48.7928 69.5348C48.6117 69.5217 48.4379 69.4582 48.291 69.3515C48.1442 69.2448 48.0301 69.0992 47.9616 68.931C47.8932 68.7629 47.8732 68.5789 47.9039 68.4L48.5275 64.763L45.8859 62.1876C45.7558 62.0609 45.6638 61.9003 45.6202 61.724C45.5766 61.5477 45.5833 61.3627 45.6394 61.19C45.6955 61.0173 45.7988 60.8637 45.9376 60.7467C46.0764 60.6296 46.2452 60.5538 46.4249 60.5277L50.0765 59.9974L51.7101 56.6893C51.7997 56.5378 51.9272 56.4123 52.0801 56.3251C52.233 56.2379 52.4059 56.1921 52.5819 56.1921C52.7579 56.1921 52.9309 56.2379 53.0837 56.3251C53.2366 56.4123 53.3641 56.5378 53.4537 56.6893L55.0873 59.9974L58.7399 60.5277C58.9196 60.5538 59.0884 60.6296 59.2272 60.7467C59.366 60.8637 59.4694 61.0173 59.5254 61.19C59.5815 61.3627 59.5882 61.5477 59.5446 61.724C59.501 61.9003 59.409 62.0609 59.2789 62.1876L56.6363 64.763L57.26 68.4C57.2839 68.5397 57.2771 68.6829 57.2399 68.8197C57.2027 68.9564 57.1361 69.0834 57.0447 69.1917C56.9534 69.3001 56.8394 69.3871 56.7109 69.4468C56.5824 69.5065 56.4423 69.5374 56.3006 69.5374ZM52.5819 65.6358C52.7396 65.6359 52.8948 65.6743 53.0343 65.7477L55.0085 66.7858L54.631 64.5879C54.6044 64.4324 54.616 64.2728 54.6648 64.1228C54.7136 63.9728 54.7982 63.8369 54.9112 63.7268L56.5088 62.17L54.3012 61.849C54.1452 61.8262 53.9971 61.7658 53.8697 61.6731C53.7422 61.5804 53.6392 61.4581 53.5695 61.3168L52.5819 59.3173L51.5944 61.3168C51.5246 61.4581 51.4216 61.5804 51.2941 61.6731C51.1667 61.7658 51.0186 61.8262 50.8627 61.849L48.656 62.17L50.2526 63.7268C50.3656 63.8369 50.4502 63.9728 50.499 64.1228C50.5478 64.2728 50.5594 64.4324 50.5328 64.5879L50.1553 66.7858L52.1295 65.7477C52.269 65.6743 52.4243 65.6359 52.5819 65.6358Z" fill="#1966A0"/>
<path d="M33.5322 67.1536C33.3905 67.1536 33.2506 67.1226 33.1222 67.0628C32.9938 67.003 32.88 66.9159 32.7887 66.8076C32.6974 66.6993 32.6309 66.5724 32.5938 66.4357C32.5567 66.299 32.5498 66.1558 32.5738 66.0162L33.1974 62.3783L30.5519 59.8028C30.4218 59.6761 30.3298 59.5156 30.2862 59.3393C30.2427 59.163 30.2493 58.978 30.3054 58.8053C30.3615 58.6326 30.4648 58.479 30.6036 58.362C30.7424 58.2449 30.9113 58.169 31.091 58.1429L34.7425 57.6127L36.3762 54.3046C36.4657 54.1529 36.5932 54.0271 36.7462 53.9398C36.8992 53.8525 37.0723 53.8065 37.2484 53.8065C37.4246 53.8065 37.5977 53.8525 37.7506 53.9398C37.9036 54.0271 38.0312 54.1529 38.1207 54.3046L39.7533 57.6127L43.4059 58.1429C43.5856 58.169 43.7544 58.2449 43.8932 58.362C44.0321 58.479 44.1354 58.6326 44.1915 58.8053C44.2475 58.978 44.2542 59.163 44.2106 59.3393C44.167 59.5156 44.075 59.6761 43.9449 59.8028L41.3023 62.3783L41.926 66.0162C41.9554 66.1945 41.9346 66.3774 41.8659 66.5445C41.7973 66.7116 41.6834 66.8563 41.5372 66.9623C41.3909 67.0684 41.218 67.1316 41.0379 67.1449C40.8577 67.1583 40.6774 67.1212 40.5171 67.0379L37.2509 65.3206L33.9856 67.0379C33.8459 67.1124 33.6904 67.1521 33.5322 67.1536ZM37.2509 63.252C37.4085 63.2518 37.5639 63.2902 37.7033 63.3639L39.6774 64.4011L39.3009 62.2032C39.2742 62.0477 39.2856 61.8882 39.3343 61.7382C39.3829 61.5882 39.4673 61.4522 39.5802 61.3421L41.1778 59.7853L38.9701 59.4652C38.8141 59.4423 38.6659 59.3818 38.5385 59.2889C38.411 59.196 38.308 59.0735 38.2384 58.932L37.2509 56.9326L36.2643 58.932C36.1946 59.0737 36.0914 59.1962 35.9638 59.2891C35.8362 59.382 35.6878 59.4424 35.5316 59.4652L33.3249 59.7853L34.9225 61.3421C35.0354 61.4522 35.1197 61.5882 35.1684 61.7382C35.217 61.8882 35.2285 62.0477 35.2018 62.2032L34.8252 64.4011L36.7984 63.3639C36.9378 63.2902 37.0932 63.2518 37.2509 63.252Z" fill="#1966A0"/>
</svg>
