<svg width="26" height="27" viewBox="0 0 26 27" fill="none" xmlns="http://www.w3.org/2000/svg">
<g clip-path="url(#clip0_185_28)">
<path d="M0.0411854 13.7082C-0.0425529 13.4978 0.00406456 13.2558 0.15925 13.0951L9.90925 2.97006C10.1244 2.75422 10.4673 2.76044 10.6752 2.98388C10.8779 3.20188 10.8779 3.54745 10.6752 3.7654L1.84925 12.9308H25.4583C25.7575 12.9308 26 13.1827 26 13.4934C26 13.804 25.7575 14.0559 25.4583 14.0559H1.84925L10.6741 23.2201C10.8892 23.436 10.8952 23.792 10.6874 24.0155C10.4795 24.2389 10.1367 24.2451 9.92144 24.0293C9.91692 24.0248 9.9125 24.0202 9.90813 24.0155L0.158134 13.8905C0.108065 13.8382 0.0683022 13.7763 0.0411854 13.7082Z" fill="white"/>
<path d="M10.2913 24.181C10.5905 24.1816 10.8334 23.9301 10.834 23.6195C10.8342 23.4697 10.777 23.326 10.6748 23.2202L1.30722 13.4935L10.6748 3.76677C10.8827 3.54334 10.8767 3.18722 10.6615 2.97138C10.4516 2.76086 10.1188 2.76086 9.90895 2.97138L0.158952 13.0964C-0.0525007 13.316 -0.0525007 13.6721 0.158952 13.8918L9.90895 24.0168C10.0104 24.1219 10.1479 24.181 10.2913 24.181Z" fill="white"/>
<path d="M0.541683 14.0563H25.4583C25.7575 14.0563 26 13.8045 26 13.4938C26 13.1832 25.7575 12.9313 25.4583 12.9313H0.541632C0.242479 12.9313 -4.95911e-05 13.1832 -4.95911e-05 13.4938C1.90735e-06 13.8045 0.242531 14.0563 0.541683 14.0563Z" fill="white"/>
</g>
<defs>
<clipPath id="clip0_185_28">
<rect width="26" height="27" fill="white" transform="matrix(-1 0 0 1 26 0)"/>
</clipPath>
</defs>
</svg>
