<svg width="72" height="72" viewBox="0 0 72 72" fill="none" xmlns="http://www.w3.org/2000/svg">
<g clip-path="url(#clip0_136_58)">
<path d="M51.6 40.8C62.8663 40.8 72 31.6666 72 20.3999C72 9.13317 62.8663 0 51.6 0C43.2135 0 36.01 5.06137 32.8746 12.2958C31.9188 12.1013 30.961 12 30 12C21.3677 12 14.4 19.4029 14.4 28.4999V34.7999C14.4 39.3047 15.8314 43.8268 18.1506 47.465L16.9357 51.2314C16.8396 51.5296 16.8652 51.8512 17.0017 52.129C12.9715 52.9213 8.51737 54.7218 3.06042 57.594C1.1797 58.5837 0 60.5403 0 62.6674V70.7998C0 71.4625 0.537188 71.9997 1.19995 71.9997H22.7981C22.7988 71.9997 22.7994 71.9999 22.8 71.9999H37.2C37.2007 71.9999 37.2012 71.9997 37.2018 71.9997H58.7998C59.4626 71.9997 59.9998 71.4624 59.9998 70.7998V62.6674C59.9998 60.5403 58.8202 58.5837 56.9393 57.594C51.4824 54.722 47.0282 52.9213 42.9981 52.129C43.1346 51.8512 43.1602 51.5296 43.064 51.2314L41.8497 47.467C43.2966 45.1825 44.4008 42.5336 45.0302 39.7187C47.0918 40.4196 49.3014 40.8 51.6 40.8ZM51.6 2.40005C61.5409 2.40005 69.6 10.4588 69.6 20.4C69.6 30.3412 61.5409 38.4 51.6 38.4C49.1172 38.4 46.7519 37.8973 44.6002 36.9882C44.5973 36.9869 44.5944 36.9854 44.5915 36.9841C44.4022 36.9041 44.2152 36.8201 44.0295 36.7341C43.9966 36.7187 43.9637 36.7035 43.931 36.6881C43.7491 36.6024 43.5687 36.5144 43.3907 36.4231C43.3714 36.4133 43.3526 36.4029 43.3333 36.3929C43.1827 36.315 43.0338 36.2344 42.8858 36.1526C42.8293 36.1212 42.7728 36.0899 42.7165 36.0579C42.5717 35.9758 42.4282 35.8919 42.2862 35.8059C42.2122 35.7612 42.1393 35.715 42.0661 35.6691C41.9802 35.6154 41.8947 35.5611 41.8098 35.5061C41.7261 35.4518 41.6426 35.3973 41.5599 35.3416C41.4987 35.3004 41.4384 35.2581 41.3778 35.2162C41.2179 35.1056 41.0597 34.993 40.9036 34.8775C40.8634 34.8479 40.8233 34.8182 40.7834 34.7881C40.4646 34.548 40.1538 34.2977 39.852 34.0374C39.8334 34.0214 39.8149 34.0054 39.7963 33.9893C39.4892 33.7223 39.1913 33.445 38.9029 33.1581C38.8835 33.1388 38.8642 33.1196 38.845 33.1002C38.5694 32.8234 38.303 32.5374 38.0457 32.2432C38.0085 32.2007 37.9716 32.1581 37.9349 32.1152C37.86 32.028 37.7855 31.9407 37.7124 31.8521C37.6186 31.7385 37.5262 31.6238 37.4352 31.5079C37.3788 31.4362 37.324 31.3633 37.2687 31.2907C37.2056 31.2076 37.143 31.1242 37.0814 31.0402C37.0358 30.978 36.99 30.9161 36.9451 30.8534C36.8438 30.7114 36.7443 30.5681 36.6472 30.4231C36.6193 30.3816 36.5923 30.3396 36.5648 30.2979C36.4762 30.1634 36.389 30.0278 36.304 29.891C36.2863 29.8624 36.2682 29.834 36.2506 29.8053C36.1444 29.6321 36.0408 29.4573 35.9404 29.2804C35.9364 29.2735 35.9326 29.2666 35.9288 29.2597C34.7631 27.1987 33.9982 24.8968 33.7189 22.4688C33.7161 22.4443 33.7132 22.4198 33.7105 22.3952C33.6651 21.9855 33.6341 21.572 33.6168 21.1558C33.6149 21.1077 33.6129 21.0597 33.6113 21.0115C33.6045 20.8083 33.5998 20.6045 33.5998 20.3999C33.5998 20.2583 33.6019 20.1172 33.6052 19.9765C33.6074 19.8809 33.6111 19.7855 33.615 19.6902C33.6164 19.6537 33.6175 19.6172 33.6192 19.5808C33.7063 17.7203 34.089 15.8925 34.7472 14.1266C34.7725 14.0588 34.7896 13.9904 34.8022 13.9217C37.4033 7.18172 43.9429 2.40005 51.6 2.40005ZM21.1251 51.1567C23.1841 53.191 25.5409 54.5434 28.0316 55.0142L25.126 60.1078L20.0171 52.36C20.0161 52.3586 20.015 52.3574 20.014 52.356L19.3967 51.42L19.9039 49.8475C20.2954 50.3079 20.7031 50.745 21.1251 51.1567ZM29.9966 56.4242L32.7303 61.2H27.2675L29.9966 56.4242ZM26.1052 63.6H33.8947L35.6089 69.6001H24.3908L26.1052 63.6ZM2.40005 62.6674C2.40005 61.4308 3.08644 60.2923 4.17811 59.7178C9.90408 56.7042 14.4335 54.934 18.4299 54.3133L23.8947 62.6003L21.8949 69.5998H2.40005V62.6674ZM57.5999 62.6674V69.5998H38.105L36.1052 62.6003L41.57 54.3133C45.5664 54.934 50.0958 56.7042 55.8217 59.7178C56.9135 60.2923 57.5999 61.4309 57.5999 62.6674ZM40.6032 51.42L39.9859 52.356C39.9849 52.3574 39.9838 52.3586 39.9828 52.36L34.873 60.1089L31.9625 55.0153C33.8698 54.6559 35.6985 53.7791 37.3756 52.476C37.5048 52.3765 37.6327 52.2738 37.7598 52.1695C37.7717 52.1596 37.7835 52.1499 37.7955 52.1401C38.6096 51.4689 39.3811 50.703 40.0989 49.8566L40.6032 51.42ZM39.6641 46.4205C39.6138 46.4728 39.5655 46.5289 39.5229 46.593C38.6671 47.8779 37.7207 48.9876 36.7125 49.9001C34.929 51.497 32.915 52.5275 30.8509 52.7527C30.8159 52.7565 30.7808 52.7601 30.7458 52.7633C30.6932 52.7684 30.6406 52.7729 30.588 52.7768C30.5255 52.7815 30.4629 52.7853 30.4003 52.7884C30.3678 52.7901 30.3355 52.7922 30.303 52.7934C30.2022 52.7972 30.1012 52.7996 30.0002 52.7996C30.0002 52.7996 30.0002 52.7996 30.0001 52.7996C30 52.7996 30 52.7996 30 52.7996C29.8922 52.7996 29.7845 52.7974 29.6769 52.793C27.0042 52.6809 24.4072 51.1876 22.2533 48.8711C21.6284 48.1895 21.0336 47.4283 20.4771 46.5929C20.437 46.5327 20.3923 46.4792 20.3455 46.4296C18.1834 43.1478 16.8 38.9679 16.8 34.8V28.5C16.8 20.697 22.7268 14.4 30.0001 14.4C30.6799 14.4 31.3606 14.4612 32.0439 14.5803C31.5683 16.1806 31.2841 17.863 31.2172 19.6014C31.2158 19.6384 31.2143 19.6754 31.213 19.7124C31.2054 19.9408 31.2002 20.1697 31.2002 20.4C31.2002 20.6235 31.2051 20.8457 31.2121 21.0673C31.214 21.1233 31.2162 21.1792 31.2185 21.2352C31.2263 21.4303 31.2367 21.6248 31.25 21.8184C31.2518 21.8454 31.2532 21.8725 31.2552 21.8995C31.272 22.1314 31.293 22.3622 31.3176 22.592C31.3194 22.6091 31.3215 22.6261 31.3235 22.6433C31.3481 22.8682 31.3765 23.0919 31.4083 23.3145C31.4097 23.3243 31.411 23.3342 31.4124 23.344C31.795 25.9913 32.6859 28.4737 33.983 30.6899C33.9947 30.71 34.0066 30.7298 34.0185 30.7498C34.1214 30.9241 34.2266 31.097 34.3344 31.268C34.3493 31.2916 34.3638 31.3155 34.3789 31.3391C34.4907 31.5148 34.605 31.6884 34.722 31.8604C34.7573 31.9123 34.7936 31.9636 34.8293 32.0153C34.9097 32.1311 34.9912 32.2462 35.0738 32.3602C35.1228 32.4278 35.1717 32.4956 35.2215 32.5627C35.3125 32.685 35.405 32.8061 35.4987 32.9264C35.5818 33.0332 35.6664 33.1387 35.7518 33.2439C35.8052 33.3098 35.8588 33.3758 35.9131 33.441C35.992 33.5358 36.0714 33.6302 36.152 33.7236C36.187 33.7642 36.2229 33.8041 36.2582 33.8445C36.43 34.0407 36.6057 34.2336 36.7851 34.4233C36.8062 34.4457 36.827 34.4682 36.8483 34.4904C36.9502 34.5971 37.0533 34.7026 37.1576 34.8072C37.1766 34.8263 37.196 34.8452 37.215 34.8642C37.5393 35.1868 37.8744 35.4988 38.2206 35.7998C38.2454 35.8213 38.2703 35.8426 38.2951 35.864C38.6277 36.1503 38.9699 36.4265 39.3216 36.6917C39.3727 36.7304 39.4241 36.7687 39.4757 36.8069C39.5778 36.8824 39.68 36.9578 39.7837 37.0316C39.9196 37.1284 40.0569 37.2237 40.1953 37.3172C40.2765 37.3721 40.3591 37.4255 40.4414 37.4792C40.5399 37.5438 40.6389 37.6075 40.7385 37.6703C40.8109 37.7159 40.8833 37.7616 40.9565 37.8065C41.1249 37.9097 41.2945 38.0109 41.4662 38.1094C41.5003 38.1289 41.535 38.1476 41.5692 38.1669C41.7315 38.2587 41.8951 38.3482 42.0602 38.4356C42.099 38.4562 42.1377 38.4767 42.1765 38.4969C42.3741 38.6 42.5731 38.701 42.7745 38.7977C42.1997 41.6012 41.1023 44.2218 39.6641 46.4205Z" fill="#1966A0"/>
<path d="M50.3998 21.5251V31.1253C48.8961 30.933 47.6198 30.3764 46.7998 29.5435V26.4C46.7998 25.7372 46.2626 25.2 45.5998 25.2C44.9371 25.2 44.3999 25.7372 44.3999 26.4V29.9733C44.3997 29.9807 44.3999 29.9882 44.3999 29.9957V33.6C44.3999 34.2627 44.9371 34.7999 45.5998 34.7999C46.2626 34.7999 46.7998 34.2627 46.7998 33.6V32.493C47.8502 33.0542 49.0796 33.406 50.3998 33.5385V34.8001C50.3998 35.4628 50.937 36 51.5997 36C52.2625 36 52.7997 35.4628 52.7997 34.8001V33.5257C56.7527 33.0383 59.9991 30.1793 59.9991 26.4001C59.9991 22.6548 56.7372 19.7701 52.7997 19.2758V9.67066C54.328 9.85614 55.5735 10.4047 56.3997 11.2542V14.4C56.3997 15.0628 56.9369 15.6 57.5996 15.6C58.2624 15.6 58.7996 15.0628 58.7996 14.4V10.8267C58.7997 10.8193 58.7996 10.8117 58.7996 10.8042V7.20002C58.7996 6.53725 58.2624 6.00006 57.5996 6.00006C56.9369 6.00006 56.3997 6.53725 56.3997 7.20002V8.29309C55.3575 7.73355 54.137 7.38705 52.7997 7.25852V6.00006C52.7997 5.3373 52.2625 4.80011 51.5997 4.80011C50.937 4.80011 50.3998 5.3373 50.3998 6.00006V7.27567C46.4617 7.76955 43.1992 10.6545 43.1992 14.4002C43.1991 18.1626 46.454 21.0347 50.3998 21.5251ZM57.5991 26.4C57.5991 28.7412 55.5067 30.6578 52.7997 31.1025V21.7001C55.4918 22.1527 57.5991 24.0884 57.5991 26.4ZM50.3998 9.69991V19.1014C47.6996 18.6532 45.5991 16.7268 45.5991 14.4C45.5991 12.088 47.707 10.152 50.3998 9.69991Z" fill="#1966A0"/>
</g>
<defs>
<clipPath id="clip0_136_58">
<rect width="72" height="72" fill="white"/>
</clipPath>
</defs>
</svg>
