<svg width="61" height="61" viewBox="0 0 61 61" fill="none" xmlns="http://www.w3.org/2000/svg">
<g clip-path="url(#clip0_56_418)">
<path d="M37.6167 35.5834H36.4983C36.0777 35.5841 35.7014 35.3217 35.5569 34.9266C35.4329 34.6013 35.2997 34.2831 35.1563 33.9679C34.9782 33.5846 35.0595 33.1308 35.3597 32.8333L36.1567 32.0352C37.34 30.8415 37.3378 28.9165 36.1516 27.7256L33.2786 24.8525C32.0861 23.667 30.1603 23.667 28.9679 24.8525L28.1708 25.6485C27.8727 25.9475 27.4196 26.0287 27.0362 25.8518C26.7211 25.7085 26.4028 25.5753 26.0765 25.4452C25.6793 25.3017 25.4151 24.924 25.4167 24.5017V23.3834C25.4167 21.6989 24.0512 20.3334 22.3667 20.3334H18.3C16.6155 20.3334 15.25 21.6989 15.25 23.3834V24.5017C15.2508 24.9224 14.9883 25.2986 14.5932 25.4431C14.2679 25.5672 13.9497 25.7004 13.6345 25.8437C13.2511 26.021 12.7979 25.9398 12.4999 25.6404L11.7018 24.8433C10.5095 23.6586 8.58448 23.6586 7.39218 24.8433L4.51908 27.7256C3.33365 28.918 3.33365 30.8438 4.51908 32.0362L5.31513 32.8333C5.6153 33.1308 5.69664 33.5846 5.51847 33.9679C5.37512 34.2831 5.24193 34.6013 5.11688 34.9276C4.97137 35.325 4.59152 35.5877 4.16833 35.5834H3.05C1.36551 35.5834 0 36.9489 0 38.6334V42.7C0 44.3845 1.36551 45.75 3.05 45.75H4.16833C4.58898 45.7493 4.96527 46.0117 5.10977 46.4068C5.2338 46.7321 5.36698 47.0504 5.51033 47.3655C5.6885 47.7488 5.60717 48.2026 5.307 48.5001L4.50993 49.2982C3.32526 50.4905 3.32526 52.4156 4.50993 53.6079L7.38303 56.481C8.57546 57.6664 10.5013 57.6664 11.6937 56.481L12.4908 55.6849C12.7889 55.3859 13.242 55.3047 13.6254 55.4816C13.9405 55.6249 14.2587 55.7581 14.5851 55.8882C14.9843 56.0301 15.2508 56.4081 15.25 56.8317V57.95C15.25 59.6345 16.6155 61 18.3 61H22.3667C24.0512 61 25.4167 59.6345 25.4167 57.95V56.8317C25.4159 56.4111 25.6783 56.0348 26.0734 55.8903C26.3988 55.7662 26.717 55.6331 27.0322 55.4897C27.4156 55.3124 27.8687 55.3936 28.1667 55.693L28.9648 56.4901C30.1588 57.6729 32.0833 57.6706 33.2745 56.485L36.1476 53.6119C37.333 52.4195 37.333 50.4937 36.1476 49.3013L35.3515 48.5042C35.0514 48.2067 34.97 47.7529 35.1482 47.3696C35.2915 47.0544 35.4247 46.7362 35.5549 46.4099C35.6983 46.0127 36.076 45.7485 36.4983 45.75H37.6167C39.3012 45.75 40.6667 44.3845 40.6667 42.7V38.6334C40.6667 36.9489 39.3012 35.5834 37.6167 35.5834ZM38.6333 42.7C38.6333 43.2615 38.1781 43.7167 37.6167 43.7167H36.4983C35.2345 43.7214 34.1034 44.5026 33.6517 45.6829C33.5439 45.9676 33.4274 46.2478 33.3019 46.5237C32.7792 47.6776 33.0217 49.0344 33.9119 49.9357L34.707 50.7317C35.1042 51.1285 35.1046 51.7723 34.7077 52.1695C34.7075 52.1698 34.7072 52.17 34.707 52.1703L31.8339 55.0434C31.4369 55.4403 30.7933 55.4403 30.3963 55.0434L29.5992 54.2473C28.6983 53.3564 27.3411 53.1138 26.1873 53.6373C25.9118 53.7624 25.6312 53.8793 25.3486 53.9871C24.1691 54.4387 23.3884 55.5688 23.3833 56.8317V57.95C23.3833 58.5115 22.9281 58.9667 22.3667 58.9667H18.3C17.7385 58.9667 17.2833 58.5115 17.2833 57.95V56.8317C17.2786 55.5679 16.4974 54.4368 15.3171 53.985C15.0324 53.8773 14.7522 53.7607 14.4763 53.6353C13.3224 53.1129 11.9658 53.3555 11.0644 54.2453L10.2683 55.0403C9.87158 55.4376 9.22777 55.438 8.83051 55.0411C8.83026 55.0408 8.83 55.0406 8.82975 55.0403L5.95665 52.1703C5.55977 51.7733 5.55977 51.1297 5.95665 50.7327L6.7527 49.9357C7.64292 49.0344 7.88539 47.6776 7.3627 46.5237C7.23765 46.2482 7.12073 45.9676 7.01297 45.685C6.56233 44.5042 5.43205 43.7223 4.16833 43.7167H3.05C2.48855 43.7167 2.03333 43.2615 2.03333 42.7V38.6334C2.03333 38.0719 2.48855 37.6167 3.05 37.6167H4.16833C5.43218 37.612 6.56322 36.8308 7.015 35.6505C7.12277 35.3658 7.2393 35.0856 7.36473 34.8097C7.88743 33.6558 7.64482 32.299 6.75473 31.3978L5.95563 30.6017C5.55837 30.205 5.55799 29.5611 5.95487 29.1639C5.95513 29.1636 5.95538 29.1634 5.95563 29.1631L8.82873 26.29C9.22574 25.8931 9.86929 25.8931 10.2663 26.29L11.0634 27.0861C11.9643 27.9771 13.3215 28.2197 14.4753 27.6961C14.7508 27.571 15.0314 27.4541 15.314 27.3463C16.4952 26.8961 17.2776 25.7657 17.2833 24.5017V23.3834C17.2833 22.8219 17.7385 22.3667 18.3 22.3667H22.3667C22.9281 22.3667 23.3833 22.8219 23.3833 23.3834V24.5017C23.388 25.7656 24.1692 26.8966 25.3496 27.3484C25.6342 27.4561 25.9145 27.5727 26.1903 27.6981C27.3441 28.2217 28.7014 27.9791 29.6023 27.0881L30.3983 26.2931C30.7969 25.8989 31.4384 25.8989 31.8369 26.2931L34.71 29.1662C35.1069 29.5632 35.1069 30.2067 34.71 30.6037L33.914 31.4008C33.0239 32.3021 32.7813 33.6588 33.304 34.8127C33.429 35.0883 33.5459 35.3689 33.6537 35.6515C34.1054 36.831 35.2354 37.6116 36.4983 37.6167H37.6167C38.1781 37.6167 38.6333 38.0719 38.6333 38.6334V42.7Z" fill="white"/>
<path d="M29.4627 40.2599C29.4525 40.0159 29.4352 39.773 29.4057 39.531C29.3732 39.2707 29.3346 39.0125 29.2807 38.7593C29.2451 38.5936 29.1983 38.4299 29.1536 38.2652C29.0967 38.0558 29.0326 37.8494 28.9615 37.6461C28.9116 37.5048 28.8598 37.3645 28.8069 37.2252C28.676 36.8996 28.5263 36.5818 28.3586 36.2736C28.3454 36.2502 28.3372 36.2248 28.324 36.2014C28.0595 35.7307 27.7533 35.2845 27.409 34.8686C27.3795 34.832 27.346 34.7974 27.3155 34.7618C27.1752 34.5961 27.0308 34.4355 26.8793 34.2819C26.8 34.1996 26.7167 34.1223 26.6333 34.043C26.5316 33.9485 26.43 33.8549 26.3283 33.7655C26.2049 33.6583 26.0792 33.5546 25.9511 33.4544L25.7844 33.3303C24.2112 32.152 22.2985 31.5156 20.333 31.5166C20.2313 31.5166 20.1297 31.5319 20.028 31.5359C19.8115 31.542 19.5939 31.5542 19.3753 31.5766C19.2604 31.5888 19.1445 31.602 19.0296 31.6183C18.6982 31.6619 18.3693 31.7234 18.0445 31.8023C13.1491 33.0673 10.2061 38.0614 11.4711 42.9568C12.3048 46.1827 14.8251 48.701 18.0516 49.5319C18.0679 49.5319 18.0852 49.537 18.1024 49.5411C18.4536 49.6287 18.8093 49.6966 19.1679 49.7444C19.4048 49.7739 19.6417 49.78 19.8796 49.7912C20.0382 49.7993 20.1846 49.8227 20.3503 49.8227C20.64 49.8227 20.941 49.8034 21.248 49.7729C21.2805 49.7729 21.3131 49.7638 21.3497 49.7597C21.5967 49.7322 21.8468 49.6956 22.102 49.6448C22.2037 49.6255 22.2982 49.6001 22.3958 49.5777C22.5748 49.536 22.7527 49.4923 22.9357 49.4384C23.078 49.3957 23.2163 49.3459 23.3556 49.2971C23.4948 49.2483 23.6392 49.1954 23.7836 49.1405C23.9279 49.0856 24.0489 49.0226 24.1801 48.9616C24.3509 48.8833 24.5207 48.806 24.6884 48.7145H24.6945C25.6433 48.2066 26.5197 47.5737 27.3002 46.8327C27.5111 46.636 27.6944 46.4115 27.8452 46.1658C28.6387 44.8937 29.16 43.471 29.3763 41.9873C29.4047 41.791 29.4301 41.5948 29.4454 41.3945C29.4596 41.2105 29.4698 41.0275 29.4739 40.8445C29.4739 40.7866 29.482 40.7317 29.482 40.6737C29.483 40.5304 29.4688 40.3982 29.4627 40.2599ZM27.4365 40.9259C27.4365 41.0102 27.4293 41.0946 27.4243 41.178C27.406 41.424 27.3744 41.6701 27.3328 41.9171C26.9528 44.0309 25.6404 45.8609 23.7602 46.8988C23.6341 46.9649 23.5101 47.0269 23.3861 47.0838L23.3017 47.1245C22.711 47.3926 22.0875 47.5813 21.4473 47.6857C21.4025 47.6928 21.3568 47.7009 21.311 47.707C21.184 47.7253 21.0589 47.7406 20.9349 47.7518C20.7712 47.766 20.6065 47.7741 20.4387 47.7772C20.3676 47.7772 20.2974 47.7772 20.2263 47.7772C19.9857 47.7744 19.7455 47.7595 19.5065 47.7324L19.3845 47.7182C19.1049 47.6816 18.8276 47.6294 18.5538 47.5616C14.7462 46.587 12.4495 42.7102 13.424 38.9026C14.0679 36.3866 16.0314 34.4211 18.5467 33.7746V33.7736C19.1308 33.6263 19.7306 33.5511 20.333 33.5499C20.6236 33.5516 20.914 33.5713 21.2023 33.6089C21.2795 33.6181 21.3558 33.6323 21.432 33.6435C21.6516 33.678 21.8692 33.7218 22.0837 33.7767C22.1539 33.795 22.224 33.8112 22.2931 33.8305C22.8338 33.9866 23.3542 34.2057 23.8436 34.4832C23.9218 34.529 23.9981 34.5768 24.0754 34.6246C24.236 34.7262 24.3915 34.8279 24.5451 34.9438C24.6274 35.0038 24.7108 35.0627 24.7901 35.1268C24.9896 35.2861 25.1806 35.4558 25.3625 35.6351C25.4346 35.7083 25.5007 35.7886 25.5709 35.8649C25.6878 35.992 25.8017 36.1221 25.9104 36.2594C25.9857 36.3539 26.0579 36.4515 26.129 36.5501C26.2307 36.6965 26.3324 36.849 26.4239 37.0036C26.4747 37.0879 26.5255 37.1703 26.5774 37.2567C26.7085 37.498 26.8253 37.7469 26.9271 38.0019C26.9678 38.1036 27.0023 38.2053 27.0389 38.3069C27.105 38.494 27.162 38.6831 27.2118 38.8742C27.2372 38.9759 27.2657 39.0664 27.287 39.165C27.3464 39.4397 27.3894 39.7178 27.4161 39.9976C27.4222 40.0719 27.4222 40.1471 27.4273 40.2213C27.4415 40.4551 27.4456 40.69 27.4365 40.9259Z" fill="white"/>
<path d="M57.9504 21.35H54.753C54.3266 21.3543 53.9452 21.0858 53.8054 20.6831C53.4901 19.7387 53.1086 18.8176 52.6637 17.9269C52.4749 17.5422 52.5535 17.0797 52.8589 16.7791L55.1261 14.5089C56.3161 13.318 56.3161 11.3881 55.1261 10.1972L50.8032 5.88142C49.6123 4.69141 47.6824 4.69141 46.4915 5.88142L44.2254 8.14655C43.9251 8.4518 43.4633 8.53085 43.0786 8.34277C42.1877 7.89556 41.2664 7.51202 40.3214 7.19495C39.917 7.05656 39.6466 6.6748 39.6504 6.24742V3.05C39.6504 1.36551 38.2849 0 36.6004 0H30.5004C28.8159 0 27.4504 1.36551 27.4504 3.05V6.24742C27.4547 6.67378 27.1863 7.05516 26.7835 7.19495C25.839 7.5119 24.9179 7.89518 24.0273 8.34175C23.6426 8.53123 23.1799 8.45257 22.8795 8.14655L20.6092 5.87938C19.4169 4.69281 17.4899 4.69281 16.2976 5.87938L11.9828 10.1941C10.7922 11.3851 10.7922 13.3158 11.9828 14.5068L15.3165 17.8466C15.7197 18.2372 16.3634 18.2271 16.754 17.8237C17.1352 17.4302 17.1361 16.8055 16.7561 16.411L13.4204 13.0723C13.0235 12.6753 13.0235 12.0317 13.4204 11.6347L17.7351 7.32C18.1321 6.92312 18.7757 6.92312 19.1727 7.32L21.4439 9.58717C22.3629 10.5116 23.7709 10.7426 24.9372 10.1606C25.7425 9.75733 26.5752 9.41116 27.429 9.12458C28.6615 8.70737 29.4891 7.54862 29.4837 6.24742V3.05C29.4837 2.48855 29.9389 2.03333 30.5004 2.03333H36.6004C37.1618 2.03333 37.6171 2.48855 37.6171 3.05V6.24742C37.6118 7.54837 38.4394 8.70673 39.6717 9.12357C40.526 9.41027 41.359 9.7567 42.1646 10.1606C43.3311 10.7396 44.7373 10.5083 45.6569 9.58615L47.9281 7.32C48.3251 6.92312 48.9687 6.92312 49.3657 7.32L53.6804 11.6358C54.0766 12.0326 54.0766 12.6754 53.6804 13.0723L51.4132 15.3435C50.4897 16.263 50.2588 17.6704 50.8398 18.8368C51.2431 19.6421 51.5892 20.4748 51.8758 21.3287C52.2928 22.5614 53.4516 23.3889 54.753 23.3833H57.9504C58.5118 23.3833 58.9671 23.8385 58.9671 24.4V30.5C58.9671 31.0615 58.5118 31.5167 57.9504 31.5167H54.753C53.452 31.5115 52.2937 32.339 51.8768 33.5714C51.5903 34.4256 51.2437 35.2586 50.8398 36.0642C50.2598 37.2306 50.4912 38.6373 51.4142 39.5565L53.6814 41.8277C54.0783 42.2247 54.0783 42.8683 53.6814 43.2653L49.3646 47.58C48.9678 47.9762 48.325 47.9762 47.9281 47.58L44.5873 44.2464C44.1967 43.843 43.553 43.8328 43.1498 44.2235C42.7464 44.6141 42.7362 45.2578 43.1269 45.661C43.135 45.6694 43.1434 45.6778 43.1518 45.686L46.4915 49.0196C47.6824 50.2096 49.6123 50.2096 50.8032 49.0196L55.118 44.7059C56.3086 43.5149 56.3086 41.5842 55.118 40.3932L52.8538 38.125C52.5488 37.8246 52.4699 37.3629 52.6576 36.9782C53.1048 36.0874 53.4884 35.166 53.8054 34.221C53.9438 33.8166 54.3256 33.5462 54.753 33.55H57.9504C59.6349 33.55 61.0004 32.1845 61.0004 30.5V24.4C61.0004 22.7155 59.6349 21.35 57.9504 21.35Z" fill="white"/>
<path d="M42.8957 18.1048C37.7313 12.9512 29.3697 12.9512 24.2053 18.1048C23.8152 18.5087 23.8264 19.1524 24.2303 19.5424C24.6243 19.9229 25.2489 19.9229 25.6428 19.5424C29.9808 15.1458 37.0615 15.0984 41.4581 19.4364C45.8547 23.7744 45.9021 30.8551 41.5641 35.2517C41.529 35.2873 41.4937 35.3226 41.4581 35.3577C41.0542 35.7478 41.0431 36.3914 41.4332 36.7952C41.8233 37.1991 42.4669 37.2103 42.8708 36.8201C42.8792 36.812 42.8875 36.8036 42.8957 36.7952C48.0493 31.6308 48.0493 23.2692 42.8957 18.1048Z" fill="white"/>
</g>
<defs>
<clipPath id="clip0_56_418">
<rect width="61" height="61" fill="white"/>
</clipPath>
</defs>
</svg>
