<svg width="72" height="72" viewBox="0 0 72 72" fill="none" xmlns="http://www.w3.org/2000/svg">
<path d="M67.6895 57.4324L68.8055 55.7573C69.4223 54.8338 69.7512 53.7481 69.7505 52.6376V37.125C69.7502 37.0267 69.7373 36.9288 69.7122 36.8337L63.5945 14.0254C63.3415 13.0646 62.7772 12.2148 61.9899 11.6088C61.2025 11.0028 60.2365 10.6749 59.243 10.6763C58.8518 10.675 58.4621 10.7257 58.0842 10.827C56.9325 11.1378 55.951 11.8927 55.355 12.926C54.7591 13.9594 54.5972 15.187 54.905 16.3395L58.2136 28.7033C58.0269 28.7803 57.8454 28.8694 57.6702 28.9699C57.1573 29.2648 56.7081 29.6586 56.3485 30.1285C55.9889 30.5983 55.7262 31.1349 55.5755 31.707L51.7842 45.8516L51.6717 46.3151C50.956 49.181 51.2884 52.2083 52.6089 54.8505L53.888 57.402C53.963 57.5594 54.0015 57.7317 54.0005 57.906V58.5H52.8755C52.5771 58.5 52.291 58.6185 52.08 58.8295C51.869 59.0405 51.7505 59.3267 51.7505 59.625V68.625C51.7505 68.9234 51.869 69.2095 52.08 69.4205C52.291 69.6315 52.5771 69.75 52.8755 69.75H68.6255C68.9239 69.75 69.21 69.6315 69.421 69.4205C69.632 69.2095 69.7505 68.9234 69.7505 68.625V59.625C69.7505 59.3267 69.632 59.0405 69.421 58.8295C69.21 58.6185 68.9239 58.5 68.6255 58.5H67.5005V58.05C67.5014 57.83 67.5671 57.6152 67.6895 57.4324ZM67.5005 67.5H54.0005V60.75H67.5005V67.5ZM56.2505 58.5V57.906C56.2499 57.3821 56.1282 56.8654 55.895 56.3963L54.6181 53.8436C53.538 51.6819 53.2659 49.2054 53.8509 46.8608L57.7479 32.2875C57.9113 31.7215 58.2903 31.2421 58.8034 30.9525C59.3165 30.6628 59.9227 30.586 60.4918 30.7385C61.0609 30.891 61.5475 31.2606 61.8471 31.768C62.1466 32.2753 62.2352 32.8799 62.0937 33.4519L59.9832 41.3269C59.906 41.6151 59.9463 41.9222 60.0955 42.1807C60.2447 42.4391 60.4904 42.6277 60.7786 42.705C61.0668 42.7823 61.374 42.7419 61.6324 42.5928C61.8909 42.4436 62.0795 42.1979 62.1567 41.9096L64.2672 34.0346C64.4204 33.4638 64.4595 32.8684 64.3825 32.2824C64.3055 31.6964 64.1138 31.1313 63.8184 30.6194C63.5229 30.1075 63.1295 29.6588 62.6607 29.2989C62.1918 28.9391 61.6566 28.6751 61.0857 28.5222C60.8806 28.4675 60.672 28.4269 60.4614 28.4007L57.0785 15.7613C57.0013 15.4755 56.9811 15.1774 57.0193 14.8839C57.0575 14.5904 57.1532 14.3073 57.301 14.0508C57.4488 13.7944 57.6457 13.5696 57.8805 13.3894C58.1153 13.2091 58.3833 13.077 58.6692 13.0005C58.8562 12.9498 59.0492 12.9248 59.243 12.9263C59.7397 12.9262 60.2225 13.0904 60.616 13.3935C61.0096 13.6965 61.2918 14.1212 61.4187 14.6014L67.5005 37.2735V52.6376C67.5025 53.3036 67.3067 53.9551 66.938 54.5096L65.813 56.1836C65.4443 56.7382 65.2485 57.3897 65.2505 58.0556V58.5H56.2505Z" fill="#1966A0"/>
<path d="M18.1181 57.4031L19.395 54.8505C20.7156 52.2079 21.0479 49.1802 20.3321 46.314L16.425 31.707C16.2457 31.0376 15.9143 30.4187 15.4565 29.8985C14.9987 29.3782 14.4269 28.9707 13.7858 28.7078L17.1 16.3463C17.4094 15.1922 17.2478 13.9625 16.6507 12.9275C16.0537 11.8926 15.0702 11.137 13.9163 10.827C13.5384 10.7257 13.1487 10.675 12.7575 10.6763C11.7651 10.6746 10.8002 11.0016 10.0133 11.6063C9.22647 12.211 8.66206 13.0593 8.40825 14.0187L2.28825 36.8337C2.26317 36.9288 2.25032 37.0267 2.25 37.125V52.6376C2.24932 53.7481 2.5782 54.8338 3.195 55.7573L4.311 57.4324C4.43444 57.6168 4.50023 57.8337 4.5 58.0556V58.5H3.375C3.07663 58.5 2.79048 58.6185 2.57951 58.8295C2.36853 59.0405 2.25 59.3267 2.25 59.625V68.625C2.25 68.9234 2.36853 69.2095 2.57951 69.4205C2.79048 69.6315 3.07663 69.75 3.375 69.75H19.125C19.4234 69.75 19.7095 69.6315 19.9205 69.4205C20.1315 69.2095 20.25 68.9234 20.25 68.625V59.625C20.25 59.3267 20.1315 59.0405 19.9205 58.8295C19.7095 58.6185 19.4234 58.5 19.125 58.5H18V57.906C18.0006 57.7316 18.041 57.5596 18.1181 57.4031ZM18 67.5H4.5V60.75H18V67.5ZM6.75 58.5V58.05C6.752 57.3841 6.55623 56.7326 6.1875 56.178L5.0625 54.5096C4.69377 53.9551 4.498 53.3036 4.5 52.6376V37.2735L10.584 14.5946C10.7109 14.1154 10.993 13.6917 11.3863 13.3898C11.7795 13.088 12.2617 12.9249 12.7575 12.9263C12.9512 12.9248 13.1443 12.9498 13.3313 13.0005C13.6174 13.077 13.8857 13.2092 14.1207 13.3896C14.3556 13.5699 14.5527 13.7949 14.7004 14.0517C14.8482 14.3084 14.9439 14.5917 14.9819 14.8855C15.0199 15.1793 14.9996 15.4776 14.922 15.7635L11.5391 28.404C11.3285 28.4303 11.1199 28.4709 10.9148 28.5255C10.3439 28.6785 9.80869 28.9425 9.33983 29.3023C8.87096 29.6622 8.47757 30.1109 8.18213 30.6228C7.88669 31.1347 7.69499 31.6997 7.61797 32.2857C7.54095 32.8717 7.58012 33.4672 7.73325 34.038L9.84375 41.913C9.92103 42.2012 10.1096 42.447 10.3681 42.5961C10.6265 42.7453 10.9337 42.7857 11.2219 42.7084C11.5101 42.6311 11.7558 42.4425 11.905 42.1841C12.0541 41.9256 12.0945 41.6185 12.0173 41.3303L9.90675 33.4553C9.83008 33.1699 9.81036 32.8723 9.84872 32.5793C9.88708 32.2863 9.98277 32.0038 10.1303 31.7478C10.2779 31.4918 10.4744 31.2673 10.7087 31.0873C10.943 30.9073 11.2105 30.7751 11.4958 30.6985C11.7812 30.6218 12.0788 30.6021 12.3718 30.6404C12.6648 30.6788 12.9473 30.7745 13.2033 30.922C13.4593 31.0696 13.6837 31.2661 13.8638 31.5004C14.0438 31.7347 14.176 32.0022 14.2526 32.2875L18.0338 46.3984L18.1462 46.8596C18.7312 49.2047 18.4591 51.6815 17.379 53.8436L16.1021 56.3974C15.8699 56.8664 15.7494 57.3827 15.75 57.906V58.5H6.75Z" fill="#1966A0"/>
<path d="M50.625 24.75V16.875C50.625 12.9962 49.0842 9.27628 46.3414 6.53356C43.5987 3.79084 39.8788 2.25 36 2.25C32.1212 2.25 28.4013 3.79084 25.6586 6.53356C22.9158 9.27628 21.375 12.9962 21.375 16.875V24.75C20.4799 24.75 19.6214 25.1056 18.9885 25.7385C18.3556 26.3714 18 27.2299 18 28.125V31.5C18 32.3951 18.3556 33.2536 18.9885 33.8865C19.6214 34.5194 20.4799 34.875 21.375 34.875H23.625C24.5201 34.875 25.3786 34.5194 26.0115 33.8865C26.6444 33.2536 27 32.3951 27 31.5V28.125C27 27.2299 26.6444 26.3714 26.0115 25.7385C25.3786 25.1056 24.5201 24.75 23.625 24.75V16.875C23.625 13.5929 24.9288 10.4453 27.2496 8.12455C29.5703 5.80379 32.7179 4.5 36 4.5C39.2821 4.5 42.4297 5.80379 44.7504 8.12455C47.0712 10.4453 48.375 13.5929 48.375 16.875V24.75C47.4799 24.75 46.6215 25.1056 45.9885 25.7385C45.3556 26.3714 45 27.2299 45 28.125V31.5C45 32.3951 45.3556 33.2536 45.9885 33.8865C46.6215 34.5194 47.4799 34.875 48.375 34.875V38.25C48.375 38.5484 48.2565 38.8345 48.0455 39.0455C47.8345 39.2565 47.5484 39.375 47.25 39.375H40.293C40.0612 38.7192 39.6324 38.1511 39.0653 37.7483C38.4982 37.3456 37.8205 37.1279 37.125 37.125H34.875C33.9799 37.125 33.1214 37.4806 32.4885 38.1135C31.8556 38.7465 31.5 39.6049 31.5 40.5C31.5 41.3951 31.8556 42.2535 32.4885 42.8865C33.1214 43.5194 33.9799 43.875 34.875 43.875H37.125C37.8205 43.8721 38.4982 43.6544 39.0653 43.2517C39.6324 42.8489 40.0612 42.2808 40.293 41.625H47.25C48.1451 41.625 49.0035 41.2694 49.6365 40.6365C50.2694 40.0035 50.625 39.1451 50.625 38.25V34.875C51.5201 34.875 52.3785 34.5194 53.0115 33.8865C53.6444 33.2536 54 32.3951 54 31.5V28.125C54 27.2299 53.6444 26.3714 53.0115 25.7385C52.3785 25.1056 51.5201 24.75 50.625 24.75ZM24.75 28.125V31.5C24.75 31.7984 24.6315 32.0845 24.4205 32.2955C24.2095 32.5065 23.9234 32.625 23.625 32.625H21.375C21.0766 32.625 20.7905 32.5065 20.5795 32.2955C20.3685 32.0845 20.25 31.7984 20.25 31.5V28.125C20.25 27.8266 20.3685 27.5405 20.5795 27.3295C20.7905 27.1185 21.0766 27 21.375 27H23.625C23.9234 27 24.2095 27.1185 24.4205 27.3295C24.6315 27.5405 24.75 27.8266 24.75 28.125ZM37.125 41.625H34.875C34.5766 41.625 34.2905 41.5065 34.0795 41.2955C33.8685 41.0845 33.75 40.7984 33.75 40.5C33.75 40.2016 33.8685 39.9155 34.0795 39.7045C34.2905 39.4935 34.5766 39.375 34.875 39.375H37.125C37.4234 39.375 37.7095 39.4935 37.9205 39.7045C38.1315 39.9155 38.25 40.2016 38.25 40.5C38.25 40.7984 38.1315 41.0845 37.9205 41.2955C37.7095 41.5065 37.4234 41.625 37.125 41.625ZM51.75 31.5C51.75 31.7984 51.6315 32.0845 51.4205 32.2955C51.2095 32.5065 50.9234 32.625 50.625 32.625H48.375C48.0766 32.625 47.7905 32.5065 47.5795 32.2955C47.3685 32.0845 47.25 31.7984 47.25 31.5V28.125C47.25 27.8266 47.3685 27.5405 47.5795 27.3295C47.7905 27.1185 48.0766 27 48.375 27H50.625C50.9234 27 51.2095 27.1185 51.4205 27.3295C51.6315 27.5405 51.75 27.8266 51.75 28.125V31.5Z" fill="#1966A0"/>
<path d="M38.25 27H33.75C33.4516 27 33.1655 26.8815 32.9545 26.6705C32.7435 26.4595 32.625 26.1734 32.625 25.875V25.0245L32.0254 25.6241C31.8144 25.835 31.5283 25.9535 31.23 25.9535C30.9317 25.9535 30.6456 25.835 30.4346 25.6241L27.2509 22.4404C27.04 22.2294 26.9215 21.9433 26.9215 21.645C26.9215 21.3467 27.04 21.0606 27.2509 20.8496L27.8505 20.25H27C26.7016 20.25 26.4155 20.1315 26.2045 19.9205C25.9935 19.7095 25.875 19.4234 25.875 19.125V14.625C25.875 14.3266 25.9935 14.0405 26.2045 13.8295C26.4155 13.6185 26.7016 13.5 27 13.5H27.8505L27.2509 12.9004C27.04 12.6894 26.9215 12.4033 26.9215 12.105C26.9215 11.8067 27.04 11.5206 27.2509 11.3096L30.4346 8.12587C30.6456 7.91497 30.9317 7.79649 31.23 7.79649C31.5283 7.79649 31.8144 7.91497 32.0254 8.12587L32.625 8.7255V7.875C32.625 7.57663 32.7435 7.29048 32.9545 7.07951C33.1655 6.86853 33.4516 6.75 33.75 6.75H38.25C38.5484 6.75 38.8345 6.86853 39.0455 7.07951C39.2565 7.29048 39.375 7.57663 39.375 7.875V8.7255L39.9746 8.12587C40.1856 7.91497 40.4717 7.79649 40.77 7.79649C41.0683 7.79649 41.3544 7.91497 41.5654 8.12587L44.7491 11.3096C44.96 11.5206 45.0785 11.8067 45.0785 12.105C45.0785 12.4033 44.96 12.6894 44.7491 12.9004L44.1495 13.5H45C45.2984 13.5 45.5845 13.6185 45.7955 13.8295C46.0065 14.0405 46.125 14.3266 46.125 14.625V19.125C46.125 19.4234 46.0065 19.7095 45.7955 19.9205C45.5845 20.1315 45.2984 20.25 45 20.25H44.1495L44.7491 20.8496C44.96 21.0606 45.0785 21.3467 45.0785 21.645C45.0785 21.9433 44.96 22.2294 44.7491 22.4404L41.5654 25.6241C41.3544 25.835 41.0683 25.9535 40.77 25.9535C40.4717 25.9535 40.1856 25.835 39.9746 25.6241L39.375 25.0245V25.875C39.375 26.1734 39.2565 26.4595 39.0455 26.6705C38.8345 26.8815 38.5484 27 38.25 27ZM34.875 24.75H37.125V22.3088C37.125 22.0863 37.1911 21.8688 37.3147 21.6839C37.4383 21.4989 37.614 21.3547 37.8195 21.2696C38.025 21.1845 38.2512 21.1622 38.4694 21.2056C38.6876 21.249 38.888 21.3561 39.0454 21.5134L40.77 23.238L42.363 21.645L40.6384 19.9204C40.4811 19.763 40.374 19.5626 40.3306 19.3444C40.2872 19.1262 40.3095 18.9001 40.3946 18.6945C40.4797 18.489 40.6239 18.3133 40.8089 18.1897C40.9938 18.0661 41.2113 18 41.4338 18H43.875V15.75H41.4338C41.2113 15.75 40.9938 15.6839 40.8089 15.5603C40.6239 15.4367 40.4797 15.261 40.3946 15.0555C40.3095 14.8499 40.2872 14.6238 40.3306 14.4056C40.374 14.1874 40.4811 13.987 40.6384 13.8296L42.363 12.105L40.77 10.512L39.0454 12.2366C38.888 12.3939 38.6876 12.501 38.4694 12.5444C38.2512 12.5878 38.025 12.5655 37.8195 12.4804C37.614 12.3953 37.4383 12.2511 37.3147 12.0661C37.1911 11.8812 37.125 11.6637 37.125 11.4412V9H34.875V11.4412C34.875 11.6637 34.8089 11.8812 34.6853 12.0661C34.5617 12.2511 34.386 12.3953 34.1805 12.4804C33.9749 12.5655 33.7488 12.5878 33.5306 12.5444C33.3124 12.501 33.112 12.3939 32.9546 12.2366L31.23 10.512L29.637 12.105L31.3616 13.8296C31.5189 13.987 31.626 14.1874 31.6694 14.4056C31.7128 14.6238 31.6905 14.8499 31.6054 15.0555C31.5203 15.261 31.3761 15.4367 31.1911 15.5603C31.0062 15.6839 30.7887 15.75 30.5662 15.75H28.125V18H30.5662C30.7887 18 31.0062 18.0661 31.1911 18.1897C31.3761 18.3133 31.5203 18.489 31.6054 18.6945C31.6905 18.9001 31.7128 19.1262 31.6694 19.3444C31.626 19.5626 31.5189 19.763 31.3616 19.9204L29.637 21.645L31.23 23.238L32.9546 21.5134C33.112 21.3561 33.3124 21.249 33.5306 21.2056C33.7488 21.1622 33.9749 21.1845 34.1805 21.2696C34.386 21.3547 34.5617 21.4989 34.6853 21.6839C34.8089 21.8688 34.875 22.0863 34.875 22.3088V24.75ZM36 20.25C35.3325 20.25 34.68 20.0521 34.125 19.6812C33.5699 19.3104 33.1374 18.7833 32.8819 18.1666C32.6265 17.5499 32.5596 16.8713 32.6898 16.2166C32.8201 15.5619 33.1415 14.9605 33.6135 14.4885C34.0855 14.0165 34.6869 13.6951 35.3416 13.5648C35.9963 13.4346 36.6749 13.5015 37.2916 13.7569C37.9083 14.0124 38.4354 14.4449 38.8062 15C39.1771 15.555 39.375 16.2075 39.375 16.875C39.375 17.7701 39.0194 18.6286 38.3865 19.2615C37.7535 19.8944 36.8951 20.25 36 20.25ZM36 15.75C35.7775 15.75 35.56 15.816 35.375 15.9396C35.19 16.0632 35.0458 16.2389 34.9606 16.4445C34.8755 16.65 34.8532 16.8762 34.8966 17.0945C34.94 17.3127 35.0472 17.5132 35.2045 17.6705C35.3618 17.8278 35.5623 17.935 35.7805 17.9784C35.9988 18.0218 36.225 17.9995 36.4305 17.9144C36.6361 17.8292 36.8118 17.685 36.9354 17.5C37.059 17.315 37.125 17.0975 37.125 16.875C37.125 16.5766 37.0065 16.2905 36.7955 16.0795C36.5845 15.8685 36.2984 15.75 36 15.75Z" fill="#1966A0"/>
</svg>
