<svg width="61" height="61" viewBox="0 0 61 61" fill="none" xmlns="http://www.w3.org/2000/svg">
<g clip-path="url(#clip0_56_469)">
<path d="M58.9187 47.424C58.9185 47.4238 58.9183 47.4236 58.9182 47.4234L58.9171 47.4245L45.9947 34.502C45.5982 34.1056 44.9555 34.1056 44.559 34.502L41.6838 37.3783L38.0937 33.7882L41.7934 30.0926C46.8913 31.2359 52.22 29.6975 55.9241 26.0132C60.0626 21.8437 61.4529 15.675 59.503 10.1332C59.3866 9.80511 59.1104 9.55954 58.771 9.48238C58.4312 9.40687 58.0764 9.50891 57.8288 9.75346L50.6203 16.9559L45.2393 15.1619L43.4453 9.78088L50.6477 2.57238C51.0438 2.17553 51.0431 1.5326 50.6462 1.13652C50.5394 1.02991 50.4101 0.948562 50.268 0.898179C42.3448 -1.92443 33.6337 2.21043 30.8111 10.1334C29.8431 12.8507 29.6666 15.787 30.3025 18.6006L26.6068 22.3003L13.6651 9.34938L13.2589 4.9725C13.2253 4.60967 12.9998 4.29277 12.668 4.142L4.77119 0.55806C4.38678 0.382543 3.93396 0.463385 3.63407 0.761116L0.770979 3.62421C0.473248 3.9241 0.392406 4.37691 0.567923 4.76132L4.15187 12.6602C4.30251 12.9926 4.61991 13.2186 4.98338 13.2521L9.36026 13.6582L22.3071 26.6L2.07765 46.8275C-0.692549 49.6053 -0.692549 54.1009 2.07765 56.8788L3.50919 58.3103C6.28726 61.08 10.7824 61.08 13.5605 58.3103L33.795 38.0869L37.3851 41.6759L34.5088 44.5532C34.1124 44.9497 34.1124 45.5924 34.5088 45.9888L47.4313 58.9103C50.2085 61.6822 54.7054 61.6822 57.4826 58.9103L58.9182 57.4747C61.6937 54.6995 61.6939 50.1995 58.9187 47.424ZM10.5319 11.9627C10.3644 11.7951 10.1435 11.6913 9.90749 11.6693L5.75296 11.2876L2.70712 4.56639L4.57524 2.69726L11.2964 5.7431L11.6792 9.89662C11.7009 10.1325 11.8043 10.3534 11.9716 10.521L25.1702 23.7319L23.7417 25.1604L10.5319 11.9627ZM12.1289 56.8788C10.1438 58.8596 6.92993 58.8596 4.9448 56.8788L3.51325 55.4472C1.53244 53.4621 1.53244 50.2482 3.51325 48.2631L32.1442 19.6321C32.4008 19.3757 32.5011 19.0018 32.4071 18.6514C30.54 11.5924 34.7489 4.35635 41.8079 2.48925C43.8288 1.95471 45.9477 1.90699 47.9907 2.35003L41.564 8.78488C41.292 9.05711 41.1972 9.45967 41.3193 9.82453L43.4717 16.2817C43.573 16.5848 43.811 16.8226 44.1143 16.9234L50.5715 19.0748C50.9356 19.1962 51.3372 19.1019 51.6092 18.8311L58.045 12.4044C59.6127 19.5197 55.1154 26.5588 48.0001 28.1265C45.9331 28.582 43.7869 28.5334 41.7427 27.9849C41.3925 27.8894 41.0181 27.9899 40.7629 28.2478L12.1289 56.8788ZM35.2306 36.6513L36.384 35.498L36.6581 35.2238L40.2522 38.8139L38.8207 40.2454L35.2306 36.6513ZM57.4815 56.0391V56.0432L56.0459 57.4747C54.0621 59.4538 50.8507 59.4538 48.8669 57.4747L36.6622 45.271L45.2768 36.6554L57.4815 48.8601C59.464 50.8425 59.464 54.0567 57.4815 56.0391Z" fill="white"/>
</g>
<defs>
<clipPath id="clip0_56_469">
<rect width="61" height="61" fill="white"/>
</clipPath>
</defs>
</svg>
