<svg width="72" height="72" viewBox="0 0 72 72" fill="none" xmlns="http://www.w3.org/2000/svg">
<g opacity="0.7">
<path d="M14.625 52.875C13.9575 52.875 13.305 53.0729 12.75 53.4438C12.1949 53.8146 11.7624 54.3417 11.5069 54.9584C11.2515 55.5751 11.1846 56.2537 11.3149 56.9084C11.4451 57.5631 11.7665 58.1645 12.2385 58.6365C12.7105 59.1085 13.3119 59.4299 13.9666 59.5602C14.6213 59.6904 15.2999 59.6235 15.9166 59.3681C16.5333 59.1127 17.0604 58.6801 17.4312 58.1251C17.8021 57.57 18 56.9175 18 56.25C17.999 55.3552 17.6431 54.4973 17.0104 53.8646C16.3777 53.2319 15.5198 52.876 14.625 52.875ZM14.625 57.375C14.4025 57.375 14.185 57.309 14 57.1854C13.815 57.0618 13.6708 56.8861 13.5856 56.6805C13.5005 56.475 13.4782 56.2488 13.5216 56.0305C13.565 55.8123 13.6722 55.6118 13.8295 55.4545C13.9868 55.2972 14.1873 55.19 14.4055 55.1466C14.6238 55.1032 14.85 55.1255 15.0555 55.2106C15.2611 55.2958 15.4368 55.44 15.5604 55.625C15.684 55.81 15.75 56.0275 15.75 56.25C15.7497 56.5483 15.631 56.8342 15.4201 57.0451C15.2092 57.256 14.9233 57.3747 14.625 57.375Z" fill="#0B132A"/>
<path d="M57.375 52.875C56.7075 52.875 56.055 53.0729 55.5 53.4438C54.9449 53.8146 54.5124 54.3417 54.2569 54.9584C54.0015 55.5751 53.9346 56.2537 54.0649 56.9084C54.1951 57.5631 54.5165 58.1645 54.9885 58.6365C55.4605 59.1085 56.0619 59.4299 56.7166 59.5602C57.3713 59.6904 58.0499 59.6235 58.6666 59.3681C59.2833 59.1127 59.8104 58.6801 60.1812 58.1251C60.5521 57.57 60.75 56.9175 60.75 56.25C60.749 55.3552 60.3931 54.4973 59.7604 53.8646C59.1277 53.2319 58.2698 52.876 57.375 52.875ZM57.375 57.375C57.1525 57.375 56.935 57.309 56.75 57.1854C56.565 57.0618 56.4208 56.8861 56.3356 56.6805C56.2505 56.475 56.2282 56.2488 56.2716 56.0305C56.315 55.8123 56.4222 55.6118 56.5795 55.4545C56.7368 55.2972 56.9373 55.19 57.1555 55.1466C57.3738 55.1032 57.6 55.1255 57.8055 55.2106C58.0111 55.2958 58.1868 55.44 58.3104 55.625C58.434 55.81 58.5 56.0275 58.5 56.25C58.4997 56.5483 58.381 56.8342 58.1701 57.0451C57.9592 57.256 57.6733 57.3747 57.375 57.375Z" fill="#0B132A"/>
<path d="M70.6964 37.6411L60.5714 21.8911C60.4695 21.7327 60.3294 21.6025 60.164 21.5123C59.9987 21.4221 59.8133 21.3749 59.625 21.375H46.125V15.1875C46.1238 14.1436 45.7086 13.1427 44.9705 12.4045C44.2323 11.6664 43.2314 11.2512 42.1875 11.25H5.0625C4.01856 11.2512 3.01772 11.6664 2.27954 12.4045C1.54137 13.1427 1.12615 14.1436 1.125 15.1875V56.25C1.125 56.5484 1.24353 56.8345 1.4545 57.0455C1.66548 57.2565 1.95163 57.375 2.25 57.375H6.83156C7.10199 59.2491 8.0387 60.963 9.47004 62.2026C10.9014 63.4423 12.7315 64.1246 14.625 64.1246C16.5185 64.1246 18.3486 63.4423 19.78 62.2026C21.2113 60.963 22.148 59.2491 22.4184 57.375H49.5816C49.852 59.2491 50.7887 60.963 52.22 62.2026C53.6514 63.4423 55.4815 64.1246 57.375 64.1246C59.2685 64.1246 61.0986 63.4423 62.53 62.2026C63.9613 60.963 64.898 59.2491 65.1684 57.375H69.75C70.0484 57.375 70.3345 57.2565 70.5455 57.0455C70.7565 56.8345 70.875 56.5484 70.875 56.25V38.25C70.875 38.0341 70.813 37.8228 70.6964 37.6411ZM14.625 61.875C13.5125 61.875 12.4249 61.5451 11.4999 60.927C10.5749 60.3089 9.85392 59.4304 9.42818 58.4026C9.00243 57.3748 8.89104 56.2438 9.10808 55.1526C9.32512 54.0615 9.86085 53.0592 10.6475 52.2725C11.4342 51.4859 12.4365 50.9501 13.5276 50.7331C14.6188 50.516 15.7498 50.6274 16.7776 51.0532C17.8054 51.4789 18.6839 52.1999 19.302 53.1249C19.9201 54.0499 20.25 55.1375 20.25 56.25C20.2485 57.7414 19.6554 59.1713 18.6008 60.2258C17.5463 61.2804 16.1164 61.8735 14.625 61.875ZM43.875 55.125H22.4184C22.148 53.2509 21.2113 51.537 19.78 50.2974C18.3486 49.0577 16.5185 48.3754 14.625 48.3754C12.7315 48.3754 10.9014 49.0577 9.47004 50.2974C8.0387 51.537 7.10199 53.2509 6.83156 55.125H3.375V43.875H43.875V55.125ZM43.875 41.625H3.375V15.1875C3.37537 14.7401 3.55328 14.3111 3.86967 13.9947C4.18606 13.6783 4.61506 13.5004 5.0625 13.5H42.1875C42.6349 13.5004 43.0639 13.6783 43.3803 13.9947C43.6967 14.3111 43.8746 14.7401 43.875 15.1875V41.625ZM61.1803 27L67.6898 37.125H51.75V27H61.1803ZM57.375 61.875C56.2625 61.875 55.1749 61.5451 54.2499 60.927C53.3249 60.3089 52.6039 59.4304 52.1782 58.4026C51.7524 57.3748 51.641 56.2438 51.8581 55.1526C52.0751 54.0615 52.6109 53.0592 53.3975 52.2725C54.1842 51.4859 55.1865 50.9501 56.2776 50.7331C57.3688 50.516 58.4998 50.6274 59.5276 51.0532C60.5554 51.4789 61.4339 52.1999 62.052 53.1249C62.6701 54.0499 63 55.1375 63 56.25C62.9985 57.7414 62.4054 59.1713 61.3508 60.2258C60.2963 61.2804 58.8664 61.8735 57.375 61.875ZM68.625 46.125H66.375C66.0766 46.125 65.7905 46.0065 65.5795 45.7955C65.3685 45.5845 65.25 45.2984 65.25 45C65.25 44.7016 65.3685 44.4155 65.5795 44.2045C65.7905 43.9935 66.0766 43.875 66.375 43.875H68.625V46.125ZM68.625 41.625H66.375C65.4799 41.625 64.6215 41.9806 63.9885 42.6135C63.3556 43.2465 63 44.1049 63 45C63 45.8951 63.3556 46.7535 63.9885 47.3865C64.6215 48.0194 65.4799 48.375 66.375 48.375H68.625V55.125H65.1684C64.898 53.2509 63.9613 51.537 62.53 50.2974C61.0986 49.0577 59.2685 48.3754 57.375 48.3754C55.4815 48.3754 53.6514 49.0577 52.22 50.2974C50.7887 51.537 49.852 53.2509 49.5816 55.125H46.125V23.625H59.0105L59.7347 24.75H50.625C50.3266 24.75 50.0405 24.8685 49.8295 25.0795C49.6185 25.2905 49.5 25.5766 49.5 25.875V38.25C49.5 38.5484 49.6185 38.8345 49.8295 39.0455C50.0405 39.2565 50.3266 39.375 50.625 39.375H68.625V41.625Z" fill="#0B132A"/>
<path d="M54 41.625H50.625C50.3266 41.625 50.0405 41.7435 49.8295 41.9545C49.6185 42.1655 49.5 42.4516 49.5 42.75C49.5 43.0484 49.6185 43.3345 49.8295 43.5455C50.0405 43.7565 50.3266 43.875 50.625 43.875H54C54.2984 43.875 54.5845 43.7565 54.7955 43.5455C55.0065 43.3345 55.125 43.0484 55.125 42.75C55.125 42.4516 55.0065 42.1655 54.7955 41.9545C54.5845 41.7435 54.2984 41.625 54 41.625Z" fill="#0B132A"/>
<path d="M30.375 48.375H39.375C39.6734 48.375 39.9595 48.2565 40.1705 48.0455C40.3815 47.8345 40.5 47.5484 40.5 47.25C40.5 46.9516 40.3815 46.6655 40.1705 46.4545C39.9595 46.2435 39.6734 46.125 39.375 46.125H30.375C30.0766 46.125 29.7905 46.2435 29.5795 46.4545C29.3685 46.6655 29.25 46.9516 29.25 47.25C29.25 47.5484 29.3685 47.8345 29.5795 48.0455C29.7905 48.2565 30.0766 48.375 30.375 48.375Z" fill="#0B132A"/>
<path d="M39.375 49.5H36C35.7016 49.5 35.4155 49.6185 35.2045 49.8295C34.9935 50.0405 34.875 50.3266 34.875 50.625C34.875 50.9234 34.9935 51.2095 35.2045 51.4205C35.4155 51.6315 35.7016 51.75 36 51.75H39.375C39.6734 51.75 39.9595 51.6315 40.1705 51.4205C40.3815 51.2095 40.5 50.9234 40.5 50.625C40.5 50.3266 40.3815 50.0405 40.1705 49.8295C39.9595 49.6185 39.6734 49.5 39.375 49.5Z" fill="#0B132A"/>
</g>
</svg>
